<svg width="1024" height="1024" viewBox="0 0 1024 1024" fill="none" xmlns="http://www.w3.org/2000/svg">
<path fill-rule="evenodd" clip-rule="evenodd" d="M0 614.602V508.5L90.4094 555.618L189.127 504.336L377.263 608.918L616 484.498V584.26C616 588.4 613.665 592.218 609.994 594.101L609.99 594.103L311.273 747.408L311.254 747.418C294.807 755.821 275.331 755.802 259 747.423L258.996 747.421L0 614.602ZM0 454.373L90.4452 501.509L189.896 449.846L377.997 554.408L615.659 430.549L615.667 430.545C615.7 430.527 615.729 430.511 615.754 430.496C615.778 430.482 615.798 430.469 615.815 430.458L615.702 429.676C615.691 429.67 615.679 429.664 615.667 429.657L615.659 429.653L314.374 272.636C295.988 263.059 274.054 263.042 255.556 272.644L255.541 272.651L0 405.829V454.373ZM639.939 429.553L640 430L639.94 429.584L639.057 423.5C639.077 423.57 639.095 423.64 639.114 423.71C639.133 423.782 639.152 423.854 639.17 423.926C639.641 425.769 639.898 427.659 639.939 429.553Z" fill="black"/>
<path d="M984 128H40C17.9086 128 0 145.909 0 168V351.701L233.402 230.062L233.417 230.054C265.768 213.251 304.244 213.235 336.554 230.068L637.909 387.122L637.931 387.133C650.596 393.767 658.837 404.901 662.2 417.142C662.22 417.217 662.241 417.291 662.261 417.366L662.283 417.449C662.297 417.499 662.31 417.549 662.323 417.6L662.348 417.696L662.362 417.747C662.382 417.825 662.402 417.904 662.423 417.982C663.199 421.021 663.677 424.141 663.852 427.287L664 428.368V584.26C664 606.381 651.61 626.7 631.903 636.809L594.51 656H1024V168C1024 145.909 1006.09 128 984 128Z" fill="black"/>
<path fill-rule="evenodd" clip-rule="evenodd" d="M1024 856V704H500.981L333.143 790.136L333.128 790.144C302.975 805.564 267.203 805.581 237.089 790.13L69.1358 704H0V856C0 878.091 17.9086 896 40 896H984C1006.09 896 1024 878.091 1024 856ZM51.8007 837.328C50.8029 837.328 49.994 817.527 49.994 800.99C49.994 785.964 50.8028 767.114 51.8007 767.114L51.8032 767.114C51.9232 761.731 56.325 757.403 61.7376 757.403C65.3445 757.403 68.5025 759.325 70.2437 762.2C75.7946 766.634 93.7052 783.714 102.754 792.763C106.252 796.261 110.263 800.375 114.15 804.443C114.142 803.281 114.139 802.128 114.139 800.99C114.139 785.964 114.947 767.114 115.945 767.114L115.948 767.114C116.068 761.731 120.47 757.403 125.882 757.403C131.295 757.403 135.696 761.731 135.817 767.114L135.819 767.114C136.817 767.114 137.626 785.964 137.626 800.99C137.626 817.527 136.817 837.328 135.819 837.328C135.819 842.816 131.37 847.265 125.882 847.265C120.394 847.265 115.945 842.816 115.945 837.328C115.87 837.328 115.796 837.215 115.723 836.999C111.072 833.467 96.1077 819.333 86.1463 809.371C82.7005 805.926 78.0902 801.195 73.4571 796.351C73.4729 797.921 73.4812 799.475 73.4812 800.99C73.4812 817.527 72.6723 837.328 71.6745 837.328C71.6745 842.816 67.2256 847.265 61.7376 847.265C56.2496 847.265 51.8007 842.816 51.8007 837.328Z" fill="black"/>
<path d="M49.994 800.99C49.994 817.527 50.8029 837.328 51.8007 837.328C51.8007 836.189 51.9924 835.095 52.3453 834.075C53.077 825.08 53.6074 810.137 53.6074 800.99C53.6074 794.027 53.1352 781.192 52.4674 771.978C51.9152 770.576 51.694 769.074 51.8038 767.592C51.8032 767.567 51.8026 767.542 51.8022 767.517C51.8021 767.509 51.8019 767.501 51.8018 767.492C51.8014 767.463 51.801 767.433 51.8009 767.403C51.8007 767.382 51.8007 767.361 51.8007 767.34C51.8007 767.265 51.8015 767.189 51.8032 767.114L51.8007 767.114C50.8028 767.114 49.994 785.964 49.994 800.99Z" fill="black"/>
<path d="M71.6745 837.328C72.6723 837.328 73.4812 817.527 73.4812 800.99C73.4812 799.475 73.4729 797.921 73.4571 796.351C72.3023 795.144 71.1461 793.93 70.0062 792.726C69.917 795.88 69.8678 798.741 69.8678 800.99C69.8678 810.137 70.3982 825.08 71.1298 834.075C71.4828 835.095 71.6745 836.189 71.6745 837.328Z" fill="black"/>
<path d="M115.217 835.117C109.374 828.239 95.1689 813.284 88.7013 806.816C86.0668 804.182 79.8203 798.126 73.3952 792.024C73.4219 793.467 73.4427 794.916 73.4571 796.351C78.0902 801.195 82.7005 805.926 86.1463 809.371C96.1077 819.333 111.072 833.467 115.723 836.999C115.621 836.698 115.522 836.197 115.426 835.523C115.353 835.389 115.284 835.254 115.217 835.117Z" fill="black"/>
<path d="M70.0062 792.726C71.1461 793.93 72.3023 795.144 73.4571 796.351C73.4427 794.916 73.4219 793.467 73.3952 792.024C72.3056 790.989 71.2109 789.953 70.1278 788.931C70.0816 790.228 70.0409 791.499 70.0062 792.726Z" fill="black"/>
<path d="M102.754 792.763C93.7052 783.714 75.7946 766.634 70.2437 762.2C70.7323 763.007 71.1093 763.889 71.3534 764.825C71.9744 765.536 72.6887 766.338 73.4774 767.212C81.1017 775.659 95.6811 790.8 100.199 795.318C103.433 798.552 108.788 803.719 114.194 808.809C114.174 807.351 114.159 805.891 114.15 804.443C110.263 800.375 106.252 796.261 102.754 792.763Z" fill="black"/>
<path d="M115.945 767.114C114.947 767.114 114.139 785.964 114.139 800.99C114.139 802.128 114.142 803.281 114.15 804.443C115.341 805.689 116.521 806.932 117.67 808.151C117.723 805.55 117.752 803.114 117.752 800.99C117.752 793.688 117.233 779.929 116.513 770.659C116.145 769.621 115.945 768.504 115.945 767.34C115.945 767.265 115.946 767.189 115.948 767.114L115.945 767.114Z" fill="black"/>
<path d="M137.626 800.99C137.626 785.964 136.817 767.114 135.819 767.114L135.817 767.114C135.818 767.189 135.819 767.265 135.819 767.34C135.819 768.504 135.619 769.621 135.251 770.659C134.532 779.929 134.012 793.688 134.012 800.99C134.012 810.137 134.543 825.08 135.274 834.075C135.627 835.095 135.819 836.189 135.819 837.328C136.817 837.328 137.626 817.527 137.626 800.99Z" fill="black"/>
<path d="M115.426 835.523C115.522 836.197 115.621 836.698 115.723 836.999C115.8 837.058 115.875 837.114 115.947 837.167C115.95 836.919 115.964 836.673 115.985 836.43C115.781 836.136 115.595 835.833 115.426 835.523Z" fill="black"/>
<path d="M115.723 836.999C115.796 837.215 115.87 837.328 115.945 837.328C115.945 837.274 115.946 837.221 115.947 837.167C115.875 837.114 115.8 837.058 115.723 836.999Z" fill="black"/>
<path fill-rule="evenodd" clip-rule="evenodd" d="M135.819 837.328C135.629 837.328 135.446 836.189 135.274 834.075C135.627 835.095 135.819 836.189 135.819 837.328Z" fill="black"/>
<path d="M114.15 804.443C114.159 805.891 114.174 807.351 114.194 808.809C115.326 809.875 116.46 810.937 117.578 811.977C117.614 810.675 117.645 809.394 117.67 808.151C116.521 806.932 115.341 805.689 114.15 804.443Z" fill="black"/>
</svg>
