<svg width="1024" height="1024" viewBox="0 0 1024 1024" fill="none" xmlns="http://www.w3.org/2000/svg">
<path d="M192 76.6027C188.686 76.6027 186 79.289 186 82.6027V946.603C186 949.916 188.686 952.603 192 952.603H836C839.314 952.603 842 949.916 842 946.603V274C842 272.405 841.365 270.876 840.236 269.751L648.236 78.3534C647.111 77.2323 645.588 76.6027 644 76.6027H192Z" fill="url(#paint0_linear_611_25)" stroke="url(#paint1_linear_611_25)" stroke-width="12" stroke-linejoin="round"/>
<mask id="path-2-inside-1_611_25" fill="white">
<path d="M636 267V79.6578C636 71.6496 645.674 67.6296 651.349 73.2793L839.551 260.621C845.241 266.285 841.23 276 833.202 276H645C640.029 276 636 271.971 636 267Z"/>
</mask>
<path d="M839.551 260.621L848.017 252.117L848.017 252.117L839.551 260.621ZM651.349 73.2793L659.815 64.7746L651.349 73.2793ZM624 79.6578V267H648V79.6578H624ZM645 288H833.202V264H645V288ZM848.017 252.117L659.815 64.7746L642.884 81.784L831.085 269.126L848.017 252.117ZM833.202 288C851.934 288 861.293 265.332 848.017 252.117L831.085 269.126C829.189 267.238 830.526 264 833.202 264V288ZM624 267C624 278.598 633.402 288 645 288V264C646.657 264 648 265.343 648 267H624ZM648 79.6578C648 82.3272 644.775 83.6672 642.884 81.784L659.815 64.7746C646.572 51.592 624 60.972 624 79.6578H648Z" fill="#7A7875" mask="url(#path-2-inside-1_611_25)"/>
<rect x="256" y="156" width="316" height="12" fill="#EAEAEA"/>
<rect x="256" y="226" width="316" height="12" fill="#EAEAEA"/>
<rect x="256" y="296" width="511" height="12" fill="#EAEAEA"/>
<rect x="256" y="366" width="511" height="12" fill="#EAEAEA"/>
<rect x="256" y="436" width="512" height="12" fill="#EAEAEA"/>
<rect x="256" y="506" width="511" height="12" fill="#EAEAEA"/>
<rect x="256" y="576" width="511" height="12" fill="#EAEAEA"/>
<rect x="256" y="646" width="328" height="12" fill="#EAEAEA"/>
<rect x="256" y="716" width="208" height="12" fill="#EAEAEA"/>
<rect x="256" y="786" width="200" height="12" fill="#EAEAEA"/>
<rect x="256" y="856" width="200" height="12" fill="#EAEAEA"/>
<g clip-path="url(#clip0_611_25)">
<path d="M622.904 966.318C618.21 966.318 613.583 967.19 609.023 968.934C604.464 970.677 599.904 972.555 595.344 974.566C590.918 976.578 586.425 978.456 581.865 980.199C577.305 981.943 572.678 982.814 567.984 982.814C563.961 982.814 560.273 982.01 556.92 980.4C553.567 978.657 550.549 976.243 547.867 973.158C546.124 971.146 544.045 968.464 541.631 965.111C539.351 961.758 536.937 958.07 534.389 954.047C531.84 950.023 529.292 945.799 526.744 941.373C524.196 936.813 521.916 932.454 519.904 928.297C518.027 924.005 516.484 919.982 515.277 916.227C514.07 912.471 513.467 909.32 513.467 906.771C513.467 901.943 514.674 897.652 517.088 893.896C519.502 890.007 522.452 886.52 525.939 883.436C529.561 880.217 533.45 877.199 537.607 874.383C541.899 871.566 545.788 868.616 549.275 865.531C552.896 862.312 555.914 858.96 558.328 855.473C560.742 851.852 561.949 847.694 561.949 843C561.949 838.44 560.742 834.35 558.328 830.729C555.914 827.107 552.896 823.755 549.275 820.67C545.654 817.451 541.765 814.367 537.607 811.416C533.45 808.465 529.561 805.381 525.939 802.162C522.318 798.809 519.301 795.255 516.887 791.5C514.473 787.745 513.266 783.453 513.266 778.625C513.266 776.211 513.869 773.126 515.076 769.371C516.417 765.616 518.094 761.592 520.105 757.301C522.117 753.009 524.397 748.65 526.945 744.225C529.628 739.665 532.243 735.373 534.791 731.35C537.473 727.192 540.021 723.437 542.436 720.084C544.85 716.731 546.928 714.116 548.672 712.238C551.354 709.288 554.372 707.008 557.725 705.398C561.212 703.789 564.9 702.984 568.789 702.984C573.483 702.984 578.043 703.856 582.469 705.6C586.895 707.343 591.32 709.288 595.746 711.434C600.172 713.445 604.598 715.323 609.023 717.066C613.583 718.81 618.21 719.682 622.904 719.682C628.939 719.682 634.103 717.871 638.395 714.25C642.82 710.495 645.57 705.667 646.643 699.766C647.85 693.194 649.057 686.622 650.264 680.051C651.471 673.479 652.678 666.908 653.885 660.336C654.958 654.703 657.372 650.076 661.127 646.455C665.016 642.834 669.777 640.487 675.41 639.414C680.775 638.475 686.206 637.872 691.705 637.604C697.204 637.201 702.635 637 708 637C713.633 637 719.266 637.201 724.898 637.604C730.531 638.006 736.097 638.743 741.596 639.816C747.229 640.889 751.855 643.236 755.477 646.857C759.098 650.479 761.445 655.105 762.518 660.738C763.725 667.31 764.865 673.814 765.938 680.252C767.01 686.689 768.15 693.194 769.357 699.766C770.43 705.533 773.18 710.294 777.605 714.049C782.031 717.804 787.195 719.682 793.096 719.682C797.79 719.682 802.417 718.81 806.977 717.066C811.536 715.323 816.029 713.445 820.455 711.434C825.015 709.422 829.575 707.544 834.135 705.801C838.695 704.057 843.322 703.186 848.016 703.186C852.173 703.186 855.861 704.057 859.08 705.801C862.433 707.41 865.451 709.757 868.133 712.842C869.876 714.854 871.888 717.536 874.168 720.889C876.582 724.242 879.063 727.93 881.611 731.953C884.16 735.977 886.708 740.268 889.256 744.828C891.804 749.254 894.017 753.613 895.895 757.904C897.906 762.062 899.516 766.018 900.723 769.773C901.93 773.529 902.533 776.68 902.533 779.229C902.533 784.191 901.326 788.549 898.912 792.305C896.498 796.06 893.48 799.547 889.859 802.766C886.372 805.85 882.483 808.801 878.191 811.617C874.034 814.434 870.145 817.451 866.523 820.67C863.036 823.755 860.086 827.107 857.672 830.729C855.258 834.215 854.051 838.306 854.051 843C854.051 847.56 855.258 851.65 857.672 855.271C860.086 858.893 863.104 862.312 866.725 865.531C870.346 868.616 874.235 871.633 878.393 874.584C882.55 877.535 886.439 880.686 890.061 884.039C893.682 887.258 896.699 890.745 899.113 894.5C901.527 898.255 902.734 902.547 902.734 907.375C902.734 910.057 902.064 913.276 900.723 917.031C899.516 920.652 897.906 924.609 895.895 928.9C893.883 933.192 891.536 937.551 888.854 941.977C886.305 946.402 883.69 950.627 881.008 954.65C878.46 958.674 875.911 962.362 873.363 965.715C870.949 969.068 868.87 971.75 867.127 973.762C864.445 976.712 861.427 978.992 858.074 980.602C854.855 982.211 851.301 983.016 847.412 983.016C842.986 983.016 838.426 982.144 833.732 980.4C829.173 978.657 824.613 976.779 820.053 974.768C815.493 972.622 810.933 970.677 806.373 968.934C801.813 967.19 797.387 966.318 793.096 966.318C787.195 966.318 782.635 967.525 779.416 969.939C776.197 972.354 773.716 975.505 771.973 979.395C770.229 983.15 768.955 987.374 768.15 992.068C767.48 996.628 766.742 1001.05 765.938 1005.35C765.267 1008.83 764.596 1012.25 763.926 1015.61C763.389 1018.82 762.786 1022.18 762.115 1025.66C761.042 1031.43 758.628 1036.12 754.873 1039.75C751.118 1043.23 746.357 1045.51 740.59 1046.59C735.225 1047.52 729.794 1048.2 724.295 1048.6C718.93 1048.87 713.499 1049 708 1049C702.367 1049 696.734 1048.8 691.102 1048.4C685.469 1047.99 679.903 1047.26 674.404 1046.18C668.771 1045.11 664.145 1042.76 660.523 1039.14C656.902 1035.39 654.555 1030.69 653.482 1025.06C652.275 1018.62 651.135 1012.19 650.062 1005.75C648.99 999.176 647.85 992.672 646.643 986.234C645.57 980.467 642.82 975.706 638.395 971.951C633.969 968.196 628.805 966.318 622.904 966.318ZM736.768 1021.24C737.304 1018.29 737.908 1014.67 738.578 1010.38C739.249 1005.95 739.986 1001.46 740.791 996.896C741.596 992.337 742.467 987.978 743.406 983.82C744.345 979.663 745.284 976.31 746.223 973.762C749.978 963.703 756.013 955.656 764.328 949.621C772.643 943.586 782.232 940.568 793.096 940.568C796.717 940.568 800.874 941.239 805.568 942.58C810.396 943.787 815.292 945.262 820.254 947.006C825.35 948.749 830.245 950.56 834.939 952.438C839.633 954.315 843.791 955.924 847.412 957.266C853.715 949.755 859.281 941.842 864.109 933.527C868.938 925.078 873.162 916.361 876.783 907.375V907.174L846.004 881.021C840.371 876.327 836.012 870.695 832.928 864.123C829.843 857.417 828.301 850.376 828.301 843C828.301 835.624 829.843 828.583 832.928 821.877C836.146 815.171 840.572 809.471 846.205 804.777L876.582 779.43V779.229C876.582 779.094 876.314 778.357 875.777 777.016C875.241 775.54 874.906 774.736 874.771 774.602C871.553 766.286 867.663 758.374 863.104 750.863C858.678 743.219 853.648 735.91 848.016 728.936H847.814L809.994 742.615C804.63 744.493 799.131 745.432 793.498 745.432C784.378 745.432 775.996 743.219 768.352 738.793C761.914 735.172 756.549 730.344 752.258 724.309C748.1 718.273 745.351 711.635 744.01 704.393L737.17 665.164C727.514 663.555 717.79 662.75 708 662.75C703.172 662.75 698.344 662.951 693.516 663.354C688.688 663.622 683.926 664.091 679.232 664.762C678.025 671.467 676.885 678.106 675.812 684.678C674.74 691.249 673.465 697.821 671.99 704.393C670.783 710.294 668.704 715.792 665.754 720.889C662.803 725.851 659.182 730.143 654.891 733.764C650.599 737.385 645.771 740.268 640.406 742.414C635.042 744.426 629.275 745.432 623.105 745.432C617.07 745.432 611.37 744.426 606.006 742.414H605.805L568.789 728.734H568.588C562.419 736.379 556.853 744.359 551.891 752.674C546.928 760.855 542.704 769.505 539.217 778.625V778.826L569.996 804.979C575.629 809.673 579.988 815.372 583.072 822.078C586.157 828.65 587.699 835.624 587.699 843C587.699 850.376 586.09 857.417 582.871 864.123C579.786 870.829 575.428 876.529 569.795 881.223L539.418 906.57V906.771C539.418 906.906 539.686 907.71 540.223 909.186C540.759 910.527 541.094 911.264 541.229 911.398C544.447 919.714 548.27 927.693 552.695 935.338C557.255 942.848 562.352 950.09 567.984 957.064H568.186L606.006 943.385C611.37 941.507 616.869 940.568 622.502 940.568C631.622 940.568 640.004 942.781 647.648 947.207C654.086 950.828 659.383 955.656 663.541 961.691C667.833 967.727 670.649 974.365 671.99 981.607L678.83 1020.84C688.486 1022.45 698.21 1023.25 708 1023.25C712.828 1023.25 717.656 1023.12 722.484 1022.85C727.312 1022.45 732.074 1021.91 736.768 1021.24ZM630.75 843C630.75 832.271 632.762 822.212 636.785 812.824C640.809 803.436 646.307 795.255 653.281 788.281C660.255 781.307 668.436 775.809 677.824 771.785C687.212 767.762 697.271 765.75 708 765.75C718.729 765.75 728.788 767.762 738.176 771.785C747.564 775.809 755.745 781.307 762.719 788.281C769.693 795.255 775.191 803.436 779.215 812.824C783.238 822.212 785.25 832.271 785.25 843C785.25 853.729 783.238 863.788 779.215 873.176C775.191 882.564 769.693 890.745 762.719 897.719C755.745 904.693 747.564 910.191 738.176 914.215C728.788 918.238 718.729 920.25 708 920.25C697.271 920.25 687.212 918.238 677.824 914.215C668.436 910.191 660.255 904.693 653.281 897.719C646.307 890.745 640.809 882.564 636.785 873.176C632.762 863.788 630.75 853.729 630.75 843ZM759.5 843C759.5 835.892 758.159 829.253 755.477 823.084C752.794 816.781 749.106 811.282 744.412 806.588C739.718 801.894 734.219 798.206 727.916 795.523C721.747 792.841 715.108 791.5 708 791.5C700.892 791.5 694.186 792.841 687.883 795.523C681.714 798.206 676.282 801.894 671.588 806.588C666.894 811.282 663.206 816.781 660.523 823.084C657.841 829.253 656.5 835.892 656.5 843C656.5 850.108 657.841 856.814 660.523 863.117C663.206 869.286 666.894 874.718 671.588 879.412C676.282 884.106 681.714 887.794 687.883 890.477C694.186 893.159 700.892 894.5 708 894.5C715.108 894.5 721.747 893.159 727.916 890.477C734.219 887.794 739.718 884.106 744.412 879.412C749.106 874.718 752.794 869.286 755.477 863.117C758.159 856.814 759.5 850.108 759.5 843Z" fill="#E2E2E2"/>
<path d="M609.023 968.934L611.595 975.659L609.023 968.934ZM595.344 974.566L592.438 967.979L592.401 967.995L592.364 968.012L595.344 974.566ZM556.92 980.4L553.598 986.788L553.7 986.842L553.804 986.891L556.92 980.4ZM547.867 973.158L542.426 977.874L542.434 977.883L547.867 973.158ZM541.631 965.111L535.677 969.16L535.731 969.24L535.788 969.318L541.631 965.111ZM526.744 941.373L520.459 944.885L520.481 944.926L520.504 944.966L526.744 941.373ZM519.904 928.297L513.308 931.183L513.363 931.309L513.423 931.433L519.904 928.297ZM517.088 893.896L523.144 897.79L523.175 897.742L523.205 897.693L517.088 893.896ZM525.939 883.436L530.71 888.828L530.716 888.823L530.723 888.817L525.939 883.436ZM537.607 874.383L533.657 868.363L533.613 868.392L533.569 868.422L537.607 874.383ZM549.275 865.531L554.046 870.924L554.052 870.918L554.059 870.913L549.275 865.531ZM558.328 855.473L564.248 859.571L564.284 859.519L564.319 859.466L558.328 855.473ZM549.275 820.67L544.492 826.051L544.549 826.102L544.606 826.151L549.275 820.67ZM525.939 802.162L521.048 807.445L521.101 807.495L521.156 807.543L525.939 802.162ZM516.887 791.5L510.83 795.393L516.887 791.5ZM515.076 769.371L508.296 766.949L508.257 767.058L508.222 767.168L515.076 769.371ZM526.945 744.225L520.739 740.574L520.722 740.603L520.706 740.632L526.945 744.225ZM534.791 731.35L528.741 727.446L528.724 727.472L528.708 727.497L534.791 731.35ZM548.672 712.238L553.948 717.138L553.974 717.11L553.999 717.082L548.672 712.238ZM557.725 705.398L554.707 698.861L554.658 698.884L554.609 698.907L557.725 705.398ZM595.746 711.434L592.605 717.912L592.685 717.951L592.767 717.988L595.746 711.434ZM609.023 717.066L606.384 723.765L606.418 723.779L606.452 723.792L609.023 717.066ZM638.395 714.25L643.038 719.753L643.045 719.746L643.053 719.74L638.395 714.25ZM646.643 699.766L639.561 698.465L639.559 698.478L646.643 699.766ZM653.885 660.336L646.812 658.989L646.808 659.012L646.803 659.035L653.885 660.336ZM661.127 646.455L656.221 641.185L656.175 641.228L656.129 641.272L661.127 646.455ZM675.41 639.414L674.169 632.322L674.116 632.331L674.063 632.341L675.41 639.414ZM691.705 637.604L692.056 644.795L692.143 644.791L692.231 644.784L691.705 637.604ZM741.596 639.816L740.217 646.883L740.233 646.886L740.248 646.889L741.596 639.816ZM762.518 660.738L769.599 659.438L769.595 659.414L769.59 659.391L762.518 660.738ZM769.357 699.766L762.276 701.066L762.277 701.074L762.279 701.083L769.357 699.766ZM820.455 711.434L817.549 704.846L817.512 704.862L817.476 704.879L820.455 711.434ZM859.08 705.801L855.651 712.132L855.806 712.216L855.964 712.292L859.08 705.801ZM868.133 712.842L873.574 708.126L873.566 708.117L868.133 712.842ZM874.168 720.889L868.214 724.937L868.268 725.017L868.325 725.096L874.168 720.889ZM889.256 744.828L882.971 748.34L882.993 748.381L883.016 748.421L889.256 744.828ZM895.895 757.904L889.298 760.79L889.353 760.916L889.413 761.04L895.895 757.904ZM898.912 792.305L904.969 796.198L898.912 792.305ZM889.859 802.766L894.63 808.158L894.636 808.153L894.643 808.147L889.859 802.766ZM878.191 811.617L874.241 805.598L874.197 805.627L874.153 805.656L878.191 811.617ZM866.523 820.67L871.294 826.063L871.3 826.057L871.307 826.051L866.523 820.67ZM857.672 830.729L863.592 834.827L863.628 834.775L863.663 834.722L857.672 830.729ZM866.725 865.531L861.941 870.913L861.998 870.963L862.056 871.012L866.725 865.531ZM890.061 884.039L885.169 889.322L885.222 889.372L885.277 889.42L890.061 884.039ZM900.723 917.031L893.942 914.61L893.916 914.682L893.892 914.754L900.723 917.031ZM888.854 941.977L882.696 938.245L882.654 938.314L882.614 938.384L888.854 941.977ZM881.008 954.65L875.017 950.657L874.97 950.727L874.925 950.798L881.008 954.65ZM873.363 965.715L867.631 961.358L867.575 961.432L867.52 961.508L873.363 965.715ZM867.127 973.762L872.455 978.605L872.512 978.542L872.568 978.477L867.127 973.762ZM858.074 980.602L854.959 974.111L854.906 974.136L854.854 974.162L858.074 980.602ZM833.732 980.4L831.161 987.126L831.193 987.138L831.225 987.15L833.732 980.4ZM820.053 974.768L816.987 981.282L817.066 981.32L817.147 981.355L820.053 974.768ZM771.973 979.395L778.503 982.427L778.523 982.383L778.543 982.34L771.973 979.395ZM768.15 992.068L761.054 990.852L761.039 990.936L761.027 991.021L768.15 992.068ZM765.938 1005.35L773.008 1006.71L773.011 1006.69L773.014 1006.67L765.938 1005.35ZM763.926 1015.61L756.866 1014.19L756.843 1014.31L756.824 1014.42L763.926 1015.61ZM762.115 1025.66L755.045 1024.3L755.041 1024.33L755.037 1024.35L762.115 1025.66ZM754.873 1039.75L759.772 1045.02L759.822 1044.98L759.871 1044.93L754.873 1039.75ZM740.59 1046.59L741.831 1053.68L741.869 1053.67L741.907 1053.66L740.59 1046.59ZM724.295 1048.6L724.654 1055.79L724.737 1055.78L724.82 1055.78L724.295 1048.6ZM674.404 1046.18L675.783 1039.12L675.767 1039.11L675.752 1039.11L674.404 1046.18ZM660.523 1039.14L655.341 1044.14L655.386 1044.19L655.432 1044.23L660.523 1039.14ZM653.482 1025.06L646.406 1026.39L646.408 1026.4L646.41 1026.41L653.482 1025.06ZM650.062 1005.75L642.957 1006.91L642.959 1006.92L642.96 1006.93L650.062 1005.75ZM646.643 986.234L639.564 987.551L639.566 987.561L646.643 986.234ZM736.768 1021.24L737.786 1028.37L742.923 1027.63L743.851 1022.53L736.768 1021.24ZM738.578 1010.38L745.692 1011.49L745.694 1011.47L745.697 1011.45L738.578 1010.38ZM746.223 973.762L739.477 971.243L739.472 971.258L739.467 971.273L746.223 973.762ZM764.328 949.621L768.557 955.448L764.328 949.621ZM805.568 942.58L803.59 949.503L803.706 949.536L803.822 949.565L805.568 942.58ZM820.254 947.006L817.867 953.799L817.895 953.809L817.923 953.818L820.254 947.006ZM847.412 957.266L844.911 964.017L849.667 965.779L852.927 961.894L847.412 957.266ZM864.109 933.527L870.336 937.143L870.348 937.121L870.361 937.1L864.109 933.527ZM876.783 907.375L883.461 910.066L883.983 908.771V907.375H876.783ZM876.783 907.174H883.983V903.843L881.445 901.687L876.783 907.174ZM846.004 881.021L850.666 875.535L850.64 875.512L850.613 875.49L846.004 881.021ZM832.928 864.123L826.387 867.132L826.398 867.157L826.41 867.182L832.928 864.123ZM832.928 821.877L826.437 818.761L826.411 818.814L826.387 818.868L832.928 821.877ZM846.205 804.777L850.814 810.309L850.818 810.306L846.205 804.777ZM876.582 779.43L881.195 784.958L883.782 782.799V779.43H876.582ZM875.777 777.016L869.011 779.476L869.05 779.584L869.092 779.69L875.777 777.016ZM874.771 774.602L868.057 777.201L868.606 778.618L869.68 779.693L874.771 774.602ZM863.104 750.863L856.872 754.471L856.91 754.536L856.949 754.6L863.104 750.863ZM848.016 728.936L853.617 724.412L851.455 721.736H848.016V728.936ZM847.814 728.936V721.736H846.552L845.365 722.165L847.814 728.936ZM809.994 742.615L812.373 749.411L812.408 749.399L812.443 749.386L809.994 742.615ZM768.352 738.793L771.959 732.562L771.92 732.54L771.881 732.518L768.352 738.793ZM752.258 724.309L746.329 728.393L746.359 728.437L746.39 728.481L752.258 724.309ZM744.01 704.393L736.917 705.629L736.923 705.666L736.93 705.704L744.01 704.393ZM737.17 665.164L744.263 663.927L743.386 658.901L738.354 658.062L737.17 665.164ZM693.516 663.354L693.915 670.542L694.014 670.537L694.114 670.529L693.516 663.354ZM679.232 664.762L678.214 657.634L673.067 658.369L672.146 663.486L679.232 664.762ZM671.99 704.393L664.965 702.816L664.95 702.882L664.936 702.95L671.99 704.393ZM665.754 720.889L671.943 724.568L671.964 724.532L671.985 724.496L665.754 720.889ZM640.406 742.414L642.934 749.156L643.008 749.128L643.08 749.099L640.406 742.414ZM606.006 742.414L608.534 735.672L607.311 735.214H606.006V742.414ZM605.805 742.414L603.309 749.168L604.517 749.614H605.805V742.414ZM568.789 728.734L571.285 721.981L570.077 721.534H568.789V728.734ZM568.588 728.734V721.534H565.146L562.985 724.213L568.588 728.734ZM551.891 752.674L558.047 756.408L558.06 756.386L558.073 756.364L551.891 752.674ZM539.217 778.625L532.492 776.054L532.017 777.295V778.625H539.217ZM539.217 778.826H532.017V782.157L534.555 784.313L539.217 778.826ZM569.996 804.979L565.334 810.465L565.36 810.488L565.387 810.51L569.996 804.979ZM583.072 822.078L576.531 825.087L576.543 825.112L576.555 825.137L583.072 822.078ZM582.871 864.123L576.38 861.007L576.355 861.061L576.33 861.114L582.871 864.123ZM569.795 881.223L565.186 875.691L565.182 875.694L569.795 881.223ZM539.418 906.57L534.805 901.042L532.218 903.201V906.57H539.418ZM540.223 909.186L533.456 911.646L533.495 911.753L533.538 911.86L540.223 909.186ZM541.229 911.398L547.943 908.799L547.394 907.382L546.32 906.307L541.229 911.398ZM552.695 935.338L546.464 938.945L546.502 939.01L546.541 939.075L552.695 935.338ZM567.984 957.064L562.383 961.588L564.545 964.264H567.984V957.064ZM568.186 957.064V964.264H569.448L570.635 963.835L568.186 957.064ZM606.006 943.385L603.627 936.589L603.592 936.601L603.557 936.614L606.006 943.385ZM647.648 947.207L644.041 953.438L644.08 953.46L644.119 953.482L647.648 947.207ZM663.541 961.691L657.612 965.776L657.642 965.82L657.673 965.864L663.541 961.691ZM671.99 981.607L679.083 980.371L679.077 980.334L679.07 980.296L671.99 981.607ZM678.83 1020.84L671.737 1022.07L672.614 1027.1L677.646 1027.94L678.83 1020.84ZM722.484 1022.85L722.884 1030.04L722.983 1030.03L723.082 1030.02L722.484 1022.85ZM653.281 788.281L658.372 793.372L653.281 788.281ZM762.719 788.281L757.628 793.372L762.719 788.281ZM762.719 897.719L757.628 892.628L762.719 897.719ZM755.477 823.084L748.851 825.903L748.862 825.929L748.874 825.955L755.477 823.084ZM727.916 795.523L725.045 802.126L725.071 802.138L725.097 802.149L727.916 795.523ZM687.883 795.523L685.064 788.898L685.038 788.909L685.012 788.921L687.883 795.523ZM660.523 823.084L667.126 825.955L667.138 825.929L667.149 825.903L660.523 823.084ZM660.523 863.117L653.898 865.936L653.909 865.962L653.921 865.988L660.523 863.117ZM687.883 890.477L685.012 897.079L685.038 897.091L685.064 897.102L687.883 890.477ZM727.916 890.477L725.097 883.851L725.071 883.862L725.045 883.874L727.916 890.477ZM755.477 863.117L762.079 865.988L762.091 865.962L762.102 865.936L755.477 863.117ZM622.904 959.118C617.296 959.118 611.8 960.164 606.452 962.208L611.595 975.659C615.367 974.216 619.124 973.518 622.904 973.518V959.118ZM606.452 962.208C601.777 963.996 597.106 965.92 592.438 967.979L598.25 981.154C602.702 979.19 607.15 977.358 611.595 975.659L606.452 962.208ZM592.364 968.012C588.073 969.962 583.717 971.783 579.294 973.474L584.437 986.924C589.134 985.128 593.763 983.194 598.323 981.121L592.364 968.012ZM579.294 973.474C575.522 974.916 571.764 975.614 567.984 975.614V990.014C573.592 990.014 579.089 988.969 584.437 986.924L579.294 973.474ZM567.984 975.614C564.95 975.614 562.338 975.015 560.036 973.909L553.804 986.891C558.207 989.005 562.972 990.014 567.984 990.014V975.614ZM560.242 974.012C557.754 972.719 555.438 970.892 553.3 968.434L542.434 977.883C545.661 981.593 549.38 984.595 553.598 986.788L560.242 974.012ZM553.308 968.443C551.761 966.657 549.822 964.166 547.474 960.904L535.788 969.318C538.268 972.762 540.486 975.635 542.426 977.874L553.308 968.443ZM547.585 961.063C545.356 957.785 542.985 954.163 540.471 950.195L528.306 957.899C530.889 961.978 533.346 965.732 535.677 969.16L547.585 961.063ZM540.471 950.195C537.981 946.262 535.485 942.125 532.984 937.781L520.504 944.966C523.1 949.473 525.7 953.784 528.306 957.899L540.471 950.195ZM533.029 937.861C530.541 933.409 528.328 929.176 526.385 925.161L513.423 931.433C515.504 935.733 517.851 940.218 520.459 944.885L533.029 937.861ZM526.501 925.411C524.703 921.302 523.252 917.509 522.132 914.023L508.423 918.43C509.717 922.455 511.35 926.708 513.308 931.183L526.501 925.411ZM522.132 914.023C521.043 910.635 520.667 908.28 520.667 906.771H506.267C506.267 910.36 507.098 914.308 508.423 918.43L522.132 914.023ZM520.667 906.771C520.667 903.207 521.538 900.289 523.144 897.79L511.031 890.003C507.81 895.014 506.267 900.68 506.267 906.771H520.667ZM523.205 897.693C525.244 894.409 527.738 891.457 530.71 888.828L521.169 878.043C517.167 881.583 513.76 885.605 510.97 890.099L523.205 897.693ZM530.723 888.817C534.1 885.815 537.739 882.99 541.646 880.344L533.569 868.422C529.16 871.408 525.021 874.619 521.156 878.054L530.723 888.817ZM541.558 880.402C546.109 877.416 550.276 874.259 554.046 870.924L544.505 860.138C541.301 862.973 537.69 865.717 533.657 868.363L541.558 880.402ZM554.059 870.913C558.049 867.366 561.465 863.591 564.248 859.571L552.408 851.374C550.363 854.329 547.744 857.259 544.492 860.15L554.059 870.913ZM564.319 859.466C567.584 854.569 569.149 848.998 569.149 843H554.749C554.749 846.39 553.9 849.134 552.337 851.479L564.319 859.466ZM569.149 843C569.149 837.09 567.56 831.597 564.319 826.735L552.337 834.722C553.924 837.102 554.749 839.79 554.749 843H569.149ZM564.319 826.735C561.503 822.51 558.026 818.666 553.944 815.189L544.606 826.151C547.767 828.843 550.326 831.705 552.337 834.722L564.319 826.735ZM554.059 815.289C550.231 811.886 546.135 808.639 541.774 805.544L533.44 817.288C537.395 820.094 541.077 823.016 544.492 826.051L554.059 815.289ZM541.774 805.544C537.82 802.738 534.138 799.816 530.723 796.781L521.156 807.543C524.983 810.946 529.08 814.193 533.44 817.288L541.774 805.544ZM530.831 796.879C527.609 793.896 524.997 790.801 522.943 787.607L510.83 795.393C513.605 799.71 517.028 803.723 521.048 807.445L530.831 796.879ZM522.943 787.607C521.337 785.108 520.466 782.19 520.466 778.625H506.066C506.066 784.716 507.609 790.382 510.83 795.393L522.943 787.607ZM520.466 778.625C520.466 777.281 520.827 775.008 521.931 771.574L508.222 767.168C506.911 771.244 506.066 775.141 506.066 778.625H520.466ZM521.857 771.793C523.108 768.289 524.693 764.479 526.625 760.357L513.586 754.245C511.495 758.706 509.726 762.943 508.296 766.949L521.857 771.793ZM526.625 760.357C528.545 756.261 530.73 752.081 533.185 747.817L520.706 740.632C518.064 745.219 515.69 749.757 513.586 754.245L526.625 760.357ZM533.151 747.875C535.798 743.376 538.372 739.152 540.874 735.202L528.708 727.497C526.114 731.594 523.457 735.954 520.739 740.574L533.151 747.875ZM540.841 735.253C543.469 731.179 545.948 727.527 548.279 724.291L536.592 715.877C534.095 719.346 531.477 723.205 528.741 727.446L540.841 735.253ZM548.279 724.291C550.61 721.053 552.492 718.706 553.948 717.138L543.396 707.339C541.365 709.526 539.089 712.409 536.592 715.877L548.279 724.291ZM553.999 717.082C556.103 714.768 558.383 713.069 560.84 711.889L554.609 698.907C550.361 700.947 546.605 703.808 543.344 707.395L553.999 717.082ZM560.742 711.936C563.271 710.769 565.928 710.184 568.789 710.184V695.784C563.872 695.784 559.153 696.809 554.707 698.861L560.742 711.936ZM568.789 710.184C572.567 710.184 576.233 710.882 579.83 712.299L585.108 698.901C579.853 696.831 574.399 695.784 568.789 695.784V710.184ZM579.83 712.299C584.08 713.973 588.338 715.844 592.605 717.912L598.887 704.955C594.302 702.732 589.709 700.713 585.108 698.901L579.83 712.299ZM592.767 717.988C597.302 720.05 601.842 721.976 606.384 723.765L611.662 710.367C607.354 708.67 603.041 706.841 598.725 704.879L592.767 717.988ZM606.452 723.792C611.8 725.836 617.296 726.882 622.904 726.882V712.482C619.124 712.482 615.367 711.784 611.595 710.341L606.452 723.792ZM622.904 726.882C630.502 726.882 637.346 724.555 643.038 719.753L633.751 708.747C630.86 711.187 627.377 712.482 622.904 712.482V726.882ZM643.053 719.74C648.794 714.869 652.366 708.534 653.726 701.054L639.559 698.478C638.773 702.799 636.846 706.121 633.736 708.76L643.053 719.74ZM653.724 701.066C653.897 700.124 653.777 700.776 653.95 699.834C654.123 698.892 654.004 699.544 654.177 698.602C654.35 697.66 654.23 698.312 654.403 697.37C654.576 696.428 654.456 697.08 654.629 696.138C654.802 695.195 654.683 695.848 654.856 694.905C655.029 693.963 654.909 694.615 655.082 693.673C655.255 692.731 655.135 693.383 655.308 692.441C655.481 691.499 655.362 692.151 655.535 691.209C655.607 690.814 655.575 690.988 655.648 690.593C655.72 690.197 655.688 690.372 655.761 689.977C655.834 689.581 655.802 689.756 655.874 689.361C655.947 688.965 655.915 689.14 655.987 688.745C656.06 688.349 656.028 688.524 656.1 688.128C656.173 687.733 656.141 687.908 656.214 687.512C656.286 687.117 656.254 687.292 656.327 686.896C656.399 686.501 656.367 686.676 656.44 686.28C656.513 685.885 656.48 686.059 656.553 685.664C656.626 685.269 656.594 685.443 656.666 685.048C656.739 684.653 656.707 684.827 656.779 684.432C656.852 684.037 656.82 684.211 656.893 683.816C656.965 683.42 656.933 683.595 657.006 683.2C657.078 682.804 657.046 682.979 657.119 682.584C657.192 682.188 657.159 682.363 657.232 681.968C657.305 681.572 657.273 681.747 657.345 681.351L643.182 678.75C643.009 679.692 643.129 679.04 642.956 679.982C642.783 680.924 642.903 680.272 642.729 681.214C642.556 682.157 642.676 681.504 642.503 682.447C642.33 683.389 642.45 682.737 642.277 683.679C642.104 684.621 642.224 683.969 642.051 684.911C641.877 685.853 641.997 685.201 641.824 686.143C641.651 687.085 641.771 686.433 641.598 687.375C641.425 688.317 641.545 687.665 641.372 688.608C641.299 689.003 641.331 688.828 641.258 689.224C641.186 689.619 641.218 689.444 641.145 689.84C641.073 690.235 641.105 690.06 641.032 690.456C640.959 690.851 640.992 690.676 640.919 691.072C640.846 691.467 640.878 691.293 640.806 691.688C640.733 692.083 640.765 691.909 640.693 692.304C640.62 692.699 640.652 692.525 640.579 692.92C640.507 693.316 640.539 693.141 640.466 693.536C640.394 693.932 640.426 693.757 640.353 694.152C640.281 694.548 640.313 694.373 640.24 694.768C640.167 695.164 640.199 694.989 640.127 695.384C640.054 695.78 640.086 695.605 640.014 696.001C639.941 696.396 639.973 696.221 639.901 696.617C639.828 697.012 639.86 696.837 639.787 697.233C639.715 697.628 639.747 697.453 639.674 697.849C639.602 698.244 639.634 698.07 639.561 698.465L653.724 701.066ZM657.345 681.351C657.518 680.409 657.398 681.061 657.572 680.119C657.745 679.177 657.625 679.829 657.798 678.887C657.971 677.945 657.851 678.597 658.024 677.655C658.197 676.713 658.077 677.365 658.25 676.423C658.424 675.481 658.304 676.133 658.477 675.191C658.65 674.248 658.53 674.901 658.703 673.958C658.876 673.016 658.756 673.668 658.929 672.726C659.102 671.784 658.983 672.436 659.156 671.494C659.228 671.099 659.196 671.273 659.269 670.878C659.342 670.483 659.309 670.657 659.382 670.262C659.455 669.867 659.423 670.041 659.495 669.646C659.568 669.25 659.536 669.425 659.608 669.03C659.681 668.634 659.649 668.809 659.722 668.414C659.794 668.018 659.762 668.193 659.835 667.798C659.907 667.402 659.875 667.577 659.948 667.181C660.02 666.786 659.988 666.961 660.061 666.565C660.134 666.17 660.102 666.345 660.174 665.949C660.247 665.554 660.215 665.729 660.287 665.333C660.36 664.938 660.328 665.112 660.401 664.717C660.473 664.322 660.441 664.496 660.514 664.101C660.586 663.706 660.554 663.88 660.627 663.485C660.699 663.09 660.667 663.264 660.74 662.869C660.813 662.473 660.781 662.648 660.853 662.253C660.926 661.857 660.894 662.032 660.966 661.637L646.803 659.035C646.63 659.977 646.75 659.325 646.577 660.267C646.404 661.21 646.524 660.557 646.351 661.5C646.178 662.442 646.297 661.79 646.124 662.732C645.951 663.674 646.071 663.022 645.898 663.964C645.725 664.906 645.845 664.254 645.672 665.196C645.499 666.138 645.618 665.486 645.445 666.428C645.272 667.37 645.392 666.718 645.219 667.66C645.046 668.603 645.166 667.951 644.993 668.893C644.92 669.288 644.952 669.113 644.88 669.509C644.807 669.904 644.839 669.729 644.766 670.125C644.694 670.52 644.726 670.346 644.653 670.741C644.581 671.136 644.613 670.962 644.54 671.357C644.467 671.752 644.5 671.578 644.427 671.973C644.354 672.368 644.386 672.194 644.314 672.589C644.241 672.985 644.273 672.81 644.201 673.205C644.128 673.601 644.16 673.426 644.087 673.821C644.015 674.217 644.047 674.042 643.974 674.437C643.902 674.833 643.934 674.658 643.861 675.054C643.788 675.449 643.821 675.274 643.748 675.67C643.675 676.065 643.707 675.89 643.635 676.286C643.562 676.681 643.594 676.506 643.522 676.902C643.449 677.297 643.481 677.123 643.408 677.518C643.336 677.913 643.368 677.739 643.295 678.134C643.223 678.529 643.255 678.355 643.182 678.75L657.345 681.351ZM660.958 661.683C661.781 657.361 663.547 654.123 666.125 651.638L656.129 641.272C651.196 646.029 648.134 652.046 646.812 658.989L660.958 661.683ZM666.033 651.725C668.851 649.101 672.347 647.327 676.757 646.487L674.063 632.341C667.207 633.647 661.181 636.567 656.221 641.185L666.033 651.725ZM676.651 646.506C681.718 645.62 686.852 645.049 692.056 644.795L691.354 630.412C685.56 630.695 679.831 631.331 674.169 632.322L676.651 646.506ZM692.231 644.784C697.559 644.394 702.816 644.2 708 644.2V629.8C702.455 629.8 696.848 630.008 691.18 630.423L692.231 644.784ZM708 644.2C713.461 644.2 718.923 644.395 724.385 644.785L725.411 630.422C719.608 630.007 713.804 629.8 708 629.8V644.2ZM724.385 644.785C729.73 645.167 735.006 645.866 740.217 646.883L742.975 632.75C737.188 631.621 731.333 630.845 725.411 630.422L724.385 644.785ZM740.248 646.889C744.639 647.726 747.905 649.468 750.385 651.949L760.568 641.766C755.806 637.004 749.818 634.053 742.943 632.744L740.248 646.889ZM750.385 651.949C752.865 654.429 754.608 657.695 755.445 662.085L769.59 659.391C768.281 652.516 765.33 646.528 760.568 641.766L750.385 651.949ZM755.436 662.039C756.636 668.573 757.769 675.038 758.835 681.436L773.04 679.068C771.96 672.591 770.813 666.047 769.599 659.438L755.436 662.039ZM758.835 681.436C759.915 687.913 761.062 694.457 762.276 701.066L776.439 698.465C775.239 691.931 774.106 685.466 773.04 679.068L758.835 681.436ZM762.279 701.083C763.651 708.459 767.244 714.7 772.947 719.539L782.264 708.559C779.115 705.887 777.21 702.607 776.436 698.449L762.279 701.083ZM772.947 719.539C778.698 724.418 785.52 726.882 793.096 726.882V712.482C788.87 712.482 785.365 711.19 782.264 708.559L772.947 719.539ZM793.096 726.882C798.704 726.882 804.2 725.836 809.548 723.792L804.405 710.341C800.633 711.784 796.876 712.482 793.096 712.482V726.882ZM809.548 723.792C814.245 721.996 818.874 720.061 823.434 717.988L817.476 704.879C813.185 706.829 808.828 708.65 804.405 710.341L809.548 723.792ZM823.361 718.021C827.813 716.057 832.261 714.225 836.706 712.526L831.563 699.076C826.888 700.863 822.217 702.787 817.549 704.846L823.361 718.021ZM836.706 712.526C840.478 711.084 844.236 710.386 848.016 710.386V695.986C842.408 695.986 836.911 697.031 831.563 699.076L836.706 712.526ZM848.016 710.386C851.14 710.386 853.621 711.032 855.651 712.132L862.509 699.47C858.102 697.082 853.206 695.986 848.016 695.986V710.386ZM855.964 712.292C858.348 713.436 860.597 715.148 862.7 717.566L873.566 708.117C870.304 704.366 866.518 701.384 862.196 699.31L855.964 712.292ZM862.692 717.557C864.183 719.278 866.02 721.71 868.214 724.937L880.122 716.84C877.756 713.362 875.57 710.429 873.574 708.126L862.692 717.557ZM868.325 725.096C870.644 728.317 873.046 731.885 875.529 735.805L887.694 728.101C885.081 723.974 882.52 720.166 880.011 716.682L868.325 725.096ZM875.529 735.805C878 739.707 880.481 743.885 882.971 748.34L895.541 741.316C892.935 736.652 890.319 732.246 887.694 728.101L875.529 735.805ZM883.016 748.421C885.444 752.638 887.535 756.761 889.298 760.79L902.491 755.018C900.498 750.464 898.164 745.87 895.496 741.236L883.016 748.421ZM889.413 761.04C891.303 764.946 892.779 768.589 893.868 771.977L907.577 767.57C906.252 763.447 904.509 759.178 902.376 754.768L889.413 761.04ZM893.868 771.977C894.957 775.365 895.333 777.72 895.333 779.229H909.733C909.733 775.64 908.902 771.692 907.577 767.57L893.868 771.977ZM895.333 779.229C895.333 782.969 894.441 785.944 892.856 788.411L904.969 796.198C908.211 791.154 909.733 785.412 909.733 779.229H895.333ZM892.856 788.411C890.825 791.57 888.248 794.564 885.076 797.384L894.643 808.147C898.713 804.529 902.171 800.55 904.969 796.198L892.856 788.411ZM885.089 797.373C881.885 800.207 878.274 802.951 874.241 805.598L882.142 817.637C886.693 814.65 890.86 811.493 894.63 808.158L885.089 797.373ZM874.153 805.656C869.744 808.643 865.605 811.853 861.74 815.289L871.307 826.051C874.684 823.049 878.323 820.224 882.23 817.578L874.153 805.656ZM861.753 815.277C857.833 818.745 854.463 822.562 851.681 826.735L863.663 834.722C865.709 831.653 868.24 828.764 871.294 826.063L861.753 815.277ZM851.752 826.63C848.416 831.449 846.851 837.005 846.851 843H861.251C861.251 839.607 862.1 836.982 863.592 834.827L851.752 826.63ZM846.851 843C846.851 848.91 848.44 854.403 851.681 859.265L863.663 851.278C862.076 848.898 861.251 846.21 861.251 843H846.851ZM851.681 859.265C854.473 863.453 857.911 867.33 861.941 870.913L871.508 860.15C868.296 857.295 865.699 854.332 863.663 851.278L851.681 859.265ZM862.056 871.012C865.849 874.244 869.907 877.391 874.226 880.456L882.56 868.712C878.563 865.876 874.842 862.988 871.394 860.05L862.056 871.012ZM874.226 880.456C878.137 883.232 881.784 886.188 885.169 889.322L894.952 878.756C891.095 875.185 886.963 871.837 882.56 868.712L874.226 880.456ZM885.277 889.42C888.45 892.24 891.026 895.235 893.057 898.393L905.17 890.607C902.372 886.255 898.914 882.275 894.844 878.658L885.277 889.42ZM893.057 898.393C894.663 900.892 895.534 903.81 895.534 907.375H909.934C909.934 901.284 908.391 895.618 905.17 890.607L893.057 898.393ZM895.534 907.375C895.534 908.934 895.128 911.29 893.942 914.61L907.503 919.453C909 915.262 909.934 911.18 909.934 907.375H895.534ZM893.892 914.754C892.792 918.056 891.295 921.748 889.375 925.844L902.414 931.956C904.517 927.469 906.24 923.249 907.553 919.308L893.892 914.754ZM889.375 925.844C887.481 929.885 885.258 934.018 882.696 938.245L895.011 945.708C897.814 941.084 900.284 936.499 902.414 931.956L889.375 925.844ZM882.614 938.384C880.14 942.681 877.607 946.771 875.017 950.657L886.999 958.644C889.773 954.483 892.471 950.124 895.093 945.569L882.614 938.384ZM874.925 950.798C872.473 954.67 870.04 958.188 867.631 961.358L879.096 970.071C881.782 966.536 884.447 962.677 887.091 958.503L874.925 950.798ZM867.52 961.508C865.172 964.769 863.233 967.261 861.686 969.046L872.568 978.477C874.508 976.239 876.727 973.366 879.206 969.922L867.52 961.508ZM861.799 968.918C859.696 971.232 857.416 972.931 854.959 974.111L861.19 987.093C865.438 985.053 869.193 982.192 872.455 978.605L861.799 968.918ZM854.854 974.162C852.715 975.232 850.276 975.816 847.412 975.816V990.216C852.327 990.216 856.996 989.19 861.294 987.041L854.854 974.162ZM847.412 975.816C843.947 975.816 840.236 975.135 836.239 973.651L831.225 987.15C836.617 989.153 842.026 990.216 847.412 990.216V975.816ZM836.304 973.675C831.859 971.976 827.411 970.144 822.959 968.18L817.147 981.355C821.815 983.414 826.486 985.338 831.161 987.126L836.304 973.675ZM823.118 968.253C818.402 966.033 813.677 964.018 808.944 962.208L803.802 975.659C808.189 977.336 812.584 979.21 816.987 981.282L823.118 968.253ZM808.944 962.208C803.675 960.194 798.379 959.118 793.096 959.118V973.518C796.396 973.518 799.951 974.186 803.802 975.659L808.944 962.208ZM793.096 959.118C786.334 959.118 780.022 960.485 775.096 964.179L783.736 975.699C785.247 974.566 788.055 973.518 793.096 973.518V959.118ZM775.096 964.179C770.843 967.37 767.615 971.515 765.403 976.449L778.543 982.34C779.818 979.496 781.552 977.337 783.736 975.699L775.096 964.179ZM765.442 976.363C763.394 980.774 761.95 985.622 761.054 990.852L775.247 993.285C775.96 989.126 777.064 985.525 778.503 982.427L765.442 976.363ZM761.027 991.021C760.369 995.492 759.647 999.825 758.861 1004.02L773.014 1006.67C773.837 1002.28 774.59 997.764 775.274 993.116L761.027 991.021ZM758.867 1003.99C758.2 1007.46 757.533 1010.86 756.866 1014.19L770.986 1017.02C771.66 1013.65 772.334 1010.21 773.008 1006.71L758.867 1003.99ZM756.824 1014.42C756.298 1017.58 755.705 1020.87 755.045 1024.3L769.186 1027.02C769.867 1023.48 770.481 1020.07 771.028 1016.79L756.824 1014.42ZM755.037 1024.35C754.202 1028.83 752.419 1032.11 749.875 1034.56L759.871 1044.93C764.837 1040.14 767.882 1034.03 769.194 1026.98L755.037 1024.35ZM749.974 1034.47C747.356 1036.9 743.898 1038.65 739.273 1039.51L741.907 1053.66C748.816 1052.38 754.879 1049.57 759.772 1045.02L749.974 1034.47ZM739.349 1039.49C734.224 1040.39 729.031 1041.03 723.769 1041.42L724.82 1055.78C730.556 1055.36 736.227 1054.66 741.831 1053.68L739.349 1039.49ZM723.935 1041.41C718.693 1041.67 713.382 1041.8 708 1041.8V1056.2C713.616 1056.2 719.167 1056.06 724.654 1055.79L723.935 1041.41ZM708 1041.8C702.539 1041.8 697.077 1041.6 691.615 1041.21L690.589 1055.58C696.392 1055.99 702.196 1056.2 708 1056.2V1041.8ZM691.615 1041.21C686.27 1040.83 680.994 1040.13 675.783 1039.12L673.025 1053.25C678.812 1054.38 684.667 1055.16 690.589 1055.58L691.615 1041.21ZM675.752 1039.11C671.361 1038.27 668.095 1036.53 665.615 1034.05L655.432 1044.23C660.194 1049 666.182 1051.95 673.057 1053.26L675.752 1039.11ZM665.706 1034.14C663.152 1031.5 661.393 1028.11 660.555 1023.71L646.41 1026.41C647.717 1033.27 650.653 1039.28 655.341 1044.14L665.706 1034.14ZM660.559 1023.73C659.361 1017.34 658.229 1010.95 657.165 1004.56L642.96 1006.93C644.041 1013.42 645.19 1019.9 646.406 1026.39L660.559 1023.73ZM657.168 1004.59C656.087 997.962 654.937 991.401 653.719 984.907L639.566 987.561C640.762 993.942 641.893 1000.39 642.957 1006.91L657.168 1004.59ZM653.721 984.917C652.349 977.541 648.756 971.3 643.053 966.461L633.736 977.441C636.885 980.113 638.79 983.393 639.564 987.551L653.721 984.917ZM643.053 966.461C637.302 961.582 630.48 959.118 622.904 959.118V973.518C627.13 973.518 630.635 974.81 633.736 977.441L643.053 966.461ZM743.851 1022.53C744.402 1019.5 745.016 1015.81 745.692 1011.49L731.464 1009.26C730.799 1013.52 730.206 1017.08 729.684 1019.95L743.851 1022.53ZM745.697 1011.45C746.358 1007.09 747.087 1002.65 747.881 998.148L733.701 995.645C732.886 1000.26 732.139 1004.81 731.459 1009.3L745.697 1011.45ZM747.881 998.148C748.668 993.69 749.518 989.444 750.429 985.406L736.383 982.234C735.417 986.512 734.523 990.983 733.701 995.645L747.881 998.148ZM750.429 985.406C751.333 981.404 752.192 978.387 752.979 976.251L739.467 971.273C738.376 974.232 737.357 977.922 736.383 982.234L750.429 985.406ZM752.968 976.28C756.251 967.485 761.441 960.613 768.557 955.448L760.099 943.794C750.585 950.699 743.704 959.922 739.477 971.243L752.968 976.28ZM768.557 955.448C775.57 950.358 783.659 947.768 793.096 947.768V933.368C780.806 933.368 769.716 936.814 760.099 943.794L768.557 955.448ZM793.096 947.768C795.861 947.768 799.332 948.286 803.59 949.503L807.546 935.657C802.417 934.192 797.572 933.368 793.096 933.368V947.768ZM803.822 949.565C808.422 950.715 813.104 952.125 817.867 953.799L822.641 940.213C817.48 938.4 812.371 936.859 807.315 935.595L803.822 949.565ZM817.923 953.818C822.912 955.525 827.692 957.293 832.265 959.123L837.613 945.752C832.799 943.827 827.789 941.974 822.584 940.193L817.923 953.818ZM832.265 959.123C837.001 961.017 841.218 962.649 844.911 964.017L849.913 950.514C846.364 949.2 842.266 947.614 837.613 945.752L832.265 959.123ZM852.927 961.894C859.491 954.073 865.296 945.822 870.336 937.143L857.883 929.912C853.266 937.863 847.94 945.437 841.897 952.637L852.927 961.894ZM870.361 937.1C875.35 928.368 879.718 919.356 883.461 910.066L870.105 904.684C866.607 913.365 862.525 921.788 857.858 929.955L870.361 937.1ZM883.983 907.375V907.174H869.583V907.375H883.983ZM881.445 901.687L850.666 875.535L841.342 886.508L872.121 912.661L881.445 901.687ZM850.613 875.49C845.781 871.464 842.078 866.672 839.445 861.064L826.41 867.182C829.947 874.717 834.961 881.191 841.395 886.553L850.613 875.49ZM839.469 861.114C836.818 855.351 835.501 849.337 835.501 843H821.101C821.101 851.416 822.868 859.483 826.387 867.132L839.469 861.114ZM835.501 843C835.501 836.663 836.818 830.649 839.469 824.886L826.387 818.868C822.868 826.517 821.101 834.584 821.101 843H835.501ZM839.419 824.993C842.197 819.204 845.986 814.332 850.814 810.309L841.596 799.246C835.158 804.611 830.096 811.139 826.437 818.761L839.419 824.993ZM850.818 810.306L881.195 784.958L871.969 773.901L841.592 799.249L850.818 810.306ZM883.782 779.43V779.229H869.382V779.43H883.782ZM883.782 779.229C883.782 778.317 883.6 777.596 883.578 777.501C883.518 777.246 883.455 777.032 883.413 776.897C883.328 776.62 883.231 776.344 883.147 776.114C882.974 775.638 882.74 775.035 882.462 774.342L869.092 779.69C869.351 780.338 869.519 780.774 869.614 781.035C869.636 781.096 869.65 781.136 869.658 781.158C869.667 781.183 869.662 781.171 869.65 781.132C869.644 781.111 869.633 781.075 869.619 781.025C869.605 780.977 869.584 780.899 869.561 780.799C869.539 780.706 869.503 780.543 869.469 780.334C869.452 780.226 869.432 780.083 869.415 779.913C869.399 779.748 869.382 779.513 869.382 779.229H883.782ZM882.544 774.555C882.263 773.782 882.001 773.091 881.77 772.536C881.658 772.268 881.514 771.937 881.35 771.608C881.268 771.445 881.142 771.202 880.975 770.929C880.863 770.746 880.49 770.138 879.863 769.51L869.68 779.693C869.503 779.515 869.361 779.354 869.253 779.225C869.145 779.095 869.056 778.978 868.986 778.883C868.85 778.696 868.75 778.539 868.688 778.438C868.567 778.24 868.493 778.093 868.47 778.048C868.441 777.99 868.429 777.962 868.435 777.976C868.44 777.987 868.454 778.018 868.477 778.075C868.582 778.325 868.756 778.774 869.011 779.476L882.544 774.555ZM881.486 772.002C878.117 763.298 874.041 755.004 869.258 747.127L856.949 754.6C861.286 761.743 864.989 769.275 868.057 777.201L881.486 772.002ZM869.335 747.256C864.72 739.285 859.479 731.67 853.617 724.412L842.414 733.46C847.817 740.149 852.635 747.152 856.872 754.471L869.335 747.256ZM848.016 721.736H847.814V736.136H848.016V721.736ZM845.365 722.165L807.545 735.845L812.443 749.386L850.263 735.706L845.365 722.165ZM807.616 735.819C803.008 737.432 798.314 738.232 793.498 738.232V752.632C799.948 752.632 806.251 751.554 812.373 749.411L807.616 735.819ZM793.498 738.232C785.602 738.232 778.471 736.332 771.959 732.562L764.744 745.024C773.522 750.106 783.154 752.632 793.498 752.632V738.232ZM771.881 732.518C766.371 729.418 761.804 725.309 758.125 720.136L746.39 728.481C751.295 735.379 757.457 740.926 764.822 745.068L771.881 732.518ZM758.187 720.224C754.607 715.027 752.247 709.334 751.089 703.082L736.93 705.704C738.455 713.936 741.594 721.52 746.329 728.393L758.187 720.224ZM751.103 703.156L744.263 663.927L730.077 666.401L736.917 705.629L751.103 703.156ZM738.354 658.062C728.306 656.387 718.187 655.55 708 655.55V669.95C717.394 669.95 726.721 670.722 735.986 672.266L738.354 658.062ZM708 655.55C702.972 655.55 697.944 655.76 692.918 656.178L694.114 670.529C698.743 670.143 703.372 669.95 708 669.95V655.55ZM693.116 656.165C688.085 656.444 683.118 656.934 678.214 657.634L680.251 671.889C684.735 671.249 689.29 670.799 693.915 670.542L693.116 656.165ZM672.146 663.486C670.933 670.229 669.786 676.907 668.707 683.518L682.918 685.838C683.985 679.306 685.118 672.705 686.319 666.037L672.146 663.486ZM668.707 683.518C667.657 689.948 666.41 696.38 664.965 702.816L679.015 705.97C680.521 699.261 681.822 692.551 682.918 685.838L668.707 683.518ZM664.936 702.95C663.881 708.107 662.075 712.873 659.523 717.281L671.985 724.496C675.334 718.712 677.685 712.48 679.044 705.835L664.936 702.95ZM659.565 717.209C657.013 721.501 653.909 725.172 650.248 728.261L659.534 739.267C664.456 735.114 668.594 730.201 671.943 724.568L659.565 717.209ZM650.248 728.261C646.562 731.371 642.402 733.861 637.732 735.729L643.08 749.099C649.139 746.675 654.636 743.399 659.534 739.267L650.248 728.261ZM637.878 735.672C633.382 737.359 628.478 738.232 623.105 738.232V752.632C630.071 752.632 636.701 751.493 642.934 749.156L637.878 735.672ZM623.105 738.232C617.887 738.232 613.048 737.365 608.534 735.672L603.478 749.156C609.693 751.486 616.254 752.632 623.105 752.632V738.232ZM606.006 735.214H605.805V749.614H606.006V735.214ZM608.301 735.661L571.285 721.981L566.293 735.488L603.309 749.168L608.301 735.661ZM568.789 721.534H568.588V735.934H568.789V721.534ZM562.985 724.213C556.606 732.117 550.846 740.374 545.708 748.984L558.073 756.364C562.86 748.343 568.231 740.641 574.191 733.256L562.985 724.213ZM545.735 748.94C540.544 757.498 536.13 766.538 532.492 776.054L545.942 781.196C549.278 772.472 553.313 764.212 558.047 756.408L545.735 748.94ZM532.017 778.625V778.826H546.417V778.625H532.017ZM534.555 784.313L565.334 810.465L574.658 799.492L543.879 773.339L534.555 784.313ZM565.387 810.51C570.19 814.513 573.891 819.349 576.531 825.087L589.613 819.069C586.084 811.396 581.068 804.832 574.605 799.447L565.387 810.51ZM576.555 825.137C579.182 830.736 580.499 836.664 580.499 843H594.899C594.899 834.584 593.131 826.563 589.59 819.019L576.555 825.137ZM580.499 843C580.499 849.288 579.136 855.266 576.38 861.007L589.362 867.239C593.043 859.569 594.899 851.464 594.899 843H580.499ZM576.33 861.114C573.69 866.852 569.989 871.689 565.186 875.691L574.404 886.754C580.866 881.369 585.883 874.805 589.412 867.132L576.33 861.114ZM565.182 875.694L534.805 901.042L544.031 912.099L574.408 886.751L565.182 875.694ZM532.218 906.57V906.771H546.618V906.57H532.218ZM532.218 906.771C532.218 907.649 532.388 908.353 532.402 908.415C532.454 908.648 532.509 908.848 532.545 908.976C532.621 909.24 532.709 909.513 532.789 909.752C532.954 910.248 533.181 910.889 533.456 911.646L546.989 906.725C546.861 906.372 546.751 906.067 546.66 905.809C546.568 905.548 546.499 905.347 546.45 905.199C546.425 905.125 546.408 905.072 546.397 905.037C546.385 904.999 546.385 904.997 546.391 905.02C546.395 905.032 546.403 905.06 546.413 905.1C546.423 905.138 546.44 905.204 546.459 905.291C546.477 905.371 546.508 905.519 546.537 905.71C546.553 905.808 546.571 905.942 546.586 906.103C546.601 906.258 546.618 906.489 546.618 906.771H532.218ZM533.538 911.86C533.821 912.567 534.086 913.206 534.322 913.724C534.436 913.976 534.583 914.287 534.751 914.598C534.774 914.642 535.26 915.612 536.137 916.49L546.32 906.307C546.472 906.459 546.596 906.597 546.691 906.709C546.788 906.823 546.869 906.925 546.933 907.01C547.059 907.175 547.153 907.315 547.214 907.408C547.331 907.59 547.405 907.725 547.43 907.771C547.46 907.828 547.474 907.857 547.469 907.847C547.466 907.84 547.453 907.814 547.431 907.765C547.385 907.665 547.318 907.511 547.227 907.294C547.137 907.079 547.031 906.82 546.908 906.512L533.538 911.86ZM534.514 913.998C537.866 922.658 541.85 930.975 546.464 938.945L558.926 931.73C554.689 924.412 551.028 916.77 547.943 908.799L534.514 913.998ZM546.541 939.075C551.271 946.865 556.553 954.37 562.383 961.588L573.586 952.54C568.15 945.811 563.24 938.832 558.85 931.601L546.541 939.075ZM567.984 964.264H568.186V949.864H567.984V964.264ZM570.635 963.835L608.455 950.155L603.557 936.614L565.737 950.294L570.635 963.835ZM608.384 950.181C612.992 948.568 617.686 947.768 622.502 947.768V933.368C616.052 933.368 609.749 934.446 603.627 936.589L608.384 950.181ZM622.502 947.768C630.398 947.768 637.529 949.668 644.041 953.438L651.256 940.976C642.478 935.894 632.846 933.368 622.502 933.368V947.768ZM644.119 953.482C649.608 956.57 654.082 960.652 657.612 965.776L669.47 957.607C664.685 950.661 658.564 945.086 651.178 940.932L644.119 953.482ZM657.673 965.864C661.361 971.05 663.761 976.713 664.911 982.918L679.07 980.296C677.537 972.018 674.304 964.403 669.409 957.519L657.673 965.864ZM664.897 982.844L671.737 1022.07L685.923 1019.6L679.083 980.371L664.897 982.844ZM677.646 1027.94C687.694 1029.61 697.813 1030.45 708 1030.45V1016.05C698.606 1016.05 689.279 1015.28 680.014 1013.73L677.646 1027.94ZM708 1030.45C712.962 1030.45 717.923 1030.31 722.884 1030.04L722.085 1015.66C717.39 1015.92 712.695 1016.05 708 1016.05V1030.45ZM723.082 1030.02C728.048 1029.61 732.949 1029.06 737.786 1028.37L735.749 1014.11C731.198 1014.76 726.577 1015.28 721.886 1015.67L723.082 1030.02ZM637.95 843C637.95 833.196 639.783 824.107 643.403 815.66L630.167 809.988C625.741 820.317 623.55 831.346 623.55 843H637.95ZM643.403 815.66C647.079 807.084 652.069 799.676 658.372 793.372L648.19 783.19C640.545 790.835 634.538 799.789 630.167 809.988L643.403 815.66ZM658.372 793.372C664.676 787.069 672.084 782.079 680.66 778.403L674.988 765.167C664.789 769.538 655.835 775.545 648.19 783.19L658.372 793.372ZM680.66 778.403C689.107 774.783 698.196 772.95 708 772.95V758.55C696.346 758.55 685.317 760.741 674.988 765.167L680.66 778.403ZM708 772.95C717.804 772.95 726.893 774.783 735.34 778.403L741.012 765.167C730.683 760.741 719.654 758.55 708 758.55V772.95ZM735.34 778.403C743.916 782.079 751.324 787.069 757.628 793.372L767.81 783.19C760.165 775.545 751.211 769.538 741.012 765.167L735.34 778.403ZM757.628 793.372C763.931 799.676 768.921 807.084 772.597 815.66L785.833 809.988C781.462 799.789 775.455 790.835 767.81 783.19L757.628 793.372ZM772.597 815.66C776.217 824.107 778.05 833.196 778.05 843H792.45C792.45 831.346 790.259 820.317 785.833 809.988L772.597 815.66ZM778.05 843C778.05 852.804 776.217 861.893 772.597 870.34L785.833 876.012C790.259 865.683 792.45 854.654 792.45 843H778.05ZM772.597 870.34C768.921 878.916 763.931 886.324 757.628 892.628L767.81 902.81C775.455 895.165 781.462 886.211 785.833 876.012L772.597 870.34ZM757.628 892.628C751.324 898.931 743.916 903.921 735.34 907.597L741.012 920.833C751.211 916.462 760.165 910.455 767.81 902.81L757.628 892.628ZM735.34 907.597C726.893 911.217 717.804 913.05 708 913.05V927.45C719.654 927.45 730.683 925.259 741.012 920.833L735.34 907.597ZM708 913.05C698.196 913.05 689.107 911.217 680.66 907.597L674.988 920.833C685.317 925.259 696.346 927.45 708 927.45V913.05ZM680.66 907.597C672.084 903.921 664.676 898.931 658.372 892.628L648.19 902.81C655.835 910.455 664.789 916.462 674.988 920.833L680.66 907.597ZM658.372 892.628C652.069 886.324 647.079 878.916 643.403 870.34L630.167 876.012C634.538 886.211 640.545 895.165 648.19 902.81L658.372 892.628ZM643.403 870.34C639.783 861.893 637.95 852.804 637.95 843H623.55C623.55 854.654 625.741 865.683 630.167 876.012L643.403 870.34ZM766.7 843C766.7 834.961 765.178 827.339 762.079 820.213L748.874 825.955C751.14 831.167 752.3 836.823 752.3 843H766.7ZM762.102 820.265C759.07 813.14 754.87 806.864 749.503 801.497L739.321 811.679C743.342 815.7 746.518 820.421 748.851 825.903L762.102 820.265ZM749.503 801.497C744.136 796.13 737.86 791.93 730.735 788.898L725.097 802.149C730.579 804.482 735.3 807.658 739.321 811.679L749.503 801.497ZM730.787 788.921C723.661 785.822 716.039 784.3 708 784.3V798.7C714.177 798.7 719.833 799.86 725.045 802.126L730.787 788.921ZM708 784.3C699.96 784.3 692.292 785.822 685.064 788.898L690.702 802.149C696.08 799.86 701.824 798.7 708 798.7V784.3ZM685.012 788.921C678.026 791.958 671.838 796.155 666.497 801.497L676.679 811.679C680.726 807.632 685.401 804.453 690.754 802.126L685.012 788.921ZM666.497 801.497C661.13 806.864 656.93 813.14 653.898 820.265L667.149 825.903C669.482 820.421 672.658 815.7 676.679 811.679L666.497 801.497ZM653.921 820.213C650.822 827.339 649.3 834.961 649.3 843H663.7C663.7 836.823 664.86 831.167 667.126 825.955L653.921 820.213ZM649.3 843C649.3 851.04 650.822 858.708 653.898 865.936L667.149 860.298C664.86 854.92 663.7 849.176 663.7 843H649.3ZM653.921 865.988C656.958 872.974 661.155 879.162 666.497 884.503L676.679 874.321C672.632 870.274 669.453 865.599 667.126 860.246L653.921 865.988ZM666.497 884.503C671.838 889.845 678.026 894.042 685.012 897.079L690.754 883.874C685.401 881.547 680.726 878.368 676.679 874.321L666.497 884.503ZM685.064 897.102C692.292 900.178 699.96 901.7 708 901.7V887.3C701.824 887.3 696.08 886.14 690.702 883.851L685.064 897.102ZM708 901.7C716.039 901.7 723.661 900.178 730.787 897.079L725.045 883.874C719.833 886.14 714.177 887.3 708 887.3V901.7ZM730.735 897.102C737.86 894.07 744.136 889.87 749.503 884.503L739.321 874.321C735.3 878.342 730.579 881.518 725.097 883.851L730.735 897.102ZM749.503 884.503C754.845 879.162 759.042 872.974 762.079 865.988L748.874 860.246C746.547 865.599 743.368 870.274 739.321 874.321L749.503 884.503ZM762.102 865.936C765.178 858.708 766.7 851.04 766.7 843H752.3C752.3 849.176 751.14 854.92 748.851 860.298L762.102 865.936Z" fill="#FAFAFA"/>
</g>
<path d="M522.902 519.274L394.464 452.997C378.707 444.853 359.967 444.853 344.21 452.997L288.864 481.557L448.605 570.302L522.902 531.963C528.095 529.307 528.095 521.93 522.902 519.274Z" fill="url(#paint2_linear_611_25)"/>
<path d="M522.902 519.274L394.464 452.997C378.707 444.853 359.967 444.853 344.21 452.997L288.864 481.557L448.605 570.302L522.902 531.963C528.095 529.307 528.095 521.93 522.902 519.274Z" fill="url(#paint3_linear_611_25)" fill-opacity="0.45"/>
<path d="M522.902 519.274L394.464 452.997C378.707 444.853 359.967 444.853 344.21 452.997L288.864 481.557L448.605 570.302L522.902 531.963C528.095 529.307 528.095 521.93 522.902 519.274Z" fill="url(#paint4_linear_611_25)" fill-opacity="0.3"/>
<path d="M394.464 452.997L522.902 519.274C528.095 521.93 528.095 529.307 522.902 531.963L448.605 570.302L448.992 570.517L590.276 497.258L386.198 392.603L260.612 465.862L288.864 481.557L344.21 452.997C359.967 444.853 378.707 444.853 394.464 452.997Z" fill="url(#paint5_linear_611_25)"/>
<path d="M394.464 452.997L522.902 519.274C528.095 521.93 528.095 529.307 522.902 531.963L448.605 570.302L448.992 570.517L590.276 497.258L386.198 392.603L260.612 465.862L288.864 481.557L344.21 452.997C359.967 444.853 378.707 444.853 394.464 452.997Z" fill="url(#paint6_linear_611_25)" fill-opacity="0.45"/>
<path d="M394.464 452.997L522.902 519.274C528.095 521.93 528.095 529.307 522.902 531.963L448.605 570.302L448.992 570.517L590.276 497.258L386.198 392.603L260.612 465.862L288.864 481.557L344.21 452.997C359.967 444.853 378.707 444.853 394.464 452.997Z" fill="url(#paint7_linear_611_25)" fill-opacity="0.3"/>
<path d="M662.711 422.825L405.095 288.567C383.422 277.276 357.596 277.276 335.857 288.567L78.2423 422.825C63.2526 430.677 63.2526 452.091 78.2423 459.943L213.989 530.688C210.67 527.444 211.264 521.58 215.772 519.274L288.864 481.557L260.612 465.862L386.198 392.603L590.276 497.258L448.992 570.517L448.605 570.302L394.464 598.24C393.494 598.742 392.512 599.212 391.521 599.652C396.167 598.293 400.714 596.476 405.095 594.201L662.711 459.943C677.7 452.091 677.7 430.677 662.711 422.825Z" fill="url(#paint8_linear_611_25)"/>
<path d="M662.711 422.825L405.095 288.567C383.422 277.276 357.596 277.276 335.857 288.567L78.2423 422.825C63.2526 430.677 63.2526 452.091 78.2423 459.943L213.989 530.688C210.67 527.444 211.264 521.58 215.772 519.274L288.864 481.557L260.612 465.862L386.198 392.603L590.276 497.258L448.992 570.517L448.605 570.302L394.464 598.24C393.494 598.742 392.512 599.212 391.521 599.652C396.167 598.293 400.714 596.476 405.095 594.201L662.711 459.943C677.7 452.091 677.7 430.677 662.711 422.825Z" fill="url(#paint9_linear_611_25)" fill-opacity="0.45"/>
<path d="M662.711 422.825L405.095 288.567C383.422 277.276 357.596 277.276 335.857 288.567L78.2423 422.825C63.2526 430.677 63.2526 452.091 78.2423 459.943L213.989 530.688C210.67 527.444 211.264 521.58 215.772 519.274L288.864 481.557L260.612 465.862L386.198 392.603L590.276 497.258L448.992 570.517L448.605 570.302L394.464 598.24C393.494 598.742 392.512 599.212 391.521 599.652C396.167 598.293 400.714 596.476 405.095 594.201L662.711 459.943C677.7 452.091 677.7 430.677 662.711 422.825Z" fill="url(#paint10_linear_611_25)" fill-opacity="0.3"/>
<path d="M363.824 588.039C368.041 590.18 372.973 590.18 377.191 588.039L430.913 560.473L288.864 481.557L222.772 515.662L363.824 588.039Z" fill="url(#paint11_linear_611_25)"/>
<path fill-rule="evenodd" clip-rule="evenodd" d="M67.0147 435.741L67.6695 436.077C67.2893 437.556 67.071 439.071 67.0147 440.591V435.741ZM67.0147 440.591C66.9951 441.119 66.9951 441.648 67.0147 442.177V440.591ZM449.692 570.959L430.913 560.473L377.191 588.039C372.973 590.18 368.041 590.18 363.824 588.039L222.772 515.662L204.154 525.563C200.753 527.302 206.194 527.488 210.495 528.867C211.895 529.316 213.174 529.892 213.989 530.688L210.495 528.867L78.2423 459.943C71.0183 456.159 67.2758 449.225 67.0147 442.177V573.114C67.0147 584.405 73.3091 594.722 83.3022 599.849L338.906 730.927C358.762 741.115 382.382 741.115 402.304 730.927L657.712 599.849C667.706 594.722 674 584.405 674 573.179V435.741L673.291 436.105C675.551 444.949 672.025 455.064 662.711 459.943L405.096 594.201C400.714 596.476 396.167 598.293 391.521 599.652C392.513 599.212 404.126 594.702 405.096 594.201L449.692 570.959Z" fill="url(#paint12_linear_611_25)"/>
<path d="M405.096 594.201C404.126 594.702 392.513 599.212 391.521 599.652C396.167 598.293 400.714 596.476 405.096 594.201Z" fill="url(#paint13_linear_611_25)"/>
<path d="M204.154 525.563L210.495 528.867C206.194 527.488 200.753 527.302 204.154 525.563Z" fill="url(#paint14_linear_611_25)"/>
<rect x="387" y="768.283" width="576" height="255.717" rx="45" fill="#FFC225"/>
<path d="M517.701 957V835.395H554.496C563.626 835.395 571.656 836.605 578.586 839.025C585.516 841.335 590.961 845.185 594.921 850.575C598.991 855.855 601.026 863.115 601.026 872.355C601.026 881.155 599.046 888.415 595.086 894.135C591.126 899.745 585.681 903.98 578.751 906.84C571.931 909.59 564.066 910.965 555.156 910.965H536.841V957H517.701ZM536.841 895.455H553.506C563.076 895.455 570.226 893.585 574.956 889.845C579.686 886.105 582.051 880.275 582.051 872.355C582.051 864.215 579.576 858.605 574.626 855.525C569.676 852.445 562.361 850.905 552.681 850.905H536.841V895.455ZM637.893 957V835.395H677.658C686.018 835.395 693.498 836.55 700.098 838.86C706.698 841.06 711.923 844.745 715.773 849.915C719.623 854.975 721.548 861.905 721.548 870.705C721.548 879.175 719.623 886.16 715.773 891.66C711.923 897.16 706.698 901.285 700.098 904.035C693.498 906.675 686.018 907.995 677.658 907.995H657.033V957H637.893ZM657.033 892.65H675.348C684.148 892.65 690.858 890.835 695.478 887.205C700.208 883.465 702.573 877.965 702.573 870.705C702.573 863.335 700.208 858.22 695.478 855.36C690.858 852.39 684.148 850.905 675.348 850.905H657.033V892.65ZM704.223 957L674.028 902.88L688.218 891.825L725.838 957H704.223ZM759.374 957V835.395H831.149V851.565H778.514V885.39H823.064V901.56H778.514V940.665H832.964V957H759.374Z" fill="black"/>
<path d="M517.701 957H514.701V960H517.701V957ZM517.701 835.395V832.395H514.701V835.395H517.701ZM578.586 839.025L577.596 841.857L577.617 841.864L577.637 841.871L578.586 839.025ZM594.921 850.575L592.503 852.351L592.523 852.379L592.544 852.407L594.921 850.575ZM595.086 894.135L597.536 895.865L597.544 895.854L597.552 895.843L595.086 894.135ZM578.751 906.84L579.872 909.622L579.884 909.618L579.895 909.613L578.751 906.84ZM536.841 910.965V907.965H533.841V910.965H536.841ZM536.841 957V960H539.841V957H536.841ZM536.841 895.455H533.841V898.455H536.841V895.455ZM574.956 889.845L576.816 892.198L576.816 892.198L574.956 889.845ZM574.626 855.525L576.21 852.978L576.21 852.978L574.626 855.525ZM536.841 850.905V847.905H533.841V850.905H536.841ZM520.701 957V835.395H514.701V957H520.701ZM517.701 838.395H554.496V832.395H517.701V838.395ZM554.496 838.395C563.368 838.395 571.051 839.572 577.596 841.857L579.575 836.193C572.26 833.638 563.883 832.395 554.496 832.395V838.395ZM577.637 841.871C584.035 844.004 588.944 847.507 592.503 852.351L597.338 848.799C592.977 842.863 586.996 838.666 579.534 836.179L577.637 841.871ZM592.544 852.407C596.079 856.992 598.026 863.526 598.026 872.355H604.026C604.026 862.704 601.902 854.718 597.297 848.743L592.544 852.407ZM598.026 872.355C598.026 880.707 596.15 887.328 592.619 892.427L597.552 895.843C601.941 889.502 604.026 881.603 604.026 872.355H598.026ZM592.635 892.405C589.032 897.508 584.061 901.403 577.606 904.067L579.895 909.613C587.3 906.557 593.219 901.982 597.536 895.865L592.635 892.405ZM577.629 904.058C571.232 906.637 563.76 907.965 555.156 907.965V913.965C564.371 913.965 572.629 912.543 579.872 909.622L577.629 904.058ZM555.156 907.965H536.841V913.965H555.156V907.965ZM533.841 910.965V957H539.841V910.965H533.841ZM536.841 954H517.701V960H536.841V954ZM536.841 898.455H553.506V892.455H536.841V898.455ZM553.506 898.455C563.38 898.455 571.325 896.54 576.816 892.198L573.095 887.492C569.126 890.63 562.771 892.455 553.506 892.455V898.455ZM576.816 892.198C582.479 887.721 585.051 880.882 585.051 872.355H579.051C579.051 879.668 576.892 884.489 573.095 887.492L576.816 892.198ZM585.051 872.355C585.051 863.632 582.367 856.808 576.21 852.978L573.041 858.072C576.784 860.402 579.051 864.798 579.051 872.355H585.051ZM576.21 852.978C570.566 849.466 562.59 847.905 552.681 847.905V853.905C562.131 853.905 568.785 855.424 573.041 858.072L576.21 852.978ZM552.681 847.905H536.841V853.905H552.681V847.905ZM533.841 850.905V895.455H539.841V850.905H533.841ZM637.893 957H634.893V960H637.893V957ZM637.893 835.395V832.395H634.893V835.395H637.893ZM700.098 838.86L699.107 841.692L699.128 841.699L699.149 841.706L700.098 838.86ZM715.773 849.915L713.367 851.707L713.376 851.719L713.385 851.732L715.773 849.915ZM715.773 891.66L713.315 889.94L713.315 889.94L715.773 891.66ZM700.098 904.035L701.212 906.82L701.232 906.812L701.252 906.804L700.098 904.035ZM657.033 907.995V904.995H654.033V907.995H657.033ZM657.033 957V960H660.033V957H657.033ZM657.033 892.65H654.033V895.65H657.033V892.65ZM695.478 887.205L697.331 889.564L697.338 889.558L695.478 887.205ZM695.478 855.36L693.855 857.884L693.89 857.906L693.925 857.927L695.478 855.36ZM657.033 850.905V847.905H654.033V850.905H657.033ZM704.223 957L701.603 958.462L702.461 960H704.223V957ZM674.028 902.88L672.184 900.513L670.154 902.095L671.408 904.342L674.028 902.88ZM688.218 891.825L690.816 890.325L689.093 887.34L686.374 889.458L688.218 891.825ZM725.838 957V960H731.033L728.436 955.5L725.838 957ZM640.893 957V835.395H634.893V957H640.893ZM637.893 838.395H677.658V832.395H637.893V838.395ZM677.658 838.395C685.744 838.395 692.881 839.512 699.107 841.692L701.089 836.028C694.115 833.588 686.291 832.395 677.658 832.395V838.395ZM699.149 841.706C705.215 843.728 709.913 847.069 713.367 851.707L718.179 848.123C713.933 842.421 708.18 838.392 701.046 836.014L699.149 841.706ZM713.385 851.732C716.71 856.102 718.548 862.314 718.548 870.705H724.548C724.548 861.496 722.535 853.848 718.16 848.098L713.385 851.732ZM718.548 870.705C718.548 878.721 716.729 885.062 713.315 889.94L718.23 893.38C722.516 887.258 724.548 879.629 724.548 870.705H718.548ZM713.315 889.94C709.813 894.943 705.054 898.72 698.944 901.266L701.252 906.804C708.341 903.85 714.033 899.377 718.23 893.38L713.315 889.94ZM698.984 901.25C692.794 903.725 685.702 904.995 677.658 904.995V910.995C686.333 910.995 694.201 909.625 701.212 906.82L698.984 901.25ZM677.658 904.995H657.033V910.995H677.658V904.995ZM654.033 907.995V957H660.033V907.995H654.033ZM657.033 954H637.893V960H657.033V954ZM657.033 895.65H675.348V889.65H657.033V895.65ZM675.348 895.65C684.5 895.65 691.977 893.771 697.331 889.564L693.624 884.846C689.739 887.899 683.795 889.65 675.348 889.65V895.65ZM697.338 889.558C702.937 885.132 705.573 878.674 705.573 870.705H699.573C699.573 877.256 697.479 881.798 693.617 884.852L697.338 889.558ZM705.573 870.705C705.573 862.68 702.952 856.373 697.03 852.793L693.925 857.927C697.464 860.067 699.573 863.99 699.573 870.705H705.573ZM697.1 852.836C691.786 849.42 684.408 847.905 675.348 847.905V853.905C683.888 853.905 689.93 855.36 693.855 857.884L697.1 852.836ZM675.348 847.905H657.033V853.905H675.348V847.905ZM654.033 850.905V892.65H660.033V850.905H654.033ZM706.843 955.538L676.648 901.418L671.408 904.342L701.603 958.462L706.843 955.538ZM675.871 905.247L690.061 894.192L686.374 889.458L672.184 900.513L675.871 905.247ZM685.619 893.325L723.239 958.5L728.436 955.5L690.816 890.325L685.619 893.325ZM725.838 954H704.223V960H725.838V954ZM759.374 957H756.374V960H759.374V957ZM759.374 835.395V832.395H756.374V835.395H759.374ZM831.149 835.395H834.149V832.395H831.149V835.395ZM831.149 851.565V854.565H834.149V851.565H831.149ZM778.514 851.565V848.565H775.514V851.565H778.514ZM778.514 885.39H775.514V888.39H778.514V885.39ZM823.064 885.39H826.064V882.39H823.064V885.39ZM823.064 901.56V904.56H826.064V901.56H823.064ZM778.514 901.56V898.56H775.514V901.56H778.514ZM778.514 940.665H775.514V943.665H778.514V940.665ZM832.964 940.665H835.964V937.665H832.964V940.665ZM832.964 957V960H835.964V957H832.964ZM762.374 957V835.395H756.374V957H762.374ZM759.374 838.395H831.149V832.395H759.374V838.395ZM828.149 835.395V851.565H834.149V835.395H828.149ZM831.149 848.565H778.514V854.565H831.149V848.565ZM775.514 851.565V885.39H781.514V851.565H775.514ZM778.514 888.39H823.064V882.39H778.514V888.39ZM820.064 885.39V901.56H826.064V885.39H820.064ZM823.064 898.56H778.514V904.56H823.064V898.56ZM775.514 901.56V940.665H781.514V901.56H775.514ZM778.514 943.665H832.964V937.665H778.514V943.665ZM829.964 940.665V957H835.964V940.665H829.964ZM832.964 954H759.374V960H832.964V954Z" fill="black"/>
<defs>
<linearGradient id="paint0_linear_611_25" x1="514" y1="79.9998" x2="514" y2="944" gradientUnits="userSpaceOnUse">
<stop stop-color="#FAFAFA"/>
<stop offset="1" stop-color="#FBFBFB"/>
</linearGradient>
<linearGradient id="paint1_linear_611_25" x1="514" y1="79.9998" x2="514" y2="944" gradientUnits="userSpaceOnUse">
<stop stop-color="#797774"/>
<stop offset="1" stop-color="#797774"/>
</linearGradient>
<linearGradient id="paint2_linear_611_25" x1="370.476" y1="280.099" x2="370.476" y2="604.349" gradientUnits="userSpaceOnUse">
<stop stop-color="#0079D5"/>
<stop offset="1" stop-color="#0367CC"/>
</linearGradient>
<linearGradient id="paint3_linear_611_25" x1="370.476" y1="280.099" x2="370.476" y2="604.349" gradientUnits="userSpaceOnUse">
<stop stop-color="#0085FF"/>
<stop offset="1" stop-color="#0085FF" stop-opacity="0"/>
</linearGradient>
<linearGradient id="paint4_linear_611_25" x1="370.476" y1="280.099" x2="370.476" y2="604.349" gradientUnits="userSpaceOnUse">
<stop stop-color="#00C2FF"/>
<stop offset="1" stop-color="#00D1FF" stop-opacity="0"/>
</linearGradient>
<linearGradient id="paint5_linear_611_25" x1="370.476" y1="280.099" x2="370.476" y2="604.349" gradientUnits="userSpaceOnUse">
<stop stop-color="#0079D5"/>
<stop offset="1" stop-color="#0367CC"/>
</linearGradient>
<linearGradient id="paint6_linear_611_25" x1="370.476" y1="280.099" x2="370.476" y2="604.349" gradientUnits="userSpaceOnUse">
<stop stop-color="#0085FF"/>
<stop offset="1" stop-color="#0085FF" stop-opacity="0"/>
</linearGradient>
<linearGradient id="paint7_linear_611_25" x1="370.476" y1="280.099" x2="370.476" y2="604.349" gradientUnits="userSpaceOnUse">
<stop stop-color="#00C2FF"/>
<stop offset="1" stop-color="#00D1FF" stop-opacity="0"/>
</linearGradient>
<linearGradient id="paint8_linear_611_25" x1="370.476" y1="280.099" x2="370.476" y2="604.349" gradientUnits="userSpaceOnUse">
<stop stop-color="#0079D5"/>
<stop offset="1" stop-color="#0367CC"/>
</linearGradient>
<linearGradient id="paint9_linear_611_25" x1="370.476" y1="280.099" x2="370.476" y2="604.349" gradientUnits="userSpaceOnUse">
<stop stop-color="#0085FF"/>
<stop offset="1" stop-color="#0085FF" stop-opacity="0"/>
</linearGradient>
<linearGradient id="paint10_linear_611_25" x1="370.476" y1="280.099" x2="370.476" y2="604.349" gradientUnits="userSpaceOnUse">
<stop stop-color="#00C2FF"/>
<stop offset="1" stop-color="#00D1FF" stop-opacity="0"/>
</linearGradient>
<linearGradient id="paint11_linear_611_25" x1="67" y1="167.605" x2="766.342" y2="802.38" gradientUnits="userSpaceOnUse">
<stop offset="0.0188061" stop-color="#0986DF"/>
<stop offset="0.237351" stop-color="#0962BC"/>
<stop offset="0.924851" stop-color="#0A428C"/>
</linearGradient>
<linearGradient id="paint12_linear_611_25" x1="67" y1="167.605" x2="766.342" y2="802.38" gradientUnits="userSpaceOnUse">
<stop offset="0.0188061" stop-color="#0986DF"/>
<stop offset="0.237351" stop-color="#0962BC"/>
<stop offset="0.924851" stop-color="#0A428C"/>
</linearGradient>
<linearGradient id="paint13_linear_611_25" x1="67" y1="167.605" x2="766.342" y2="802.38" gradientUnits="userSpaceOnUse">
<stop offset="0.0188061" stop-color="#0986DF"/>
<stop offset="0.237351" stop-color="#0962BC"/>
<stop offset="0.924851" stop-color="#0A428C"/>
</linearGradient>
<linearGradient id="paint14_linear_611_25" x1="67" y1="167.605" x2="766.342" y2="802.38" gradientUnits="userSpaceOnUse">
<stop offset="0.0188061" stop-color="#0986DF"/>
<stop offset="0.237351" stop-color="#0962BC"/>
<stop offset="0.924851" stop-color="#0A428C"/>
</linearGradient>
<clipPath id="clip0_611_25">
<rect width="340" height="312" fill="white" transform="translate(496 632)"/>
</clipPath>
</defs>
</svg>
