<svg width="1024" height="1024" viewBox="0 0 1024 1024" fill="none" xmlns="http://www.w3.org/2000/svg">
<g clip-path="url(#clip0_544_166)">
<rect opacity="0.4" y="128" width="1024" height="768" rx="40" fill="url(#paint0_linear_544_166)"/>
<rect y="128" width="1024" height="768" rx="40" fill="url(#paint1_linear_544_166)"/>
<rect y="128" width="1024" height="768" rx="40" fill="white" fill-opacity="0.2" style="mix-blend-mode:soft-light"/>
<g opacity="0.5">
<rect y="128" width="1024" height="768" rx="40" fill="url(#paint2_linear_544_166)"/>
<rect y="128" width="1024" height="768" rx="40" fill="url(#paint3_linear_544_166)" fill-opacity="0.45"/>
<rect y="128" width="1024" height="768" rx="40" fill="url(#paint4_linear_544_166)" fill-opacity="0.3"/>
<rect y="128" width="1024" height="768" rx="40" fill="#FF0000" style="mix-blend-mode:saturation"/>
</g>
<g opacity="0.15">
<rect y="128" width="1024" height="768" rx="40" fill="#FF0000" style="mix-blend-mode:saturation"/>
<rect y="128" width="1024" height="768" rx="40" fill="url(#paint5_linear_544_166)"/>
</g>
<path d="M0 704H1024V856C1024 878.091 1006.09 896 984 896H40C17.9086 896 0 878.091 0 856V704Z" fill="black" fill-opacity="0.25" style="mix-blend-mode:multiply"/>
<g filter="url(#filter0_d_544_166)">
<path d="M463.263 521.208L313.03 443.685C294.6 434.159 272.679 434.159 254.249 443.685L189.512 477.091L376.358 580.895L463.263 536.05C469.337 532.944 469.337 524.315 463.263 521.208Z" fill="url(#paint6_linear_544_166)"/>
<path d="M463.263 521.208L313.03 443.685C294.6 434.159 272.679 434.159 254.249 443.685L189.512 477.091L376.358 580.895L463.263 536.05C469.337 532.944 469.337 524.315 463.263 521.208Z" fill="white" fill-opacity="0.55" style="mix-blend-mode:overlay"/>
<path d="M313.03 443.685L463.263 521.208C469.337 524.315 469.337 532.944 463.263 536.05L376.358 580.895L376.81 581.146L542.069 495.456L303.362 373.043L156.466 458.732L189.512 477.091L254.249 443.685C272.679 434.159 294.6 434.159 313.03 443.685Z" fill="url(#paint7_linear_544_166)"/>
<path d="M313.03 443.685L463.263 521.208C469.337 524.315 469.337 532.944 463.263 536.05L376.358 580.895L376.81 581.146L542.069 495.456L303.362 373.043L156.466 458.732L189.512 477.091L254.249 443.685C272.679 434.159 294.6 434.159 313.03 443.685Z" fill="white" fill-opacity="0.55" style="mix-blend-mode:overlay"/>
<path d="M626.795 408.393L325.466 251.353C300.115 238.146 269.906 238.146 244.479 251.353L-56.8501 408.393C-74.3833 417.577 -74.3833 442.625 -56.8501 451.809L101.931 534.559C98.0486 530.764 98.7439 523.905 104.017 521.208L189.512 477.091L156.466 458.732L303.362 373.043L542.069 495.456L376.81 581.146L376.358 580.895L313.03 613.574C311.896 614.16 310.748 614.711 309.588 615.225C315.022 613.636 320.341 611.511 325.466 608.849L626.795 451.809C644.328 442.625 644.328 417.577 626.795 408.393Z" fill="url(#paint8_linear_544_166)"/>
<path d="M626.795 408.393L325.466 251.353C300.115 238.146 269.906 238.146 244.479 251.353L-56.8501 408.393C-74.3833 417.577 -74.3833 442.625 -56.8501 451.809L101.931 534.559C98.0486 530.764 98.7439 523.905 104.017 521.208L189.512 477.091L156.466 458.732L303.362 373.043L542.069 495.456L376.81 581.146L376.358 580.895L313.03 613.574C311.896 614.16 310.748 614.711 309.588 615.225C315.022 613.636 320.341 611.511 325.466 608.849L626.795 451.809C644.328 442.625 644.328 417.577 626.795 408.393Z" fill="white" fill-opacity="0.55" style="mix-blend-mode:overlay"/>
<path d="M277.191 601.641C282.124 604.146 287.893 604.146 292.826 601.641L355.664 569.398L189.512 477.091L112.204 516.983L277.191 601.641Z" fill="url(#paint9_linear_544_166)"/>
<path fill-rule="evenodd" clip-rule="evenodd" d="M-69.9828 423.5L-69.2169 423.893C-69.6616 425.623 -69.9169 427.395 -69.9828 429.173V423.5ZM-69.9828 429.173C-70.0057 429.791 -70.0057 430.41 -69.9828 431.029V429.173ZM377.63 581.663L355.664 569.398L292.826 601.641C287.893 604.146 282.124 604.146 277.191 601.641L112.204 516.983L90.4273 528.564C85.1547 531.26 98.0487 530.764 101.931 534.559L-56.8501 451.809C-65.2998 447.383 -69.6774 439.272 -69.9828 431.029V584.184C-69.9828 597.391 -62.6204 609.459 -50.9315 615.455L248.045 768.776C271.27 780.693 298.899 780.693 322.2 768.776L620.949 615.455C632.638 609.459 640 597.391 640 584.26V423.5L639.17 423.926C641.815 434.271 637.69 446.102 626.795 451.809L325.466 608.849C320.341 611.511 315.023 613.636 309.588 615.225C310.748 614.711 324.331 609.435 325.466 608.849L377.63 581.663Z" fill="url(#paint10_linear_544_166)"/>
<path d="M325.466 608.849C324.331 609.435 310.748 614.711 309.588 615.225C315.023 613.636 320.341 611.511 325.466 608.849Z" fill="url(#paint11_linear_544_166)"/>
<path d="M277.191 601.641C282.124 604.146 287.893 604.146 292.826 601.641L355.664 569.398L189.512 477.091L112.204 516.983L277.191 601.641Z" fill="#ACC1D8"/>
<path fill-rule="evenodd" clip-rule="evenodd" d="M-69.9828 423.5L-69.2169 423.893C-69.6616 425.623 -69.9169 427.395 -69.9828 429.173V423.5ZM-69.9828 429.173C-70.0057 429.791 -70.0057 430.41 -69.9828 431.029V429.173ZM377.63 581.663L355.664 569.398L292.826 601.641C287.893 604.146 282.124 604.146 277.191 601.641L112.204 516.983L90.4273 528.564C85.1547 531.26 98.0487 530.764 101.931 534.559L-56.8501 451.809C-65.2998 447.383 -69.6774 439.272 -69.9828 431.029V584.184C-69.9828 597.391 -62.6204 609.459 -50.9315 615.455L248.045 768.776C271.27 780.693 298.899 780.693 322.2 768.776L620.949 615.455C632.638 609.459 640 597.391 640 584.26V423.5L639.17 423.926C641.815 434.271 637.69 446.102 626.795 451.809L325.466 608.849C320.341 611.511 315.023 613.636 309.588 615.225C310.748 614.711 324.331 609.435 325.466 608.849L377.63 581.663Z" fill="#ACC1D8"/>
<path d="M325.466 608.849C324.331 609.435 310.748 614.711 309.588 615.225C315.023 613.636 320.341 611.511 325.466 608.849Z" fill="#ACC1D8"/>
</g>
<path d="M61.7375 757.403C67.15 757.403 71.5519 761.731 71.6719 767.114C71.6736 767.189 71.6744 767.265 71.6744 767.34C71.6744 768.504 71.4743 769.621 71.1065 770.659C69.7405 774.515 66.0615 777.277 61.7375 777.277C57.4135 777.277 53.7345 774.515 52.3685 770.659C52.0007 769.621 51.8006 768.504 51.8006 767.34C51.8006 767.265 51.8014 767.189 51.8031 767.114C51.9231 761.731 56.325 757.403 61.7375 757.403Z" fill="#0C315C"/>
<path d="M61.7375 827.391C66.0863 827.391 69.7825 830.185 71.1298 834.075C71.4827 835.095 71.6744 836.189 71.6744 837.328C71.6744 842.816 67.2255 847.265 61.7375 847.265C56.2495 847.265 51.8006 842.816 51.8006 837.328C51.8006 836.189 51.9923 835.095 52.3453 834.075C53.6925 830.185 57.3888 827.391 61.7375 827.391Z" fill="#0C315C"/>
<path d="M52.3685 770.659C53.0881 779.929 53.6073 793.688 53.6073 800.99C53.6073 810.137 53.0769 825.08 52.3453 834.075C53.6925 830.185 57.3888 827.391 61.7375 827.391C66.0863 827.391 69.7825 830.185 71.1298 834.075C70.3981 825.08 69.8677 810.137 69.8677 800.99C69.8677 793.688 70.3869 779.929 71.1065 770.659C69.7405 774.515 66.0615 777.277 61.7375 777.277C57.4135 777.277 53.7345 774.515 52.3685 770.659Z" fill="#0C315C"/>
<path fill-rule="evenodd" clip-rule="evenodd" d="M51.8031 767.114C52.0006 767.125 52.1906 768.369 52.3685 770.659L51.8031 767.114ZM51.8006 767.114C51.8014 767.114 51.8023 767.114 51.8031 767.114C51.8014 767.189 51.8006 767.265 51.8006 767.34C51.8006 768.504 52.0007 769.621 52.3685 770.659M52.3453 834.075C52.1734 836.189 51.9904 837.328 51.8006 837.328C51.8006 836.189 51.9923 835.095 52.3453 834.075Z" fill="#0C315C"/>
<path fill-rule="evenodd" clip-rule="evenodd" d="M71.6744 767.114C71.6736 767.114 71.6727 767.114 71.6719 767.114C71.4744 767.125 71.2844 768.369 71.1065 770.659C71.4743 769.621 71.6744 768.504 71.6744 767.34C71.6744 767.265 71.6736 767.189 71.6719 767.114M71.6744 837.328C71.4846 837.328 71.3016 836.189 71.1298 834.075C71.4827 835.095 71.6744 836.189 71.6744 837.328Z" fill="#0C315C"/>
<path d="M125.882 757.403C131.295 757.403 135.696 761.731 135.816 767.114C135.818 767.189 135.819 767.265 135.819 767.34C135.819 768.504 135.619 769.621 135.251 770.659C133.885 774.515 130.206 777.277 125.882 777.277C121.558 777.277 117.879 774.515 116.513 770.659C116.145 769.621 115.945 768.504 115.945 767.34C115.945 767.265 115.946 767.189 115.948 767.114C116.068 761.731 120.469 757.403 125.882 757.403Z" fill="#0C315C"/>
<path d="M125.882 827.391C130.231 827.391 133.927 830.185 135.274 834.075C135.627 835.095 135.819 836.189 135.819 837.328C135.819 842.816 131.37 847.265 125.882 847.265C120.394 847.265 115.945 842.816 115.945 837.328C115.945 836.189 116.137 835.095 116.49 834.075C117.837 830.185 121.533 827.391 125.882 827.391Z" fill="#0C315C"/>
<path d="M116.513 770.659C117.233 779.929 117.752 793.688 117.752 800.99C117.752 810.137 117.221 825.08 116.49 834.075C117.837 830.185 121.533 827.391 125.882 827.391C130.231 827.391 133.927 830.185 135.274 834.075C134.543 825.08 134.012 810.137 134.012 800.99C134.012 793.688 134.531 779.929 135.251 770.659C133.885 774.515 130.206 777.277 125.882 777.277C121.558 777.277 117.879 774.515 116.513 770.659Z" fill="#0C315C"/>
<path fill-rule="evenodd" clip-rule="evenodd" d="M115.948 767.114C116.145 767.125 116.335 768.369 116.513 770.659L115.948 767.114ZM115.945 767.114C115.946 767.114 115.947 767.114 115.948 767.114C115.946 767.189 115.945 767.265 115.945 767.34C115.945 768.504 116.145 769.621 116.513 770.659M116.49 834.075C116.318 836.189 116.135 837.328 115.945 837.328C115.945 836.189 116.137 835.095 116.49 834.075Z" fill="#0C315C"/>
<path fill-rule="evenodd" clip-rule="evenodd" d="M135.819 767.114C135.818 767.114 135.817 767.114 135.816 767.114C135.619 767.125 135.429 768.369 135.251 770.659C135.619 769.621 135.819 768.504 135.819 767.34C135.819 767.265 135.818 767.189 135.816 767.114M135.819 837.328C135.629 837.328 135.446 836.189 135.274 834.075C135.627 835.095 135.819 836.189 135.819 837.328Z" fill="#0C315C"/>
<path d="M54.6869 761.304C58.5142 757.477 64.6866 757.424 68.5784 761.146C68.6326 761.198 68.6864 761.251 68.7398 761.304C69.5629 762.127 70.2113 763.059 70.6853 764.053C72.4458 767.745 71.7973 772.299 68.7398 775.357C65.6823 778.415 61.1279 779.063 57.4354 777.302C56.4415 776.829 55.51 776.18 54.6869 775.357C54.6336 775.304 54.5809 775.25 54.529 775.196C50.807 771.304 50.8597 765.131 54.6869 761.304Z" fill="#0C315C"/>
<path d="M117.132 823.75C120.207 820.675 124.796 820.036 128.5 821.835C129.47 822.306 130.38 822.944 131.185 823.75C135.066 827.63 135.066 833.922 131.185 837.802C127.305 841.683 121.013 841.683 117.132 837.802C116.327 836.997 115.689 836.087 115.217 835.117C113.419 831.414 114.057 826.825 117.132 823.75Z" fill="#0C315C"/>
<path d="M57.4354 777.302C64.4986 783.348 83.5378 801.653 88.7013 806.816C95.1688 813.284 109.374 828.239 115.217 835.117C113.419 831.414 114.057 826.825 117.132 823.75C120.207 820.675 124.796 820.036 128.5 821.835C121.622 815.991 106.667 801.786 100.199 795.318C95.0356 790.155 76.7308 771.116 70.6853 764.053C72.4458 767.745 71.7973 772.299 68.7398 775.357C65.6823 778.415 61.1279 779.063 57.4354 777.302Z" fill="#0C315C"/>
<path fill-rule="evenodd" clip-rule="evenodd" d="M54.529 775.196C54.6761 775.063 55.6902 775.809 57.4354 777.302L54.529 775.196ZM54.5272 775.197C54.5278 775.197 54.5284 775.196 54.529 775.196C54.5809 775.25 54.6336 775.304 54.6869 775.357C55.51 776.18 56.4415 776.829 57.4354 777.302M115.217 835.117C116.59 836.733 117.267 837.668 117.132 837.802C116.327 836.997 115.689 836.087 115.217 835.117Z" fill="#0C315C"/>
<path fill-rule="evenodd" clip-rule="evenodd" d="M68.5801 761.144C68.5795 761.145 68.5789 761.146 68.5784 761.146C68.4462 761.293 69.1915 762.307 70.6853 764.053C70.2113 763.059 69.5629 762.127 68.7398 761.304C68.6864 761.251 68.6326 761.198 68.5784 761.146M131.185 823.75C131.051 823.884 130.116 823.207 128.5 821.835C129.47 822.306 130.38 822.944 131.185 823.75Z" fill="#0C315C"/>
<rect x="448" y="640.283" width="576" height="255.717" rx="45" fill="#FFC225"/>
<path d="M578.701 829V707.395H615.496C624.626 707.395 632.656 708.605 639.586 711.025C646.516 713.335 651.961 717.185 655.921 722.575C659.991 727.855 662.026 735.115 662.026 744.355C662.026 753.155 660.046 760.415 656.086 766.135C652.126 771.745 646.681 775.98 639.751 778.84C632.931 781.59 625.066 782.965 616.156 782.965H597.841V829H578.701ZM597.841 767.455H614.506C624.076 767.455 631.226 765.585 635.956 761.845C640.686 758.105 643.051 752.275 643.051 744.355C643.051 736.215 640.576 730.605 635.626 727.525C630.676 724.445 623.361 722.905 613.681 722.905H597.841V767.455ZM698.893 829V707.395H738.658C747.018 707.395 754.498 708.55 761.098 710.86C767.698 713.06 772.923 716.745 776.773 721.915C780.623 726.975 782.548 733.905 782.548 742.705C782.548 751.175 780.623 758.16 776.773 763.66C772.923 769.16 767.698 773.285 761.098 776.035C754.498 778.675 747.018 779.995 738.658 779.995H718.033V829H698.893ZM718.033 764.65H736.348C745.148 764.65 751.858 762.835 756.478 759.205C761.208 755.465 763.573 749.965 763.573 742.705C763.573 735.335 761.208 730.22 756.478 727.36C751.858 724.39 745.148 722.905 736.348 722.905H718.033V764.65ZM765.223 829L735.028 774.88L749.218 763.825L786.838 829H765.223ZM820.374 829V707.395H892.149V723.565H839.514V757.39H884.064V773.56H839.514V812.665H893.964V829H820.374Z" fill="black"/>
<path d="M578.701 829H575.701V832H578.701V829ZM578.701 707.395V704.395H575.701V707.395H578.701ZM639.586 711.025L638.596 713.857L638.617 713.864L638.637 713.871L639.586 711.025ZM655.921 722.575L653.503 724.351L653.523 724.379L653.544 724.407L655.921 722.575ZM656.086 766.135L658.536 767.865L658.544 767.854L658.552 767.843L656.086 766.135ZM639.751 778.84L640.872 781.622L640.884 781.618L640.895 781.613L639.751 778.84ZM597.841 782.965V779.965H594.841V782.965H597.841ZM597.841 829V832H600.841V829H597.841ZM597.841 767.455H594.841V770.455H597.841V767.455ZM635.956 761.845L637.816 764.198L635.956 761.845ZM635.626 727.525L637.21 724.978L635.626 727.525ZM597.841 722.905V719.905H594.841V722.905H597.841ZM581.701 829V707.395H575.701V829H581.701ZM578.701 710.395H615.496V704.395H578.701V710.395ZM615.496 710.395C624.368 710.395 632.051 711.572 638.596 713.857L640.575 708.193C633.26 705.638 624.883 704.395 615.496 704.395V710.395ZM638.637 713.871C645.035 716.004 649.944 719.507 653.503 724.351L658.338 720.799C653.977 714.863 647.996 710.666 640.534 708.179L638.637 713.871ZM653.544 724.407C657.079 728.992 659.026 735.526 659.026 744.355H665.026C665.026 734.704 662.902 726.718 658.297 720.743L653.544 724.407ZM659.026 744.355C659.026 752.707 657.15 759.328 653.619 764.427L658.552 767.843C662.941 761.502 665.026 753.603 665.026 744.355H659.026ZM653.635 764.405C650.032 769.508 645.061 773.403 638.606 776.067L640.895 781.613C648.3 778.557 654.219 773.982 658.536 767.865L653.635 764.405ZM638.629 776.058C632.232 778.637 624.76 779.965 616.156 779.965V785.965C625.371 785.965 633.629 784.543 640.872 781.622L638.629 776.058ZM616.156 779.965H597.841V785.965H616.156V779.965ZM594.841 782.965V829H600.841V782.965H594.841ZM597.841 826H578.701V832H597.841V826ZM597.841 770.455H614.506V764.455H597.841V770.455ZM614.506 770.455C624.38 770.455 632.325 768.54 637.816 764.198L634.095 759.492C630.126 762.63 623.771 764.455 614.506 764.455V770.455ZM637.816 764.198C643.479 759.721 646.051 752.882 646.051 744.355H640.051C640.051 751.668 637.893 756.489 634.095 759.492L637.816 764.198ZM646.051 744.355C646.051 735.632 643.367 728.808 637.21 724.978L634.041 730.072C637.784 732.402 640.051 736.798 640.051 744.355H646.051ZM637.21 724.978C631.566 721.466 623.59 719.905 613.681 719.905V725.905C623.131 725.905 629.785 727.424 634.041 730.072L637.21 724.978ZM613.681 719.905H597.841V725.905H613.681V719.905ZM594.841 722.905V767.455H600.841V722.905H594.841ZM698.893 829H695.893V832H698.893V829ZM698.893 707.395V704.395H695.893V707.395H698.893ZM761.098 710.86L760.107 713.692L760.128 713.699L760.149 713.706L761.098 710.86ZM776.773 721.915L774.367 723.707L774.376 723.719L774.385 723.732L776.773 721.915ZM776.773 763.66L774.315 761.94V761.94L776.773 763.66ZM761.098 776.035L762.212 778.82L762.232 778.812L762.252 778.804L761.098 776.035ZM718.033 779.995V776.995H715.033V779.995H718.033ZM718.033 829V832H721.033V829H718.033ZM718.033 764.65H715.033V767.65H718.033V764.65ZM756.478 759.205L758.331 761.564L758.338 761.558L756.478 759.205ZM756.478 727.36L754.855 729.884L754.89 729.906L754.925 729.927L756.478 727.36ZM718.033 722.905V719.905H715.033V722.905H718.033ZM765.223 829L762.603 830.462L763.461 832H765.223V829ZM735.028 774.88L733.184 772.513L731.154 774.095L732.408 776.342L735.028 774.88ZM749.218 763.825L751.816 762.325L750.093 759.34L747.374 761.458L749.218 763.825ZM786.838 829V832H792.033L789.436 827.5L786.838 829ZM701.893 829V707.395H695.893V829H701.893ZM698.893 710.395H738.658V704.395H698.893V710.395ZM738.658 710.395C746.744 710.395 753.881 711.512 760.107 713.692L762.089 708.028C755.115 705.588 747.291 704.395 738.658 704.395V710.395ZM760.149 713.706C766.215 715.728 770.913 719.069 774.367 723.707L779.179 720.123C774.933 714.421 769.18 710.392 762.046 708.014L760.149 713.706ZM774.385 723.732C777.71 728.102 779.548 734.314 779.548 742.705H785.548C785.548 733.496 783.535 725.848 779.16 720.098L774.385 723.732ZM779.548 742.705C779.548 750.721 777.729 757.062 774.315 761.94L779.23 765.38C783.516 759.258 785.548 751.629 785.548 742.705H779.548ZM774.315 761.94C770.813 766.943 766.054 770.72 759.944 773.266L762.252 778.804C769.341 775.85 775.033 771.377 779.23 765.38L774.315 761.94ZM759.984 773.25C753.794 775.725 746.702 776.995 738.658 776.995V782.995C747.333 782.995 755.201 781.625 762.212 778.82L759.984 773.25ZM738.658 776.995H718.033V782.995H738.658V776.995ZM715.033 779.995V829H721.033V779.995H715.033ZM718.033 826H698.893V832H718.033V826ZM718.033 767.65H736.348V761.65H718.033V767.65ZM736.348 767.65C745.5 767.65 752.977 765.771 758.331 761.564L754.624 756.846C750.739 759.899 744.796 761.65 736.348 761.65V767.65ZM758.338 761.558C763.937 757.132 766.573 750.674 766.573 742.705H760.573C760.573 749.256 758.479 753.798 754.617 756.852L758.338 761.558ZM766.573 742.705C766.573 734.68 763.952 728.373 758.03 724.793L754.925 729.927C758.464 732.067 760.573 735.99 760.573 742.705H766.573ZM758.1 724.836C752.786 721.42 745.408 719.905 736.348 719.905V725.905C744.888 725.905 750.93 727.36 754.855 729.884L758.1 724.836ZM736.348 719.905H718.033V725.905H736.348V719.905ZM715.033 722.905V764.65H721.033V722.905H715.033ZM767.843 827.538L737.648 773.418L732.408 776.342L762.603 830.462L767.843 827.538ZM736.871 777.247L751.061 766.192L747.374 761.458L733.184 772.513L736.871 777.247ZM746.619 765.325L784.239 830.5L789.436 827.5L751.816 762.325L746.619 765.325ZM786.838 826H765.223V832H786.838V826ZM820.374 829H817.374V832H820.374V829ZM820.374 707.395V704.395H817.374V707.395H820.374ZM892.149 707.395H895.149V704.395H892.149V707.395ZM892.149 723.565V726.565H895.149V723.565H892.149ZM839.514 723.565V720.565H836.514V723.565H839.514ZM839.514 757.39H836.514V760.39H839.514V757.39ZM884.064 757.39H887.064V754.39H884.064V757.39ZM884.064 773.56V776.56H887.064V773.56H884.064ZM839.514 773.56V770.56H836.514V773.56H839.514ZM839.514 812.665H836.514V815.665H839.514V812.665ZM893.964 812.665H896.964V809.665H893.964V812.665ZM893.964 829V832H896.964V829H893.964ZM823.374 829V707.395H817.374V829H823.374ZM820.374 710.395H892.149V704.395H820.374V710.395ZM889.149 707.395V723.565H895.149V707.395H889.149ZM892.149 720.565H839.514V726.565H892.149V720.565ZM836.514 723.565V757.39H842.514V723.565H836.514ZM839.514 760.39H884.064V754.39H839.514V760.39ZM881.064 757.39V773.56H887.064V757.39H881.064ZM884.064 770.56H839.514V776.56H884.064V770.56ZM836.514 773.56V812.665H842.514V773.56H836.514ZM839.514 815.665H893.964V809.665H839.514V815.665ZM890.964 812.665V829H896.964V812.665H890.964ZM893.964 826H820.374V832H893.964V826Z" fill="black"/>
</g>
<defs>
<filter id="filter0_d_544_166" x="-110" y="241.448" width="790" height="616.266" filterUnits="userSpaceOnUse" color-interpolation-filters="sRGB">
<feFlood flood-opacity="0" result="BackgroundImageFix"/>
<feColorMatrix in="SourceAlpha" type="matrix" values="0 0 0 0 0 0 0 0 0 0 0 0 0 0 0 0 0 0 127 0" result="hardAlpha"/>
<feOffset dy="40"/>
<feGaussianBlur stdDeviation="20"/>
<feComposite in2="hardAlpha" operator="out"/>
<feColorMatrix type="matrix" values="0 0 0 0 0.0272918 0 0 0 0 0.141371 0 0 0 0 0.545833 0 0 0 0.24 0"/>
<feBlend mode="normal" in2="BackgroundImageFix" result="effect1_dropShadow_544_166"/>
<feBlend mode="normal" in="SourceGraphic" in2="effect1_dropShadow_544_166" result="shape"/>
</filter>
<linearGradient id="paint0_linear_544_166" x1="-277.854" y1="3.45945" x2="927.336" y2="615.509" gradientUnits="userSpaceOnUse">
<stop stop-color="#83E5FF"/>
<stop offset="1" stop-color="#09A9FF"/>
</linearGradient>
<linearGradient id="paint1_linear_544_166" x1="-6.06122e-06" y1="-60.4422" x2="1172.26" y2="1011.12" gradientUnits="userSpaceOnUse">
<stop offset="0.0188061" stop-color="#0986DF"/>
<stop offset="0.360044" stop-color="#0962BC"/>
<stop offset="0.870054" stop-color="#0A428C"/>
</linearGradient>
<linearGradient id="paint2_linear_544_166" x1="0.16987" y1="128" x2="919.735" y2="1043.74" gradientUnits="userSpaceOnUse">
<stop stop-color="#0091FF"/>
<stop offset="1" stop-color="#0038FF"/>
</linearGradient>
<linearGradient id="paint3_linear_544_166" x1="512" y1="128" x2="512" y2="896" gradientUnits="userSpaceOnUse">
<stop stop-color="#0085FF"/>
<stop offset="1" stop-color="#0085FF" stop-opacity="0"/>
</linearGradient>
<linearGradient id="paint4_linear_544_166" x1="512" y1="128" x2="512" y2="896" gradientUnits="userSpaceOnUse">
<stop stop-color="#00C2FF"/>
<stop offset="1" stop-color="#00D1FF" stop-opacity="0"/>
</linearGradient>
<linearGradient id="paint5_linear_544_166" x1="0.169883" y1="128" x2="925.465" y2="1000.31" gradientUnits="userSpaceOnUse">
<stop stop-color="#F3FAFF"/>
<stop offset="1" stop-color="white" stop-opacity="0"/>
</linearGradient>
<linearGradient id="paint6_linear_544_166" x1="284.972" y1="241.448" x2="284.972" y2="620.719" gradientUnits="userSpaceOnUse">
<stop stop-color="#D3DFE6"/>
<stop offset="1" stop-color="#7B9CC2"/>
</linearGradient>
<linearGradient id="paint7_linear_544_166" x1="284.972" y1="241.448" x2="284.972" y2="620.719" gradientUnits="userSpaceOnUse">
<stop stop-color="#D3DFE6"/>
<stop offset="1" stop-color="#7B9CC2"/>
</linearGradient>
<linearGradient id="paint8_linear_544_166" x1="284.972" y1="241.448" x2="284.972" y2="620.719" gradientUnits="userSpaceOnUse">
<stop stop-color="#D3DFE6"/>
<stop offset="1" stop-color="#7B9CC2"/>
</linearGradient>
<linearGradient id="paint9_linear_544_166" x1="-376.035" y1="510.758" x2="1193.92" y2="988.172" gradientUnits="userSpaceOnUse">
<stop offset="0.141087" stop-color="#09A9FF"/>
<stop offset="0.862925" stop-color="#0962BC"/>
<stop offset="1" stop-color="#0A428C"/>
</linearGradient>
<linearGradient id="paint10_linear_544_166" x1="-376.035" y1="510.758" x2="1193.92" y2="988.172" gradientUnits="userSpaceOnUse">
<stop offset="0.141087" stop-color="#09A9FF"/>
<stop offset="0.862925" stop-color="#0962BC"/>
<stop offset="1" stop-color="#0A428C"/>
</linearGradient>
<linearGradient id="paint11_linear_544_166" x1="-376.035" y1="510.758" x2="1193.92" y2="988.172" gradientUnits="userSpaceOnUse">
<stop offset="0.141087" stop-color="#09A9FF"/>
<stop offset="0.862925" stop-color="#0962BC"/>
<stop offset="1" stop-color="#0A428C"/>
</linearGradient>
<clipPath id="clip0_544_166">
<rect width="1024" height="1024" fill="white"/>
</clipPath>
</defs>
</svg>
