<svg width="1024" height="1024" viewBox="0 0 1024 1024" fill="none" xmlns="http://www.w3.org/2000/svg">
<g clip-path="url(#clip0_536_2)">
<rect opacity="0.4" y="128" width="1024" height="768" rx="40" fill="url(#paint0_linear_536_2)"/>
<rect y="128" width="1024" height="768" rx="40" fill="url(#paint1_linear_536_2)"/>
<rect y="128" width="1024" height="768" rx="40" fill="white" fill-opacity="0.2" style="mix-blend-mode:soft-light"/>
<g opacity="0.5">
<rect y="128" width="1024" height="768" rx="40" fill="url(#paint2_linear_536_2)"/>
<rect y="128" width="1024" height="768" rx="40" fill="url(#paint3_linear_536_2)" fill-opacity="0.45"/>
<rect y="128" width="1024" height="768" rx="40" fill="url(#paint4_linear_536_2)" fill-opacity="0.3"/>
<rect y="128" width="1024" height="768" rx="40" fill="#FF0000" style="mix-blend-mode:saturation"/>
</g>
<g opacity="0.15">
<rect y="128" width="1024" height="768" rx="40" fill="#FF0000" style="mix-blend-mode:saturation"/>
<rect y="128" width="1024" height="768" rx="40" fill="url(#paint5_linear_536_2)"/>
</g>
<path d="M0 704H1024V856C1024 878.091 1006.09 896 984 896H40C17.9086 896 0 878.091 0 856V704Z" fill="black" fill-opacity="0.25" style="mix-blend-mode:multiply"/>
<g filter="url(#filter0_d_536_2)">
<path d="M463.263 521.208L313.03 443.685C294.6 434.159 272.679 434.159 254.249 443.685L189.512 477.091L376.358 580.895L463.263 536.05C469.337 532.944 469.337 524.315 463.263 521.208Z" fill="url(#paint6_linear_536_2)"/>
<path d="M463.263 521.208L313.03 443.685C294.6 434.159 272.679 434.159 254.249 443.685L189.512 477.091L376.358 580.895L463.263 536.05C469.337 532.944 469.337 524.315 463.263 521.208Z" fill="white" fill-opacity="0.55" style="mix-blend-mode:overlay"/>
<path d="M313.03 443.685L463.263 521.208C469.337 524.315 469.337 532.944 463.263 536.05L376.358 580.895L376.81 581.146L542.069 495.456L303.362 373.043L156.466 458.732L189.512 477.091L254.249 443.685C272.679 434.159 294.6 434.159 313.03 443.685Z" fill="url(#paint7_linear_536_2)"/>
<path d="M313.03 443.685L463.263 521.208C469.337 524.315 469.337 532.944 463.263 536.05L376.358 580.895L376.81 581.146L542.069 495.456L303.362 373.043L156.466 458.732L189.512 477.091L254.249 443.685C272.679 434.159 294.6 434.159 313.03 443.685Z" fill="white" fill-opacity="0.55" style="mix-blend-mode:overlay"/>
<path d="M626.795 408.393L325.466 251.353C300.115 238.146 269.906 238.146 244.479 251.353L-56.8501 408.393C-74.3833 417.577 -74.3833 442.625 -56.8501 451.809L101.931 534.559C98.0486 530.764 98.7439 523.905 104.017 521.208L189.512 477.091L156.466 458.732L303.362 373.043L542.069 495.456L376.81 581.146L376.358 580.895L313.03 613.574C311.896 614.16 310.748 614.711 309.588 615.225C315.022 613.636 320.341 611.511 325.466 608.849L626.795 451.809C644.328 442.625 644.328 417.577 626.795 408.393Z" fill="url(#paint8_linear_536_2)"/>
<path d="M626.795 408.393L325.466 251.353C300.115 238.146 269.906 238.146 244.479 251.353L-56.8501 408.393C-74.3833 417.577 -74.3833 442.625 -56.8501 451.809L101.931 534.559C98.0486 530.764 98.7439 523.905 104.017 521.208L189.512 477.091L156.466 458.732L303.362 373.043L542.069 495.456L376.81 581.146L376.358 580.895L313.03 613.574C311.896 614.16 310.748 614.711 309.588 615.225C315.022 613.636 320.341 611.511 325.466 608.849L626.795 451.809C644.328 442.625 644.328 417.577 626.795 408.393Z" fill="white" fill-opacity="0.55" style="mix-blend-mode:overlay"/>
<path d="M277.191 601.641C282.124 604.146 287.893 604.146 292.826 601.641L355.664 569.398L189.512 477.091L112.204 516.983L277.191 601.641Z" fill="url(#paint9_linear_536_2)"/>
<path fill-rule="evenodd" clip-rule="evenodd" d="M-69.9828 423.5L-69.2169 423.893C-69.6616 425.623 -69.9169 427.395 -69.9828 429.173V423.5ZM-69.9828 429.173C-70.0057 429.791 -70.0057 430.41 -69.9828 431.029V429.173ZM377.63 581.663L355.664 569.398L292.826 601.641C287.893 604.146 282.124 604.146 277.191 601.641L112.204 516.983L90.4273 528.564C85.1547 531.26 98.0487 530.764 101.931 534.559L-56.8501 451.809C-65.2998 447.383 -69.6774 439.272 -69.9828 431.029V584.184C-69.9828 597.391 -62.6204 609.459 -50.9315 615.455L248.045 768.776C271.27 780.693 298.899 780.693 322.2 768.776L620.949 615.455C632.638 609.459 640 597.391 640 584.26V423.5L639.17 423.926C641.815 434.271 637.69 446.102 626.795 451.809L325.466 608.849C320.341 611.511 315.023 613.636 309.588 615.225C310.748 614.711 324.331 609.435 325.466 608.849L377.63 581.663Z" fill="url(#paint10_linear_536_2)"/>
<path d="M325.466 608.849C324.331 609.435 310.748 614.711 309.588 615.225C315.023 613.636 320.341 611.511 325.466 608.849Z" fill="url(#paint11_linear_536_2)"/>
<path d="M277.191 601.641C282.124 604.146 287.893 604.146 292.826 601.641L355.664 569.398L189.512 477.091L112.204 516.983L277.191 601.641Z" fill="#ACC1D8"/>
<path fill-rule="evenodd" clip-rule="evenodd" d="M-69.9828 423.5L-69.2169 423.893C-69.6616 425.623 -69.9169 427.395 -69.9828 429.173V423.5ZM-69.9828 429.173C-70.0057 429.791 -70.0057 430.41 -69.9828 431.029V429.173ZM377.63 581.663L355.664 569.398L292.826 601.641C287.893 604.146 282.124 604.146 277.191 601.641L112.204 516.983L90.4273 528.564C85.1547 531.26 98.0487 530.764 101.931 534.559L-56.8501 451.809C-65.2998 447.383 -69.6774 439.272 -69.9828 431.029V584.184C-69.9828 597.391 -62.6204 609.459 -50.9315 615.455L248.045 768.776C271.27 780.693 298.899 780.693 322.2 768.776L620.949 615.455C632.638 609.459 640 597.391 640 584.26V423.5L639.17 423.926C641.815 434.271 637.69 446.102 626.795 451.809L325.466 608.849C320.341 611.511 315.023 613.636 309.588 615.225C310.748 614.711 324.331 609.435 325.466 608.849L377.63 581.663Z" fill="#ACC1D8"/>
<path d="M325.466 608.849C324.331 609.435 310.748 614.711 309.588 615.225C315.023 613.636 320.341 611.511 325.466 608.849Z" fill="#ACC1D8"/>
</g>
<path d="M61.7376 757.403C67.1501 757.403 71.5519 761.731 71.6719 767.114C71.6736 767.189 71.6745 767.265 71.6745 767.34C71.6745 768.504 71.4743 769.621 71.1066 770.659C69.7405 774.515 66.0616 777.277 61.7376 777.277C57.4135 777.277 53.7346 774.515 52.3685 770.659C52.0008 769.621 51.8007 768.504 51.8007 767.34C51.8007 767.265 51.8015 767.189 51.8032 767.114C51.9232 761.731 56.325 757.403 61.7376 757.403Z" fill="#0C315C"/>
<path d="M61.7376 827.391C66.0863 827.391 69.7826 830.185 71.1298 834.075C71.4827 835.095 71.6745 836.189 71.6745 837.328C71.6745 842.816 67.2256 847.265 61.7376 847.265C56.2496 847.265 51.8007 842.816 51.8007 837.328C51.8007 836.189 51.9924 835.095 52.3453 834.075C53.6925 830.185 57.3888 827.391 61.7376 827.391Z" fill="#0C315C"/>
<path d="M52.3685 770.659C53.0881 779.929 53.6074 793.688 53.6074 800.99C53.6074 810.137 53.077 825.08 52.3453 834.075C53.6925 830.185 57.3888 827.391 61.7376 827.391C66.0863 827.391 69.7826 830.185 71.1298 834.075C70.3982 825.08 69.8678 810.137 69.8678 800.99C69.8678 793.688 70.387 779.929 71.1066 770.659C69.7405 774.515 66.0616 777.277 61.7376 777.277C57.4135 777.277 53.7346 774.515 52.3685 770.659Z" fill="#0C315C"/>
<path fill-rule="evenodd" clip-rule="evenodd" d="M51.8032 767.114C52.0007 767.125 52.1907 768.369 52.3685 770.659L51.8032 767.114ZM51.8007 767.114C51.8015 767.114 51.8023 767.114 51.8032 767.114C51.8015 767.189 51.8007 767.265 51.8007 767.34C51.8007 768.504 52.0008 769.621 52.3685 770.659M52.3453 834.075C52.1735 836.189 51.9905 837.328 51.8007 837.328C51.8007 836.189 51.9924 835.095 52.3453 834.075Z" fill="#0C315C"/>
<path fill-rule="evenodd" clip-rule="evenodd" d="M71.6745 767.114C71.6736 767.114 71.6728 767.114 71.6719 767.114C71.4745 767.125 71.2844 768.369 71.1066 770.659C71.4743 769.621 71.6745 768.504 71.6745 767.34C71.6745 767.265 71.6736 767.189 71.6719 767.114M71.6745 837.328C71.4847 837.328 71.3017 836.189 71.1298 834.075C71.4827 835.095 71.6745 836.189 71.6745 837.328Z" fill="#0C315C"/>
<path d="M125.882 757.403C131.295 757.403 135.696 761.731 135.817 767.114C135.818 767.189 135.819 767.265 135.819 767.34C135.819 768.504 135.619 769.621 135.251 770.659C133.885 774.515 130.206 777.277 125.882 777.277C121.558 777.277 117.879 774.515 116.513 770.659C116.145 769.621 115.945 768.504 115.945 767.34C115.945 767.265 115.946 767.189 115.948 767.114C116.068 761.731 120.47 757.403 125.882 757.403Z" fill="#0C315C"/>
<path d="M125.882 827.391C130.231 827.391 133.927 830.185 135.274 834.075C135.627 835.095 135.819 836.189 135.819 837.328C135.819 842.816 131.37 847.265 125.882 847.265C120.394 847.265 115.945 842.816 115.945 837.328C115.945 836.189 116.137 835.095 116.49 834.075C117.837 830.185 121.533 827.391 125.882 827.391Z" fill="#0C315C"/>
<path d="M116.513 770.659C117.233 779.929 117.752 793.688 117.752 800.99C117.752 810.137 117.222 825.08 116.49 834.075C117.837 830.185 121.533 827.391 125.882 827.391C130.231 827.391 133.927 830.185 135.274 834.075C134.543 825.08 134.012 810.137 134.012 800.99C134.012 793.688 134.532 779.929 135.251 770.659C133.885 774.515 130.206 777.277 125.882 777.277C121.558 777.277 117.879 774.515 116.513 770.659Z" fill="#0C315C"/>
<path fill-rule="evenodd" clip-rule="evenodd" d="M115.948 767.114C116.145 767.125 116.335 768.369 116.513 770.659L115.948 767.114ZM115.945 767.114C115.946 767.114 115.947 767.114 115.948 767.114C115.946 767.189 115.945 767.265 115.945 767.34C115.945 768.504 116.145 769.621 116.513 770.659M116.49 834.075C116.318 836.189 116.135 837.328 115.945 837.328C115.945 836.189 116.137 835.095 116.49 834.075Z" fill="#0C315C"/>
<path fill-rule="evenodd" clip-rule="evenodd" d="M135.819 767.114C135.818 767.114 135.817 767.114 135.817 767.114C135.619 767.125 135.429 768.369 135.251 770.659C135.619 769.621 135.819 768.504 135.819 767.34C135.819 767.265 135.818 767.189 135.817 767.114M135.819 837.328C135.629 837.328 135.446 836.189 135.274 834.075C135.627 835.095 135.819 836.189 135.819 837.328Z" fill="#0C315C"/>
<path d="M54.6869 761.304C58.5142 757.477 64.6867 757.424 68.5784 761.146C68.6327 761.198 68.6865 761.251 68.7398 761.304C69.5629 762.127 70.2114 763.059 70.6853 764.053C72.4459 767.745 71.7974 772.299 68.7398 775.357C65.6823 778.415 61.128 779.063 57.4355 777.302C56.4415 776.829 55.51 776.18 54.6869 775.357C54.6336 775.304 54.581 775.25 54.5291 775.196C50.8071 771.304 50.8597 765.131 54.6869 761.304Z" fill="#0C315C"/>
<path d="M117.132 823.75C120.208 820.675 124.797 820.036 128.5 821.835C129.47 822.306 130.38 822.944 131.185 823.75C135.066 827.63 135.066 833.922 131.185 837.802C127.305 841.683 121.013 841.683 117.132 837.802C116.327 836.997 115.689 836.087 115.217 835.117C113.419 831.414 114.057 826.825 117.132 823.75Z" fill="#0C315C"/>
<path d="M57.4355 777.302C64.4987 783.348 83.5378 801.653 88.7013 806.816C95.1689 813.284 109.374 828.239 115.217 835.117C113.419 831.414 114.057 826.825 117.132 823.75C120.208 820.675 124.797 820.036 128.5 821.835C121.622 815.991 106.667 801.786 100.199 795.318C95.0357 790.155 76.7308 771.116 70.6853 764.053C72.4459 767.745 71.7974 772.299 68.7398 775.357C65.6823 778.415 61.128 779.063 57.4355 777.302Z" fill="#0C315C"/>
<path fill-rule="evenodd" clip-rule="evenodd" d="M54.5291 775.196C54.6761 775.063 55.6902 775.809 57.4355 777.302L54.5291 775.196ZM54.5273 775.197C54.5278 775.197 54.5285 775.196 54.5291 775.196C54.581 775.25 54.6336 775.304 54.6869 775.357C55.51 776.18 56.4415 776.829 57.4355 777.302M115.217 835.117C116.59 836.733 117.267 837.668 117.132 837.802C116.327 836.997 115.689 836.087 115.217 835.117Z" fill="#0C315C"/>
<path fill-rule="evenodd" clip-rule="evenodd" d="M68.5801 761.144C68.5796 761.145 68.579 761.146 68.5784 761.146C68.4462 761.293 69.1915 762.307 70.6853 764.053C70.2114 763.059 69.5629 762.127 68.7398 761.304C68.6865 761.251 68.6327 761.198 68.5784 761.146M131.185 823.75C131.051 823.884 130.116 823.207 128.5 821.835C129.47 822.306 130.38 822.944 131.185 823.75Z" fill="#0C315C"/>
</g>
<defs>
<filter id="filter0_d_536_2" x="-110" y="241.448" width="790" height="616.266" filterUnits="userSpaceOnUse" color-interpolation-filters="sRGB">
<feFlood flood-opacity="0" result="BackgroundImageFix"/>
<feColorMatrix in="SourceAlpha" type="matrix" values="0 0 0 0 0 0 0 0 0 0 0 0 0 0 0 0 0 0 127 0" result="hardAlpha"/>
<feOffset dy="40"/>
<feGaussianBlur stdDeviation="20"/>
<feComposite in2="hardAlpha" operator="out"/>
<feColorMatrix type="matrix" values="0 0 0 0 0.0272918 0 0 0 0 0.141371 0 0 0 0 0.545833 0 0 0 0.24 0"/>
<feBlend mode="normal" in2="BackgroundImageFix" result="effect1_dropShadow_536_2"/>
<feBlend mode="normal" in="SourceGraphic" in2="effect1_dropShadow_536_2" result="shape"/>
</filter>
<linearGradient id="paint0_linear_536_2" x1="-277.854" y1="3.45945" x2="927.336" y2="615.509" gradientUnits="userSpaceOnUse">
<stop stop-color="#83E5FF"/>
<stop offset="1" stop-color="#09A9FF"/>
</linearGradient>
<linearGradient id="paint1_linear_536_2" x1="-6.06122e-06" y1="-60.4422" x2="1172.26" y2="1011.12" gradientUnits="userSpaceOnUse">
<stop offset="0.0188061" stop-color="#0986DF"/>
<stop offset="0.360044" stop-color="#0962BC"/>
<stop offset="0.870054" stop-color="#0A428C"/>
</linearGradient>
<linearGradient id="paint2_linear_536_2" x1="0.16987" y1="128" x2="919.735" y2="1043.74" gradientUnits="userSpaceOnUse">
<stop stop-color="#0091FF"/>
<stop offset="1" stop-color="#0038FF"/>
</linearGradient>
<linearGradient id="paint3_linear_536_2" x1="512" y1="128" x2="512" y2="896" gradientUnits="userSpaceOnUse">
<stop stop-color="#0085FF"/>
<stop offset="1" stop-color="#0085FF" stop-opacity="0"/>
</linearGradient>
<linearGradient id="paint4_linear_536_2" x1="512" y1="128" x2="512" y2="896" gradientUnits="userSpaceOnUse">
<stop stop-color="#00C2FF"/>
<stop offset="1" stop-color="#00D1FF" stop-opacity="0"/>
</linearGradient>
<linearGradient id="paint5_linear_536_2" x1="0.169883" y1="128" x2="925.465" y2="1000.31" gradientUnits="userSpaceOnUse">
<stop stop-color="#F3FAFF"/>
<stop offset="1" stop-color="white" stop-opacity="0"/>
</linearGradient>
<linearGradient id="paint6_linear_536_2" x1="284.972" y1="241.448" x2="284.972" y2="620.719" gradientUnits="userSpaceOnUse">
<stop stop-color="#D3DFE6"/>
<stop offset="1" stop-color="#7B9CC2"/>
</linearGradient>
<linearGradient id="paint7_linear_536_2" x1="284.972" y1="241.448" x2="284.972" y2="620.719" gradientUnits="userSpaceOnUse">
<stop stop-color="#D3DFE6"/>
<stop offset="1" stop-color="#7B9CC2"/>
</linearGradient>
<linearGradient id="paint8_linear_536_2" x1="284.972" y1="241.448" x2="284.972" y2="620.719" gradientUnits="userSpaceOnUse">
<stop stop-color="#D3DFE6"/>
<stop offset="1" stop-color="#7B9CC2"/>
</linearGradient>
<linearGradient id="paint9_linear_536_2" x1="-376.035" y1="510.758" x2="1193.92" y2="988.172" gradientUnits="userSpaceOnUse">
<stop offset="0.141087" stop-color="#09A9FF"/>
<stop offset="0.862925" stop-color="#0962BC"/>
<stop offset="1" stop-color="#0A428C"/>
</linearGradient>
<linearGradient id="paint10_linear_536_2" x1="-376.035" y1="510.758" x2="1193.92" y2="988.172" gradientUnits="userSpaceOnUse">
<stop offset="0.141087" stop-color="#09A9FF"/>
<stop offset="0.862925" stop-color="#0962BC"/>
<stop offset="1" stop-color="#0A428C"/>
</linearGradient>
<linearGradient id="paint11_linear_536_2" x1="-376.035" y1="510.758" x2="1193.92" y2="988.172" gradientUnits="userSpaceOnUse">
<stop offset="0.141087" stop-color="#09A9FF"/>
<stop offset="0.862925" stop-color="#0962BC"/>
<stop offset="1" stop-color="#0A428C"/>
</linearGradient>
<clipPath id="clip0_536_2">
<rect width="1024" height="1024" fill="white"/>
</clipPath>
</defs>
</svg>
