<svg width="1024" height="1024" viewBox="0 0 1024 1024" fill="none" xmlns="http://www.w3.org/2000/svg">
<g clip-path="url(#clip0_516_21)">
<path d="M1024 132V698C1022.17 698.02 1020.33 698.06 1018.5 698.06C971.51 698.06 924.52 698.06 877.53 698.06C801.05 698.06 724.56 698.06 648.08 698.06C646.28 698.06 644.49 697.97 642.69 697.92C661.02 687.72 679.48 678.54 697.66 668.83C722.22 655.71 735.57 634.89 735.83 607.13C736.37 548.65 735.98 490.16 736.02 431.67C736.02 426.57 735.09 421.66 732.75 417.19C730.29 412.48 727.55 407.87 724.5 403.53C719.65 396.62 713.34 391.14 705.91 387.14C694.48 381 682.93 375.08 671.43 369.08C645.76 355.71 620.08 342.36 594.41 328.99C568.74 315.62 543.08 302.22 517.41 288.84C491.45 275.3 465.49 261.77 439.53 248.24C419.76 237.94 399.92 227.79 380.25 217.31C365.26 209.32 349.6 203.75 332.67 201.76C307.54 198.8 283.51 202.48 260.9 213.9C238.33 225.31 215.96 237.1 193.54 248.78C160.05 266.23 126.59 283.73 93.11 301.2C66.12 315.28 39.13 329.38 12.11 343.4C8.16 345.45 4.04 347.14 0 349C0 276.67 0 204.33 0 132C0.3 131.26 0.73 130.55 0.87 129.78C3.39 115.61 10.12 103.89 21.23 94.7301C32.64 85.3201 45.88 81.3701 60.56 81.3701C361.52 81.4101 662.48 81.4001 963.45 81.4101C966.11 81.4101 968.77 81.6101 971.43 81.8301C995.09 83.8001 1016.62 100.85 1022.79 127.29C1023.16 128.87 1023.6 130.43 1024.01 131.99L1024 132Z" fill="white"/>
<path d="M-1.95317e-05 762C36.65 762.02 73.3 762.11 109.95 762C115.41 761.98 120.21 763.02 125.14 765.59C155.68 781.48 186.38 797.06 217.01 812.76C231.81 820.34 246.58 827.99 261.38 835.58C281.87 846.08 303.63 850.56 326.56 848.87C341.46 847.77 355.8 844.12 369.17 837.37C394.11 824.77 418.93 811.93 443.8 799.19C466.74 787.44 489.71 775.72 512.61 763.89C515.24 762.53 517.83 762.06 520.72 762.06C580.86 762.1 641 762.09 701.14 762.09C806.76 762.09 912.38 762.09 1018 762.09C1020 762.09 1022 762.05 1024 762.02V892.02C1023.7 892.76 1023.27 893.47 1023.13 894.24C1020.61 908.41 1013.88 920.13 1002.77 929.29C991.36 938.7 978.12 942.65 963.44 942.65C662.48 942.62 361.52 942.63 60.55 942.61C57.89 942.61 55.23 942.41 52.57 942.19C28.97 940.24 7.38998 923.22 1.19998 896.73C0.82998 895.15 0.38998 893.59 -0.0200195 892.03C-0.0200195 848.7 -0.0200195 805.36 -0.0200195 762.03L-1.95317e-05 762ZM117.61 855.56C116.05 854.25 115.15 853.59 114.37 852.81C104 842.45 93.45 832.25 83.38 821.61C78.62 816.58 73.18 812.02 69.98 805.62C69.49 804.63 68.49 803.8 67.55 803.14C64.5 800.98 61.21 800.31 57.71 802.06C54.37 803.73 52.14 806.24 51.99 810.14C51.92 811.96 51.99 813.8 52.13 815.62C52.37 818.75 52.78 821.87 52.98 825C53.21 828.65 53.36 832.32 53.4 835.98C53.46 842.3 53.59 848.62 53.37 854.93C53.06 863.57 52.32 872.2 52 880.84C51.78 886.82 56.06 891.05 61.83 891C67.16 890.96 72.13 885.95 71.82 880.63C71.57 876.34 70.66 872.08 70.52 867.79C70.14 856.36 70.03 844.92 69.8 833.04C70.83 833.66 71.31 833.84 71.65 834.17C85.36 847.07 98.71 860.33 111.19 874.44C113.61 877.18 115.78 879.68 116.43 883.69C117.25 888.82 123.02 891.94 127.88 890.9C132.68 889.87 136.44 884.52 135.94 879.74C135.24 873.15 134.33 866.55 134.18 859.94C133.81 843.99 133.51 828.02 135.91 812.15C136.05 811.2 135.9 810.14 135.66 809.19C134.32 803.85 128.85 800.11 124.11 801.22C118.62 802.5 115.27 807.57 116.06 813.22C116.47 816.16 116.77 819.13 116.99 822.1C117.27 825.75 117.54 829.41 117.59 833.06C117.68 840.2 117.62 847.35 117.62 855.56H117.61Z" fill="white"/>
<path d="M0 422C8.97 417.26 17.92 412.5 26.91 407.8C52.86 394.25 78.83 380.72 104.79 367.19C132.38 352.82 159.96 338.44 187.56 324.08C217.81 308.34 248.06 292.61 278.31 276.86C281.85 275.02 285.29 272.96 288.9 271.28C308.42 262.21 327.9 262.34 347.05 272.22C378.38 288.39 409.62 304.74 440.88 321.05C477.89 340.36 514.87 359.73 551.89 379.03C581.53 394.48 611.22 409.87 640.88 425.29C648.26 429.13 655.61 433.01 662.97 436.89C663.68 437.26 664.32 437.77 665.43 438.51C582.91 481.52 500.79 524.32 418.59 567.16C408.6 561.64 398.7 556.2 388.83 550.7C336.22 521.44 283.58 492.22 231.03 462.84C219.09 456.16 207.58 456.11 195.47 462.51C166.79 477.67 137.91 492.43 109.17 507.47C106.21 509.02 103.96 509.06 100.93 507.47C71.19 491.84 41.36 476.39 11.55 460.89C7.72 458.9 3.86 456.95 0.02 454.98C0.02 443.98 0.02 432.98 0.02 421.98L0 422Z" fill="white"/>
<path d="M0 527C17.7 536.23 35.4 545.46 53.09 554.69C64.74 560.77 76.47 566.71 88.03 572.95C99.74 579.27 111 578.81 122.72 572.61C152.42 556.89 182.32 541.55 212.45 525.9C218.88 529.45 225.42 533.02 231.93 536.64C286.74 567.1 341.55 597.58 396.36 628.04C398.25 629.09 400.14 630.14 402.04 631.17C412.49 636.89 422.99 636.92 433.55 631.44C456.43 619.54 479.32 607.67 502.2 595.76C527.73 582.47 553.25 569.16 578.77 555.85C604.44 542.47 630.11 529.08 655.78 515.7C660.93 513.01 666.09 510.33 671.67 507.43C671.8 508.96 672 510.18 672 511.4C672.02 542.23 671.93 573.06 672.1 603.89C672.13 608.59 670.28 611.15 666.24 613.2C630.95 631.17 595.74 649.27 560.51 667.34C522.47 686.86 484.44 706.4 446.4 725.92C412.36 743.4 378.32 760.88 344.27 778.33C326.05 787.67 307.86 787.43 289.68 778.09C250.91 758.17 212.12 738.3 173.33 718.41C134.1 698.29 94.87 678.18 55.64 658.07C38.62 649.34 21.59 640.61 4.56 631.91C3.1 631.16 1.53 630.62 0.01 629.98C0.01 595.65 0.01 561.31 0.01 526.98L0 527Z" fill="white"/>
</g>
<defs>
<clipPath id="clip0_516_21">
<rect width="1024" height="1024" fill="white"/>
</clipPath>
</defs>
</svg>
