<svg width="1024" height="1024" viewBox="0 0 1024 1024" fill="none" xmlns="http://www.w3.org/2000/svg">
<g clip-path="url(#clip0_516_26)">
<path d="M1024 131.98V892.02C1023.69 892.93 1023.27 893.82 1023.08 894.76C1020.42 908.5 1013.91 919.99 1003.13 928.98C991.63 938.57 978.3 942.61 963.4 942.61C662.46 942.56 361.52 942.57 60.58 942.57C59.58 942.57 58.58 942.58 57.58 942.57C30.72 942.05 8.65 924.67 1.81 898.66C1.23 896.44 0.599998 894.24 -0.0100021 892.03C-0.0100021 848.69 -0.0100021 805.36 -0.0100021 762.02C1.99 762.04 3.99 762.09 5.99 762.09C41.99 762.09 77.98 762.11 113.98 762.06C116.71 762.06 119.14 762.54 121.61 763.82C143.19 774.98 164.83 786.01 186.44 797.1C210.86 809.64 235.29 822.17 259.68 834.77C286.77 848.76 315.15 852.75 344.94 845.98C348.28 845.22 351.56 844.15 354.77 843.25V773.12C351.21 774.89 347.96 776.46 344.76 778.12C325.84 787.92 307.16 787.32 288.35 777.5C260.17 762.8 231.83 748.43 203.55 733.93C174.82 719.21 146.08 704.53 117.35 689.8C79.74 670.52 42.15 651.21 4.54 631.93C3.08 631.18 1.51 630.64 -0.0100021 630C-0.0100021 595.66 -0.0100021 561.33 -0.0100021 526.99C9.87 532.14 19.76 537.29 29.64 542.44C49.7 552.9 69.75 563.39 89.84 573.8C100.22 579.18 110.6 578.85 120.93 573.46C144.23 561.29 167.56 549.16 190.88 537.04C198.09 533.29 205.34 529.61 212.56 525.9C244.74 543.8 276.71 561.6 308.69 579.37C339.81 596.66 370.94 613.95 402.08 631.21C412.33 636.89 422.75 636.98 433.15 631.66C443.67 626.29 454.12 620.77 464.59 615.31C493.81 600.09 523.02 584.86 552.23 569.63C590.88 549.48 629.54 529.32 668.2 509.18C669.28 508.62 670.46 508.23 671.99 507.6C671.99 509.13 671.99 510.11 671.99 511.09C671.99 542.09 671.93 573.09 672.06 604.08C672.08 608.52 670.39 611.08 666.49 613.07C635.51 628.86 604.59 644.79 573.67 660.69C572.62 661.23 571.64 661.91 569.96 662.93C571.51 663.05 572.17 663.15 572.82 663.15C616.48 663.15 660.14 663.14 703.8 663.21C706.34 663.21 708.24 662.4 710.1 660.83C726.86 646.69 735.84 628.67 735.92 606.77C736.14 548.44 735.98 490.11 736.01 431.78C736.01 426.86 735.38 421.99 732.97 417.76C729.45 411.56 725.65 405.46 721.39 399.75C717.27 394.23 711.66 390.16 705.57 386.95C686.58 376.94 667.55 367.02 648.52 357.1C614.88 339.57 581.22 322.09 547.58 304.56C518.37 289.34 489.17 274.08 459.96 258.84C432.67 244.6 405.39 230.37 378.11 216.12C363.82 208.66 348.79 203.61 332.72 201.71C307.4 198.72 283.22 202.51 260.46 214.04C237.9 225.47 215.54 237.28 193.11 248.96C163.3 264.49 133.52 280.06 103.72 295.6C73.33 311.45 42.94 327.31 12.53 343.11C8.45 345.27 4.18 347.05 -2.13645e-06 348.99C-2.13645e-06 276.65 -2.13645e-06 204.32 -2.13645e-06 131.98C0.309998 131.07 0.729998 130.17 0.919998 129.24C3.58 115.5 10.09 104 20.87 95.0201C32.37 85.4301 45.7 81.3901 60.6 81.3901C361.54 81.4401 662.48 81.4301 963.42 81.4301C964.42 81.4301 965.42 81.4201 966.42 81.4301C993.27 81.9501 1015.35 99.3301 1022.19 125.34C1022.77 127.56 1023.4 129.76 1024.01 131.97L1024 131.98ZM715.13 817.32C717.09 816.52 718.78 815.86 720.44 815.15C733.75 809.42 742.97 799.98 746.63 785.72C748.68 777.72 748.66 769.56 747.38 761.42C744.99 746.14 735.97 736.32 721.85 730.85C713.07 727.45 703.9 725.89 694.5 725.86C677.34 725.8 660.19 725.83 643.03 725.86C641.78 725.86 640.53 726.13 639.38 726.27V884.06H664.04V820.5H689.94C701.76 841.63 713.66 862.92 725.45 884.01H753.57C740.59 861.49 727.93 839.52 715.12 817.31L715.13 817.32ZM776.15 883.85C784.18 884.83 868.2 884.48 871.67 883.52V863.01H828.92C824.25 863.01 819.59 863.03 814.92 863.01C810.33 862.99 805.74 862.93 801.26 862.89V811.94H858.74V790.94H839.48C832.98 790.94 826.48 790.97 819.98 790.94C813.72 790.9 807.45 791.13 801.24 790.79V746.86H869.02C870.08 741.24 869.94 729.7 868.9 726.17C859.23 725.24 779.77 725.65 776.14 726.68V883.87L776.15 883.85ZM504.14 725.84V883.77C510.46 884.72 525.05 884.5 528.94 883.32V824.44C530.82 824.34 532.27 824.19 533.73 824.18C542.39 824.12 551.05 824.28 559.71 824C567.73 823.74 575.56 822.13 583.01 819.06C596.65 813.43 606.61 804.23 610.58 789.58C613.01 780.61 613.05 771.45 611.51 762.34C609.1 748.08 600.88 738.18 587.85 732.32C577.21 727.53 565.89 725.86 554.29 725.85C539.14 725.84 523.98 725.85 508.83 725.85H504.15L504.14 725.84ZM69.57 832.61C71.09 833.81 71.63 834.17 72.1 834.6C86.59 848.13 100.49 862.25 113.59 877.13C114.81 878.51 115.55 880.52 115.96 882.37C117.29 888.27 122.55 892.13 127.97 890.9C133.43 889.67 136.74 884.08 135.46 878.26C135.28 877.45 135.04 876.64 135.03 875.82C134.69 861.35 134.22 846.87 134.15 832.4C134.12 826.27 134.68 820.1 135.47 814.02C136.1 809.23 134.95 805.3 131.17 802.76C127.71 800.44 124.18 800.49 120.48 802.92C116.9 805.26 115.36 809.16 116.22 813.76C116.43 814.9 116.89 816.02 116.92 817.16C117.28 828.64 117.6 840.12 117.88 851.6C117.91 852.65 117.64 853.71 117.48 855.03C116.6 854.57 116.09 854.45 115.77 854.13C103.91 842.2 91.96 830.37 80.3 818.25C76.54 814.34 72.51 810.62 69.87 805.62C67.88 801.84 63.13 800.41 59.54 801.46C54.57 802.92 51.99 806.17 51.89 811.2C51.86 812.69 52.01 814.19 52.14 815.68C52.4 818.64 52.81 821.6 52.98 824.57C53.18 828.06 53.27 831.56 53.29 835.05C53.34 841.86 53.5 848.68 53.29 855.49C53.02 864.13 52.4 872.76 51.98 881.39C51.68 887.49 57.64 891.4 62.38 891.03C67.67 890.62 72.33 885.31 71.81 880.09C71.5 876.97 70.99 873.86 70.87 870.73C70.39 858.43 70.02 846.13 69.57 832.61V832.61Z" fill="white"/>
<path d="M0 422C12.96 415.19 25.9 408.35 38.88 401.57C69.26 385.7 99.66 369.86 130.06 354.03C155.44 340.8 180.84 327.6 206.22 314.37C232.04 300.91 257.91 287.55 283.64 273.9C295.38 267.67 307.58 264.07 320.97 264.87C329.93 265.4 338.38 267.69 346.29 271.81C387.61 293.32 428.89 314.91 470.21 336.44C511.52 357.97 552.86 379.44 594.18 400.96C617.05 412.87 639.9 424.84 662.75 436.78C663.47 437.15 664.15 437.59 665.59 438.42C582.94 481.5 500.87 524.28 418.6 567.16C410.45 562.67 402.29 558.21 394.17 553.69C356.08 532.5 317.99 511.29 279.91 490.09C263.78 481.11 247.59 472.23 231.54 463.1C222.73 458.09 213.63 455.98 203.77 459C200.94 459.87 198.21 461.2 195.57 462.57C166.76 477.49 137.97 492.46 109.17 507.41C107.85 508.09 106.49 508.7 104.94 509.44C96.69 505.18 88.41 500.95 80.16 496.65C58.03 485.12 35.92 473.55 13.79 462.02C9.2 459.64 4.59 457.34 0 455C0 444 0 433 0 422Z" fill="white"/>
<path d="M664.16 799.91V746.77C664.48 746.52 664.74 746.14 664.99 746.15C676.95 746.26 688.98 744.98 700.85 747.09C704.88 747.81 708.84 749.3 712.6 750.95C718.16 753.39 721.31 758.09 722.61 763.89C723.82 769.3 723.77 774.81 722.47 780.22C720.53 788.25 715.54 793.8 708.01 796.87C704.51 798.3 700.7 799.63 696.98 799.77C686.2 800.15 675.41 799.91 664.15 799.91H664.16Z" fill="white"/>
<path d="M529.05 804.08V746.28C530.52 746.18 531.81 745.99 533.09 746.02C543.22 746.32 553.38 746.38 563.48 747.15C567.51 747.46 571.52 749.12 575.35 750.64C581.13 752.93 584.62 757.47 586.33 763.39C588.62 771.31 588.42 779.22 585.57 786.92C581.85 796.97 573.5 801.28 563.72 802.82C557.03 803.87 550.15 803.79 543.34 804.04C538.72 804.21 534.08 804.07 529.05 804.07V804.08Z" fill="white"/>
</g>
<defs>
<clipPath id="clip0_516_26">
<rect width="1024" height="1024" fill="white"/>
</clipPath>
</defs>
</svg>
