<svg width="1024" height="1024" viewBox="0 0 1024 1024" fill="none" xmlns="http://www.w3.org/2000/svg">
<g clip-path="url(#clip0_510_2)">
<rect opacity="0.4" x="-0.169922" y="81" width="1024.17" height="861.234" rx="40" fill="url(#paint0_linear_510_2)"/>
<rect x="-0.169922" y="81" width="1024.17" height="861.234" rx="40" fill="url(#paint1_linear_510_2)"/>
<rect x="-0.169922" y="81" width="1024.17" height="861.234" rx="40" fill="white" fill-opacity="0.2" style="mix-blend-mode:soft-light"/>
<g opacity="0.5">
<rect x="-0.169922" y="81" width="1024.17" height="861.234" rx="40" fill="url(#paint2_linear_510_2)"/>
<rect x="-0.169922" y="81" width="1024.17" height="861.234" rx="40" fill="url(#paint3_linear_510_2)" fill-opacity="0.45"/>
<rect x="-0.169922" y="81" width="1024.17" height="861.234" rx="40" fill="url(#paint4_linear_510_2)" fill-opacity="0.3"/>
<rect x="-0.169922" y="81" width="1024.17" height="861.234" rx="40" fill="url(#paint5_linear_510_2)" fill-opacity="0.44"/>
</g>
<path d="M-0.169922 738.564H1024V902.234C1024 924.326 1006.09 942.234 984 942.234H39.8301C17.7387 942.234 -0.169922 924.326 -0.169922 902.234V738.564Z" fill="black" fill-opacity="0.25" style="mix-blend-mode:multiply"/>
<g filter="url(#filter0_d_510_2)">
<path d="M511.292 537.256L347.528 452.75C327.438 442.365 303.543 442.365 283.453 452.75L212.885 489.165L416.56 602.318L511.292 553.434C517.912 550.048 517.912 540.642 511.292 537.256Z" fill="url(#paint6_linear_510_2)"/>
<path d="M511.292 537.256L347.528 452.75C327.438 442.365 303.543 442.365 283.453 452.75L212.885 489.165L416.56 602.318L511.292 553.434C517.912 550.048 517.912 540.642 511.292 537.256Z" fill="white" fill-opacity="0.55" style="mix-blend-mode:overlay"/>
<path d="M347.528 452.75L511.292 537.256C517.912 540.642 517.912 550.048 511.292 553.434L416.56 602.318L417.053 602.591L597.196 509.184L336.989 375.745L176.862 469.152L212.885 489.165L283.453 452.75C303.543 442.365 327.438 442.365 347.528 452.75Z" fill="url(#paint7_linear_510_2)"/>
<path d="M347.528 452.75L511.292 537.256C517.912 540.642 517.912 550.048 511.292 553.434L416.56 602.318L417.053 602.591L597.196 509.184L336.989 375.745L176.862 469.152L212.885 489.165L283.453 452.75C303.543 442.365 327.438 442.365 347.528 452.75Z" fill="white" fill-opacity="0.55" style="mix-blend-mode:overlay"/>
<path d="M689.552 414.279L361.084 243.095C333.45 228.699 300.52 228.699 272.803 243.095L-55.6657 414.279C-74.7781 424.291 -74.7781 451.594 -55.6657 461.605L117.416 551.808C113.184 547.672 113.942 540.195 119.69 537.256L212.885 489.165L176.862 469.152L336.989 375.745L597.196 509.184L417.053 602.591L416.56 602.318L347.528 637.94C346.291 638.579 345.04 639.179 343.776 639.74C349.7 638.008 355.498 635.691 361.084 632.789L689.552 461.605C708.665 451.594 708.665 424.291 689.552 414.279Z" fill="url(#paint8_linear_510_2)"/>
<path d="M689.552 414.279L361.084 243.095C333.45 228.699 300.52 228.699 272.803 243.095L-55.6657 414.279C-74.7781 424.291 -74.7781 451.594 -55.6657 461.605L117.416 551.808C113.184 547.672 113.942 540.195 119.69 537.256L212.885 489.165L176.862 469.152L336.989 375.745L597.196 509.184L417.053 602.591L416.56 602.318L347.528 637.94C346.291 638.579 345.04 639.179 343.776 639.74C349.7 638.008 355.498 635.691 361.084 632.789L689.552 461.605C708.665 451.594 708.665 424.291 689.552 414.279Z" fill="white" fill-opacity="0.55" style="mix-blend-mode:overlay"/>
<path d="M308.461 624.932C313.839 627.663 320.127 627.663 325.505 624.932L394.002 589.785L212.885 489.165L128.615 532.65L308.461 624.932Z" fill="url(#paint9_linear_510_2)"/>
<path fill-rule="evenodd" clip-rule="evenodd" d="M-69.9813 430.747L-69.1463 431.176C-69.6311 433.061 -69.9095 434.993 -69.9813 436.931V430.747ZM-69.9813 436.931C-70.0062 437.605 -70.0062 438.28 -69.9813 438.954V436.931ZM417.946 603.155L394.002 589.785L325.505 624.932C320.127 627.663 313.839 627.663 308.461 624.932L128.615 532.65L104.876 545.273C99.1288 548.213 113.184 547.672 117.416 551.808L-55.6657 461.605C-64.8765 456.781 -69.6483 447.94 -69.9813 438.954V605.903C-69.9813 620.299 -61.9557 633.454 -49.2141 639.991L276.69 807.121C302.007 820.111 332.124 820.111 357.524 807.121L683.18 639.991C695.921 633.454 703.947 620.299 703.947 605.985V430.747L703.042 431.211C705.925 442.488 701.428 455.385 689.553 461.605L361.084 632.79C355.498 635.691 349.7 638.008 343.776 639.74C345.04 639.179 359.847 633.429 361.084 632.79L417.946 603.155Z" fill="url(#paint10_linear_510_2)"/>
<path d="M361.084 632.79C359.847 633.429 345.04 639.179 343.776 639.74C349.7 638.008 355.498 635.691 361.084 632.79Z" fill="url(#paint11_linear_510_2)"/>
<path d="M308.461 624.932C313.839 627.663 320.127 627.663 325.505 624.932L394.002 589.785L212.885 489.165L128.615 532.65L308.461 624.932Z" fill="#ACC1D8"/>
<path fill-rule="evenodd" clip-rule="evenodd" d="M-69.9813 430.747L-69.1463 431.176C-69.6311 433.061 -69.9095 434.993 -69.9813 436.931V430.747ZM-69.9813 436.931C-70.0062 437.605 -70.0062 438.28 -69.9813 438.954V436.931ZM417.946 603.155L394.002 589.785L325.505 624.932C320.127 627.663 313.839 627.663 308.461 624.932L128.615 532.65L104.876 545.273C99.1288 548.213 113.184 547.672 117.416 551.808L-55.6657 461.605C-64.8765 456.781 -69.6483 447.94 -69.9813 438.954V605.903C-69.9813 620.299 -61.9557 633.454 -49.2141 639.991L276.69 807.121C302.007 820.111 332.124 820.111 357.524 807.121L683.18 639.991C695.921 633.454 703.947 620.299 703.947 605.985V430.747L703.042 431.211C705.925 442.488 701.428 455.385 689.553 461.605L361.084 632.79C355.498 635.691 349.7 638.008 343.776 639.74C345.04 639.179 359.847 633.429 361.084 632.79L417.946 603.155Z" fill="#ACC1D8"/>
<path d="M361.084 632.79C359.847 633.429 345.04 639.179 343.776 639.74C349.7 638.008 355.498 635.691 361.084 632.79Z" fill="#ACC1D8"/>
</g>
<path d="M61.7377 801.159C67.1503 801.159 71.5521 805.486 71.6721 810.87C71.6738 810.945 71.6746 811.02 71.6746 811.095C71.6746 812.259 71.4745 813.377 71.1068 814.415C69.7407 818.27 66.0618 821.032 61.7377 821.032C57.4137 821.032 53.7348 818.27 52.3687 814.415C52.001 813.377 51.8008 812.259 51.8008 811.095C51.8008 811.02 51.8017 810.945 51.8034 810.87C51.9234 805.486 56.3252 801.159 61.7377 801.159Z" fill="#0C315C"/>
<path d="M61.7377 871.147C66.0865 871.147 69.7828 873.94 71.13 877.831C71.4829 878.85 71.6746 879.944 71.6746 881.084C71.6746 886.572 67.2257 891.021 61.7377 891.021C56.2497 891.021 51.8008 886.572 51.8008 881.084C51.8008 879.944 51.9926 878.85 52.3455 877.831C53.6927 873.94 57.389 871.147 61.7377 871.147Z" fill="#0C315C"/>
<path d="M52.3687 814.415C53.0883 823.684 53.6076 837.443 53.6076 844.745C53.6076 853.892 53.0771 868.835 52.3455 877.831C53.6927 873.94 57.389 871.147 61.7377 871.147C66.0865 871.147 69.7828 873.94 71.13 877.831C70.3984 868.835 69.8679 853.892 69.8679 844.745C69.8679 837.443 70.3872 823.684 71.1068 814.415C69.7407 818.27 66.0618 821.032 61.7377 821.032C57.4137 821.032 53.7348 818.27 52.3687 814.415Z" fill="#0C315C"/>
<path fill-rule="evenodd" clip-rule="evenodd" d="M51.8034 810.87C52.0008 810.88 52.1909 812.124 52.3687 814.415ZM51.8008 810.87C51.8017 810.87 51.8025 810.87 51.8034 810.87C51.8017 810.945 51.8008 811.02 51.8008 811.095C51.8008 812.259 52.001 813.377 52.3687 814.415M52.3455 877.831C52.1736 879.944 51.9907 881.084 51.8008 881.084C51.8008 879.944 51.9926 878.85 52.3455 877.831Z" fill="#0C315C"/>
<path fill-rule="evenodd" clip-rule="evenodd" d="M71.6746 810.87C71.6738 810.87 71.673 810.87 71.6721 810.87C71.4747 810.88 71.2846 812.124 71.1068 814.415C71.4745 813.377 71.6746 812.259 71.6746 811.095C71.6746 811.02 71.6738 810.945 71.6721 810.87M71.6746 881.084C71.4848 881.084 71.3019 879.944 71.13 877.831C71.4829 878.85 71.6746 879.944 71.6746 881.084Z" fill="#0C315C"/>
<path d="M125.882 801.159C131.295 801.159 135.697 805.486 135.817 810.87C135.818 810.945 135.819 811.02 135.819 811.095C135.819 812.259 135.619 813.377 135.251 814.415C133.885 818.27 130.206 821.032 125.882 821.032C121.558 821.032 117.879 818.27 116.513 814.415C116.146 813.377 115.945 812.259 115.945 811.095C115.945 811.02 115.946 810.945 115.948 810.87C116.068 805.486 120.47 801.159 125.882 801.159Z" fill="#0C315C"/>
<path d="M125.882 871.147C130.231 871.147 133.927 873.94 135.275 877.831C135.627 878.85 135.819 879.944 135.819 881.084C135.819 886.572 131.37 891.021 125.882 891.021C120.394 891.021 115.945 886.572 115.945 881.084C115.945 879.944 116.137 878.85 116.49 877.831C117.837 873.94 121.534 871.147 125.882 871.147Z" fill="#0C315C"/>
<path d="M116.513 814.415C117.233 823.684 117.752 837.443 117.752 844.745C117.752 853.892 117.222 868.835 116.49 877.831C117.837 873.94 121.534 871.147 125.882 871.147C130.231 871.147 133.927 873.94 135.275 877.831C134.543 868.835 134.012 853.892 134.012 844.745C134.012 837.443 134.532 823.684 135.251 814.415C133.885 818.27 130.206 821.032 125.882 821.032C121.558 821.032 117.879 818.27 116.513 814.415Z" fill="#0C315C"/>
<path fill-rule="evenodd" clip-rule="evenodd" d="M115.948 810.87C116.145 810.88 116.335 812.124 116.513 814.415ZM115.945 810.87C115.946 810.87 115.947 810.87 115.948 810.87C115.946 810.945 115.945 811.02 115.945 811.095C115.945 812.259 116.146 813.377 116.513 814.415M116.49 877.831C116.318 879.944 116.135 881.084 115.945 881.084C115.945 879.944 116.137 878.85 116.49 877.831Z" fill="#0C315C"/>
<path fill-rule="evenodd" clip-rule="evenodd" d="M135.819 810.87C135.818 810.87 135.817 810.87 135.817 810.87C135.619 810.88 135.429 812.124 135.251 814.415C135.619 813.377 135.819 812.259 135.819 811.095C135.819 811.02 135.818 810.945 135.817 810.87M135.819 881.084C135.629 881.084 135.446 879.944 135.275 877.831C135.627 878.85 135.819 879.944 135.819 881.084Z" fill="#0C315C"/>
<path d="M54.6869 805.059C58.5142 801.232 64.6866 801.18 68.5784 804.902C68.6326 804.953 68.6864 805.006 68.7398 805.059C69.5629 805.882 70.2113 806.814 70.6853 807.808C72.4458 811.5 71.7973 816.055 68.7398 819.112C65.6823 822.17 61.1279 822.818 57.4354 821.058C56.4415 820.584 55.51 819.935 54.6869 819.112C54.6336 819.059 54.5809 819.005 54.529 818.951C50.807 815.059 50.8597 808.887 54.6869 805.059Z" fill="#0C315C"/>
<path d="M117.132 867.505C120.207 864.43 124.796 863.792 128.5 865.59C129.47 866.061 130.38 866.699 131.185 867.505C135.066 871.385 135.066 877.677 131.185 881.558C127.305 885.438 121.013 885.438 117.132 881.558C116.327 880.752 115.689 879.843 115.217 878.873C113.419 875.169 114.057 870.58 117.132 867.505Z" fill="#0C315C"/>
<path d="M57.4354 821.058C64.4986 827.103 83.5378 845.408 88.7013 850.572C95.1688 857.039 109.374 871.994 115.217 878.873C113.419 875.169 114.057 870.58 117.132 867.505C120.207 864.43 124.796 863.792 128.5 865.59C121.622 859.746 106.667 845.541 100.199 839.074C95.0356 833.91 76.7308 814.871 70.6853 807.808C72.4458 811.5 71.7973 816.055 68.7398 819.112C65.6823 822.17 61.1279 822.818 57.4354 821.058Z" fill="#0C315C"/>
<path fill-rule="evenodd" clip-rule="evenodd" d="M54.529 818.951C54.6761 818.819 55.6902 819.564 57.4354 821.058ZM54.5272 818.953C54.5278 818.952 54.5284 818.951 54.529 818.951C54.5809 819.005 54.6336 819.059 54.6869 819.112C55.51 819.935 56.4415 820.584 57.4354 821.058M115.217 878.873C116.59 880.488 117.267 881.424 117.132 881.558C116.327 880.752 115.689 879.843 115.217 878.873Z" fill="#0C315C"/>
<path fill-rule="evenodd" clip-rule="evenodd" d="M68.5801 804.9C68.5795 804.9 68.5789 804.901 68.5784 804.902C68.4462 805.049 69.1915 806.063 70.6853 807.808C70.2113 806.814 69.5629 805.882 68.7398 805.059C68.6864 805.006 68.6326 804.953 68.5784 804.902M131.185 867.505C131.051 867.639 130.116 866.963 128.5 865.59C129.47 866.061 130.38 866.699 131.185 867.505Z" fill="#0C315C"/>
<rect x="553" y="747" width="382" height="171" fill="black"/>
<path fill-rule="evenodd" clip-rule="evenodd" d="M482 702H986C1006.99 702 1024 719.013 1024 740V904C1024 924.987 1006.99 942 986 942H482C461.013 942 444 924.987 444 904V740C444 719.013 461.013 702 482 702ZM577.491 756.496V898H599.763V844.432H621.076C631.444 844.432 640.595 842.832 648.531 839.632C656.595 836.304 662.932 831.376 667.54 824.848C672.148 818.192 674.452 809.744 674.452 799.504C674.452 788.752 672.083 780.304 667.347 774.16C662.739 767.888 656.403 763.408 648.339 760.72C640.275 757.904 630.931 756.496 620.307 756.496H577.491ZM694.311 898V756.496H740.583C750.311 756.496 759.015 757.84 766.695 760.528C774.375 763.088 780.455 767.376 784.935 773.392C789.415 779.28 791.656 787.344 791.656 797.584C791.656 807.44 789.415 815.568 784.935 821.968C780.455 828.368 774.375 833.168 766.695 836.368C765.177 836.975 763.619 837.523 762.02 838.01L796.648 898H771.496L739.68 840.976H716.583V898H694.311ZM812.632 756.496V898H898.264V878.992H834.904V833.488H886.743V814.672H834.904V775.312H896.152V756.496H812.632Z" fill="#FFC225"/>
<path fill-rule="evenodd" clip-rule="evenodd" d="M716.583 823.12H737.896C748.136 823.12 755.943 821.008 761.319 816.784C766.823 812.432 769.576 806.032 769.576 797.584C769.576 789.008 766.823 783.056 761.319 779.728C755.943 776.272 748.136 774.544 737.896 774.544H716.583V823.12ZM599.763 826.384H619.155C630.291 826.384 638.611 824.208 644.115 819.856C649.619 815.504 652.371 808.72 652.371 799.504C652.371 790.032 649.492 783.504 643.732 779.92C637.972 776.336 629.459 774.544 618.195 774.544H599.763V826.384Z" fill="#FFC225"/>
</g>
<defs>
<filter id="filter0_d_510_2" x="-110" y="232.298" width="853.947" height="664.565" filterUnits="userSpaceOnUse" color-interpolation-filters="sRGB">
<feFlood flood-opacity="0" result="BackgroundImageFix"/>
<feColorMatrix in="SourceAlpha" type="matrix" values="0 0 0 0 0 0 0 0 0 0 0 0 0 0 0 0 0 0 127 0" result="hardAlpha"/>
<feOffset dy="40"/>
<feGaussianBlur stdDeviation="20"/>
<feComposite in2="hardAlpha" operator="out"/>
<feColorMatrix type="matrix" values="0 0 0 0 0.0272918 0 0 0 0 0.141371 0 0 0 0 0.545833 0 0 0 0.24 0"/>
<feBlend mode="normal" in2="BackgroundImageFix" result="effect1_dropShadow_510_2"/>
<feBlend mode="normal" in="SourceGraphic" in2="effect1_dropShadow_510_2" result="shape"/>
</filter>
<linearGradient id="paint0_linear_510_2" x1="-278.07" y1="-58.6596" x2="980.08" y2="511.211" gradientUnits="userSpaceOnUse">
<stop stop-color="#83E5FF"/>
<stop offset="1" stop-color="#09A9FF"/>
</linearGradient>
<linearGradient id="paint1_linear_510_2" x1="-0.169928" y1="-130.319" x2="1292.66" y2="923.687" gradientUnits="userSpaceOnUse">
<stop offset="0.0188061" stop-color="#0986DF"/>
<stop offset="0.360044" stop-color="#0962BC"/>
<stop offset="0.870054" stop-color="#0A428C"/>
</linearGradient>
<linearGradient id="paint2_linear_510_2" x1="511.915" y1="81" x2="511.915" y2="942.234" gradientUnits="userSpaceOnUse">
<stop stop-color="#0079D5"/>
<stop offset="1" stop-color="#0367CC"/>
</linearGradient>
<linearGradient id="paint3_linear_510_2" x1="511.915" y1="81" x2="511.915" y2="942.234" gradientUnits="userSpaceOnUse">
<stop stop-color="#0085FF"/>
<stop offset="1" stop-color="#0085FF" stop-opacity="0"/>
</linearGradient>
<linearGradient id="paint4_linear_510_2" x1="511.915" y1="81" x2="511.915" y2="942.234" gradientUnits="userSpaceOnUse">
<stop stop-color="#00C2FF"/>
<stop offset="1" stop-color="#00D1FF" stop-opacity="0"/>
</linearGradient>
<linearGradient id="paint5_linear_510_2" x1="-7.49371e-06" y1="81" x2="1024" y2="942" gradientUnits="userSpaceOnUse">
<stop stop-color="white"/>
<stop offset="1" stop-color="white" stop-opacity="0"/>
</linearGradient>
<linearGradient id="paint6_linear_510_2" x1="316.943" y1="232.298" x2="316.943" y2="645.728" gradientUnits="userSpaceOnUse">
<stop stop-color="#D3DFE6"/>
<stop offset="1" stop-color="#7B9CC2"/>
</linearGradient>
<linearGradient id="paint7_linear_510_2" x1="316.943" y1="232.298" x2="316.943" y2="645.728" gradientUnits="userSpaceOnUse">
<stop stop-color="#D3DFE6"/>
<stop offset="1" stop-color="#7B9CC2"/>
</linearGradient>
<linearGradient id="paint8_linear_510_2" x1="316.943" y1="232.298" x2="316.943" y2="645.728" gradientUnits="userSpaceOnUse">
<stop stop-color="#D3DFE6"/>
<stop offset="1" stop-color="#7B9CC2"/>
</linearGradient>
<linearGradient id="paint9_linear_510_2" x1="-403.598" y1="525.864" x2="1307.76" y2="1046.28" gradientUnits="userSpaceOnUse">
<stop offset="0.141087" stop-color="#09A9FF"/>
<stop offset="0.862925" stop-color="#0962BC"/>
<stop offset="1" stop-color="#0A428C"/>
</linearGradient>
<linearGradient id="paint10_linear_510_2" x1="-403.598" y1="525.864" x2="1307.76" y2="1046.28" gradientUnits="userSpaceOnUse">
<stop offset="0.141087" stop-color="#09A9FF"/>
<stop offset="0.862925" stop-color="#0962BC"/>
<stop offset="1" stop-color="#0A428C"/>
</linearGradient>
<linearGradient id="paint11_linear_510_2" x1="-403.598" y1="525.864" x2="1307.76" y2="1046.28" gradientUnits="userSpaceOnUse">
<stop offset="0.141087" stop-color="#09A9FF"/>
<stop offset="0.862925" stop-color="#0962BC"/>
<stop offset="1" stop-color="#0A428C"/>
</linearGradient>
<clipPath id="clip0_510_2">
<rect width="1024" height="1024" fill="white"/>
</clipPath>
</defs>
</svg>
