<?xml version="1.0" encoding="utf-8"?>
<!-- Generator: Adobe Illustrator 26.4.1, SVG Export Plug-In . SVG Version: 6.00 Build 0)  -->
<svg version="1.1" id="图层_1" xmlns="http://www.w3.org/2000/svg" xmlns:xlink="http://www.w3.org/1999/xlink" x="0px" y="0px"
	 viewBox="0 0 1024 1024" style="enable-background:new 0 0 1024 1024;" xml:space="preserve">
<style type="text/css">
	
		.st0{fill:url(#SVGID_1_);stroke:url(#SVGID_00000015339962443403796990000010028760598848026010_);stroke-width:12;stroke-linejoin:round;}
	.st1{fill:#FFFFFF;filter:url(#Adobe_OpacityMaskFilter);}
	.st2{mask:url(#path-2-inside-1_611_25_00000049919393696382416720000003602173766187602060_);fill:#7A7875;}
	.st3{fill:#EAEAEA;}
	.st4{clip-path:url(#SVGID_00000098184022275250159280000011757926872023013302_);}
	.st5{fill:#E2E2E2;}
	.st6{fill:#FAFAFA;}
	.st7{fill:url(#SVGID_00000037660277291512189080000014922991143702259350_);}
	.st8{fill:url(#SVGID_00000148656722723429573080000005221444674852726407_);fill-opacity:0.45;}
	.st9{fill:url(#SVGID_00000000936830898358332320000007137362449048278671_);fill-opacity:0.3;}
	.st10{fill:url(#SVGID_00000098902098603830114680000004231942985585296281_);}
	.st11{fill:url(#SVGID_00000033367631653793888390000008022589071019414961_);fill-opacity:0.45;}
	.st12{fill:url(#SVGID_00000090265321955177974850000010466730207309797017_);fill-opacity:0.3;}
	.st13{fill:url(#SVGID_00000112596131754966133350000006896898954899071875_);}
	.st14{fill:url(#SVGID_00000116951518487857512320000018133393161772000641_);fill-opacity:0.45;}
	.st15{fill:url(#SVGID_00000107565209838594981580000015403357132610106801_);fill-opacity:0.3;}
	.st16{fill:url(#SVGID_00000126303452761351630840000006743359438805427644_);}
	.st17{fill-rule:evenodd;clip-rule:evenodd;fill:url(#SVGID_00000026879630312310282390000015144652897179740590_);}
	.st18{fill:url(#SVGID_00000124862566598554489590000012121682247416813235_);}
	.st19{fill:url(#SVGID_00000093167091473010764090000000235926724226546600_);}
</style>
<linearGradient id="SVGID_1_" gradientUnits="userSpaceOnUse" x1="514" y1="941.8902" x2="514" y2="77.89" gradientTransform="matrix(1 0 0 -1 0 1021.89)">
	<stop  offset="0" style="stop-color:#FAFAFA"/>
	<stop  offset="1" style="stop-color:#FBFBFB"/>
</linearGradient>
<linearGradient id="SVGID_00000052088210952205748470000002978860012959042238_" gradientUnits="userSpaceOnUse" x1="514" y1="941.8902" x2="514" y2="77.89" gradientTransform="matrix(1 0 0 -1 0 1021.89)">
	<stop  offset="0" style="stop-color:#797774"/>
	<stop  offset="1" style="stop-color:#797774"/>
</linearGradient>
<path style="fill:url(#SVGID_1_);stroke:url(#SVGID_00000052088210952205748470000002978860012959042238_);stroke-width:12;stroke-linejoin:round;" d="
	M192,76.6c-3.3,0-6,2.7-6,6v864c0,3.3,2.7,6,6,6h644c3.3,0,6-2.7,6-6V274c0-1.6-0.6-3.1-1.8-4.2l-192-191.4
	c-1.1-1.1-2.6-1.8-4.2-1.8H192z"/>
<defs>
	<filter id="Adobe_OpacityMaskFilter" filterUnits="userSpaceOnUse" x="624" y="58.6" width="230.2" height="229.4">
		<feColorMatrix  type="matrix" values="1 0 0 0 0  0 1 0 0 0  0 0 1 0 0  0 0 0 1 0"/>
	</filter>
</defs>
<mask maskUnits="userSpaceOnUse" x="624" y="58.6" width="230.2" height="229.4" id="path-2-inside-1_611_25_00000049919393696382416720000003602173766187602060_">
	<path class="st1" d="M636,267V79.7c0-8,9.7-12,15.3-6.4l188.2,187.3c5.7,5.7,1.7,15.4-6.3,15.4H645C640,276,636,272,636,267z"/>
</mask>
<path class="st2" d="M839.6,260.6l8.5-8.5l0,0L839.6,260.6z M651.3,73.3l8.5-8.5L651.3,73.3z M624,79.7V267h24V79.7H624z M645,288
	h188.2v-24H645V288z M848,252.1L659.8,64.8l-16.9,17l188.2,187.3L848,252.1z M833.2,288c18.7,0,28.1-22.7,14.8-35.9l-16.9,17
	c-1.9-1.9-0.6-5.1,2.1-5.1V288z M624,267c0,11.6,9.4,21,21,21v-24c1.7,0,3,1.3,3,3H624z M648,79.7c0,2.7-3.2,4-5.1,2.1l16.9-17
	C646.6,51.6,624,61,624,79.7H648z"/>
<rect x="256" y="156" class="st3" width="316" height="12"/>
<rect x="256" y="226" class="st3" width="316" height="12"/>
<rect x="256" y="296" class="st3" width="511" height="12"/>
<rect x="256" y="366" class="st3" width="511" height="12"/>
<rect x="256" y="436" class="st3" width="512" height="12"/>
<rect x="256" y="506" class="st3" width="511" height="12"/>
<rect x="256" y="576" class="st3" width="511" height="12"/>
<rect x="256" y="646" class="st3" width="328" height="12"/>
<rect x="256" y="716" class="st3" width="208" height="12"/>
<rect x="256" y="786" class="st3" width="200" height="12"/>
<rect x="256" y="856" class="st3" width="200" height="12"/>
<g>
	<defs>
		<rect id="SVGID_00000110436067110906113150000002836068954870995872_" x="496" y="632" width="340" height="312"/>
	</defs>
	<clipPath id="SVGID_00000084490738169455045890000007277547083904767663_">
		<use xlink:href="#SVGID_00000110436067110906113150000002836068954870995872_"  style="overflow:visible;"/>
	</clipPath>
	<g style="clip-path:url(#SVGID_00000084490738169455045890000007277547083904767663_);">
		<path class="st5" d="M622.9,966.3c-4.7,0-9.3,0.9-13.9,2.6c-4.6,1.7-9.1,3.6-13.7,5.6c-4.4,2-8.9,3.9-13.5,5.6
			c-4.6,1.7-9.2,2.6-13.9,2.6c-4,0-7.7-0.8-11.1-2.4c-3.4-1.7-6.4-4.2-9.1-7.2c-1.7-2-3.8-4.7-6.2-8c-2.3-3.4-4.7-7-7.2-11.1
			c-2.5-4-5.1-8.2-7.6-12.7c-2.5-4.6-4.8-8.9-6.8-13.1c-1.9-4.3-3.4-8.3-4.6-12.1c-1.2-3.8-1.8-6.9-1.8-9.5c0-4.8,1.2-9.1,3.6-12.9
			c2.4-3.9,5.4-7.4,8.9-10.5c3.6-3.2,7.5-6.2,11.7-9.1c4.3-2.8,8.2-5.8,11.7-8.9c3.6-3.2,6.6-6.6,9.1-10.1c2.4-3.6,3.6-7.8,3.6-12.5
			c0-4.6-1.2-8.7-3.6-12.3c-2.4-3.6-5.4-7-9.1-10.1c-3.6-3.2-7.5-6.3-11.7-9.3c-4.2-3-8-6-11.7-9.3c-3.6-3.4-6.6-6.9-9.1-10.7
			s-3.6-8-3.6-12.9c0-2.4,0.6-5.5,1.8-9.3c1.3-3.8,3-7.8,5-12.1c2-4.3,4.3-8.7,6.8-13.1c2.7-4.6,5.3-8.9,7.8-12.9
			c2.7-4.2,5.2-7.9,7.6-11.3c2.4-3.4,4.5-6,6.2-7.8c2.7-2.9,5.7-5.2,9.1-6.8c3.5-1.6,7.2-2.4,11.1-2.4c4.7,0,9.3,0.9,13.7,2.6
			c4.4,1.7,8.9,3.7,13.3,5.8c4.4,2,8.9,3.9,13.3,5.6c4.6,1.7,9.2,2.6,13.9,2.6c6,0,11.2-1.8,15.5-5.4c4.4-3.8,7.2-8.6,8.2-14.5
			c1.2-6.6,2.4-13.1,3.6-19.7c1.2-6.6,2.4-13.1,3.6-19.7c1.1-5.6,3.5-10.3,7.2-13.9c3.9-3.6,8.6-6,14.3-7c5.4-0.9,10.8-1.5,16.3-1.8
			c5.5-0.4,10.9-0.6,16.3-0.6c5.6,0,11.3,0.2,16.9,0.6c5.6,0.4,11.2,1.1,16.7,2.2c5.6,1.1,10.3,3.4,13.9,7c3.6,3.6,6,8.2,7,13.9
			c1.2,6.6,2.3,13.1,3.4,19.5c1.1,6.4,2.2,12.9,3.4,19.5c1.1,5.8,3.8,10.5,8.2,14.3c4.4,3.8,9.6,5.6,15.5,5.6
			c4.7,0,9.3-0.9,13.9-2.6c4.6-1.7,9.1-3.6,13.5-5.6c4.6-2,9.1-3.9,13.7-5.6c4.6-1.7,9.2-2.6,13.9-2.6c4.2,0,7.8,0.9,11.1,2.6
			c3.4,1.6,6.4,4,9.1,7c1.7,2,3.8,4.7,6,8c2.4,3.4,4.9,7,7.4,11.1c2.5,4,5.1,8.3,7.6,12.9c2.5,4.4,4.8,8.8,6.6,13.1
			c2,4.2,3.6,8.1,4.8,11.9c1.2,3.8,1.8,6.9,1.8,9.5c0,5-1.2,9.3-3.6,13.1c-2.4,3.8-5.4,7.2-9.1,10.5c-3.5,3.1-7.4,6-11.7,8.9
			c-4.2,2.8-8,5.8-11.7,9.1c-3.5,3.1-6.4,6.4-8.9,10.1c-2.4,3.5-3.6,7.6-3.6,12.3c0,4.6,1.2,8.7,3.6,12.3c2.4,3.6,5.4,7,9.1,10.3
			c3.6,3.1,7.5,6.1,11.7,9.1c4.2,3,8,6.1,11.7,9.5c3.6,3.2,6.6,6.7,9.1,10.5s3.6,8,3.6,12.9c0,2.7-0.7,5.9-2,9.7
			c-1.2,3.6-2.8,7.6-4.8,11.9c-2,4.3-4.4,8.7-7,13.1c-2.5,4.4-5.2,8.7-7.8,12.7c-2.5,4-5.1,7.7-7.6,11.1c-2.4,3.4-4.5,6-6.2,8
			c-2.7,2.9-5.7,5.2-9.1,6.8c-3.2,1.6-6.8,2.4-10.7,2.4c-4.4,0-9-0.9-13.7-2.6c-4.6-1.7-9.1-3.6-13.7-5.6c-4.6-2.1-9.1-4.1-13.7-5.8
			c-4.6-1.7-9-2.6-13.3-2.6c-5.9,0-10.5,1.2-13.7,3.6c-3.2,2.4-5.7,5.6-7.4,9.5c-1.7,3.8-3,8-3.8,12.7c-0.7,4.6-1.4,9-2.2,13.3
			c-0.7,3.5-1.3,6.9-2,10.3c-0.5,3.2-1.1,6.6-1.8,10.1c-1.1,5.8-3.5,10.5-7.2,14.1c-3.8,3.5-8.5,5.8-14.3,6.8
			c-5.4,0.9-10.8,1.6-16.3,2c-5.4,0.3-10.8,0.4-16.3,0.4c-5.6,0-11.3-0.2-16.9-0.6c-5.6-0.4-11.2-1.1-16.7-2.2
			c-5.6-1.1-10.3-3.4-13.9-7c-3.6-3.8-6-8.5-7-14.1c-1.2-6.4-2.3-12.9-3.4-19.3c-1.1-6.6-2.2-13.1-3.4-19.5
			c-1.1-5.8-3.8-10.5-8.2-14.3C634,968.2,628.8,966.3,622.9,966.3z M736.8,1021.2c0.5-3,1.1-6.6,1.8-10.9c0.7-4.4,1.4-8.9,2.2-13.5
			c0.8-4.6,1.7-8.9,2.6-13.1c0.9-4.2,1.9-7.5,2.8-10.1c3.8-10.1,9.8-18.1,18.1-24.1c8.3-6,17.9-9.1,28.8-9.1c3.6,0,7.8,0.7,12.5,2
			c4.8,1.2,9.7,2.7,14.7,4.4c5.1,1.7,10,3.6,14.7,5.4c4.7,1.9,8.9,3.5,12.5,4.8c6.3-7.5,11.9-15.4,16.7-23.7
			c4.8-8.4,9.1-17.2,12.7-26.2v-0.2L846,881c-5.6-4.7-10-10.3-13.1-16.9c-3.1-6.7-4.6-13.7-4.6-21.1s1.5-14.4,4.6-21.1
			c3.2-6.7,7.6-12.4,13.3-17.1l30.4-25.3v-0.2c0-0.1-0.3-0.9-0.8-2.2c-0.5-1.5-0.9-2.3-1-2.4c-3.2-8.3-7.1-16.2-11.7-23.7
			c-4.4-7.6-9.5-15-15.1-21.9h-0.2L810,742.6c-5.4,1.9-10.9,2.8-16.5,2.8c-9.1,0-17.5-2.2-25.1-6.6c-6.4-3.6-11.8-8.4-16.1-14.5
			c-4.2-6-6.9-12.7-8.2-19.9l-6.8-39.2c-9.7-1.6-19.4-2.4-29.2-2.4c-4.8,0-9.7,0.2-14.5,0.6c-4.8,0.3-9.6,0.7-14.3,1.4
			c-1.2,6.7-2.3,13.3-3.4,19.9c-1.1,6.6-2.3,13.1-3.8,19.7c-1.2,5.9-3.3,11.4-6.2,16.5c-3,5-6.6,9.3-10.9,12.9
			c-4.3,3.6-9.1,6.5-14.5,8.7c-5.4,2-11.1,3-17.3,3c-6,0-11.7-1-17.1-3h-0.2l-37-13.7h-0.2c-6.2,7.6-11.7,15.6-16.7,23.9
			c-5,8.2-9.2,16.8-12.7,26v0.2L570,805c5.6,4.7,10,10.4,13.1,17.1c3.1,6.6,4.6,13.5,4.6,20.9s-1.6,14.4-4.8,21.1
			c-3.1,6.7-7.4,12.4-13.1,17.1l-30.4,25.3v0.2c0,0.1,0.3,0.9,0.8,2.4c0.5,1.3,0.9,2.1,1,2.2c3.2,8.3,7,16.3,11.5,23.9
			c4.6,7.5,9.7,14.8,15.3,21.7h0.2l37.8-13.7c5.4-1.9,10.9-2.8,16.5-2.8c9.1,0,17.5,2.2,25.1,6.6c6.4,3.6,11.7,8.4,15.9,14.5
			c4.3,6,7.1,12.7,8.4,19.9l6.8,39.2c9.7,1.6,19.4,2.4,29.2,2.4c4.8,0,9.7-0.1,14.5-0.4C727.3,1022.5,732.1,1021.9,736.8,1021.2z
			 M630.8,843c0-10.7,2-20.8,6-30.2c4-9.4,9.5-17.6,16.5-24.5s15.2-12.5,24.5-16.5c9.4-4,19.4-6,30.2-6s20.8,2,30.2,6
			c9.4,4,17.6,9.5,24.5,16.5s12.5,15.2,16.5,24.5c4,9.4,6,19.4,6,30.2s-2,20.8-6,30.2c-4,9.4-9.5,17.6-16.5,24.5
			s-15.2,12.5-24.5,16.5c-9.4,4-19.4,6-30.2,6s-20.8-2-30.2-6c-9.4-4-17.6-9.5-24.5-16.5s-12.5-15.2-16.5-24.5
			C632.8,863.8,630.8,853.7,630.8,843z M759.5,843c0-7.1-1.3-13.7-4-19.9c-2.7-6.3-6.4-11.8-11.1-16.5c-4.7-4.7-10.2-8.4-16.5-11.1
			c-6.2-2.7-12.8-4-19.9-4s-13.8,1.3-20.1,4c-6.2,2.7-11.6,6.4-16.3,11.1c-4.7,4.7-8.4,10.2-11.1,16.5c-2.7,6.2-4,12.8-4,19.9
			s1.3,13.8,4,20.1c2.7,6.2,6.4,11.6,11.1,16.3c4.7,4.7,10.1,8.4,16.3,11.1c6.3,2.7,13,4,20.1,4s13.7-1.3,19.9-4
			c6.3-2.7,11.8-6.4,16.5-11.1c4.7-4.7,8.4-10.1,11.1-16.3C758.2,856.8,759.5,850.1,759.5,843z"/>
		<path class="st6" d="M609,968.9l2.6,6.7L609,968.9z M595.3,974.6l-2.9-6.6l0,0l0,0L595.3,974.6z M556.9,980.4l-3.3,6.4l0.1,0.1
			l0.1,0L556.9,980.4z M547.9,973.2l-5.4,4.7l0,0L547.9,973.2z M541.6,965.1l-6,4l0.1,0.1l0.1,0.1L541.6,965.1z M526.7,941.4
			l-6.3,3.5l0,0l0,0L526.7,941.4z M519.9,928.3l-6.6,2.9l0.1,0.1l0.1,0.1L519.9,928.3z M517.1,893.9l6.1,3.9l0,0l0,0L517.1,893.9z
			 M525.9,883.4l4.8,5.4l0,0l0,0L525.9,883.4z M537.6,874.4l-4-6l0,0l0,0L537.6,874.4z M549.3,865.5l4.8,5.4l0,0l0,0L549.3,865.5z
			 M558.3,855.5l5.9,4.1l0-0.1l0-0.1L558.3,855.5z M549.3,820.7l-4.8,5.4l0.1,0.1l0.1,0L549.3,820.7z M525.9,802.2l-4.9,5.3l0.1,0
			l0.1,0L525.9,802.2z M516.9,791.5l-6.1,3.9L516.9,791.5z M515.1,769.4l-6.8-2.4l0,0.1l0,0.1L515.1,769.4z M526.9,744.2l-6.2-3.7
			l0,0l0,0L526.9,744.2z M534.8,731.3l-6-3.9l0,0l0,0L534.8,731.3z M548.7,712.2l5.3,4.9l0,0l0,0L548.7,712.2z M557.7,705.4l-3-6.5
			l0,0l0,0L557.7,705.4z M595.7,711.4l-3.1,6.5l0.1,0l0.1,0L595.7,711.4z M609,717.1l-2.6,6.7l0,0l0,0L609,717.1z M638.4,714.2
			l4.6,5.5l0,0l0,0L638.4,714.2z M646.6,699.8l-7.1-1.3l0,0L646.6,699.8z M653.9,660.3l-7.1-1.3l0,0l0,0L653.9,660.3z M661.1,646.5
			l-4.9-5.3l0,0l0,0L661.1,646.5z M675.4,639.4l-1.2-7.1l-0.1,0l-0.1,0L675.4,639.4z M691.7,637.6l0.4,7.2l0.1,0l0.1,0L691.7,637.6z
			 M741.6,639.8l-1.4,7.1l0,0l0,0L741.6,639.8z M762.5,660.7l7.1-1.3l0,0l0,0L762.5,660.7z M769.4,699.8l-7.1,1.3l0,0l0,0
			L769.4,699.8z M820.5,711.4l-2.9-6.6l0,0l0,0L820.5,711.4z M859.1,705.8l-3.4,6.3l0.2,0.1l0.2,0.1L859.1,705.8z M868.1,712.8
			l5.4-4.7l0,0L868.1,712.8z M874.2,720.9l-6,4l0.1,0.1l0.1,0.1L874.2,720.9z M889.3,744.8l-6.3,3.5l0,0l0,0L889.3,744.8z
			 M895.9,757.9l-6.6,2.9l0.1,0.1l0.1,0.1L895.9,757.9z M898.9,792.3l6.1,3.9L898.9,792.3z M889.9,802.8l4.8,5.4l0,0l0,0
			L889.9,802.8z M878.2,811.6l-3.9-6l0,0l0,0L878.2,811.6z M866.5,820.7l4.8,5.4l0,0l0,0L866.5,820.7z M857.7,830.7l5.9,4.1l0-0.1
			l0-0.1L857.7,830.7z M866.7,865.5l-4.8,5.4l0.1,0l0.1,0L866.7,865.5z M890.1,884l-4.9,5.3l0.1,0l0.1,0L890.1,884z M900.7,917
			l-6.8-2.4l0,0.1l0,0.1L900.7,917z M888.9,942l-6.2-3.7l0,0.1l0,0.1L888.9,942z M881,954.7l-6-4l0,0.1l0,0.1L881,954.7z
			 M873.4,965.7l-5.7-4.4l-0.1,0.1l-0.1,0.1L873.4,965.7z M867.1,973.8l5.3,4.8l0.1-0.1l0.1-0.1L867.1,973.8z M858.1,980.6l-3.1-6.5
			l-0.1,0l-0.1,0L858.1,980.6z M833.7,980.4l-2.6,6.7l0,0l0,0L833.7,980.4z M820.1,974.8l-3.1,6.5l0.1,0l0.1,0L820.1,974.8z
			 M772,979.4l6.5,3l0,0l0,0L772,979.4z M768.2,992.1l-7.1-1.2l0,0.1l0,0.1L768.2,992.1z M765.9,1005.3l7.1,1.4l0,0l0,0
			L765.9,1005.3z M763.9,1015.6l-7.1-1.4l0,0.1l0,0.1L763.9,1015.6z M762.1,1025.7l-7.1-1.4l0,0l0,0L762.1,1025.7z M754.9,1039.8
			l4.9,5.3l0.1,0l0,0L754.9,1039.8z M740.6,1046.6l1.2,7.1l0,0l0,0L740.6,1046.6z M724.3,1048.6l0.4,7.2l0.1,0h0.1L724.3,1048.6z
			 M674.4,1046.2l1.4-7.1l0,0h0L674.4,1046.2z M660.5,1039.1l-5.2,5l0,0l0,0L660.5,1039.1z M653.5,1025.1l-7.1,1.3l0,0l0,0
			L653.5,1025.1z M650.1,1005.8l-7.1,1.2l0,0l0,0L650.1,1005.8z M646.6,986.2l-7.1,1.3l0,0L646.6,986.2z M736.8,1021.2l1,7.1
			l5.1-0.7l0.9-5.1L736.8,1021.2z M738.6,1010.4l7.1,1.1l0,0l0,0L738.6,1010.4z M746.2,973.8l-6.7-2.5l0,0l0,0L746.2,973.8z
			 M764.3,949.6l4.2,5.8L764.3,949.6z M805.6,942.6l-2,6.9l0.1,0l0.1,0L805.6,942.6z M820.3,947l-2.4,6.8l0,0l0,0L820.3,947z
			 M847.4,957.3l-2.5,6.8l4.8,1.8l3.3-3.9L847.4,957.3z M864.1,933.5l6.2,3.6l0,0l0,0L864.1,933.5z M876.8,907.4l6.7,2.7l0.5-1.3
			v-1.4H876.8z M876.8,907.2h7.2v-3.3l-2.5-2.2L876.8,907.2z M846,881l4.7-5.5l0,0l0,0L846,881z M832.9,864.1l-6.5,3l0,0l0,0
			L832.9,864.1z M832.9,821.9l-6.5-3.1l0,0.1l0,0.1L832.9,821.9z M846.2,804.8l4.6,5.5l0,0L846.2,804.8z M876.6,779.4l4.6,5.5
			l2.6-2.2v-3.4H876.6z M875.8,777l-6.8,2.5l0,0.1l0,0.1L875.8,777z M874.8,774.6l-6.7,2.6l0.5,1.4l1.1,1.1L874.8,774.6z
			 M863.1,750.9l-6.2,3.6l0,0.1l0,0.1L863.1,750.9z M848,728.9l5.6-4.5l-2.2-2.7H848V728.9z M847.8,728.9v-7.2h-1.3l-1.2,0.4
			L847.8,728.9z M810,742.6l2.4,6.8l0,0l0,0L810,742.6z M768.4,738.8l3.6-6.2l0,0l0,0L768.4,738.8z M752.3,724.3l-5.9,4.1l0,0l0,0
			L752.3,724.3z M744,704.4l-7.1,1.2l0,0l0,0L744,704.4z M737.2,665.2l7.1-1.2l-0.9-5l-5-0.8L737.2,665.2z M693.5,663.4l0.4,7.2
			l0.1,0l0.1,0L693.5,663.4z M679.2,664.8l-1-7.1l-5.1,0.7l-0.9,5.1L679.2,664.8z M672,704.4l-7-1.6l0,0.1l0,0.1L672,704.4z
			 M665.8,720.9l6.2,3.7l0,0l0,0L665.8,720.9z M640.4,742.4l2.5,6.7l0.1,0l0.1,0L640.4,742.4z M606,742.4l2.5-6.7l-1.2-0.5H606
			V742.4z M605.8,742.4l-2.5,6.8l1.2,0.4h1.3V742.4z M568.8,728.7l2.5-6.8l-1.2-0.4h-1.3V728.7z M568.6,728.7v-7.2h-3.4l-2.2,2.7
			L568.6,728.7z M551.9,752.7l6.2,3.7l0,0l0,0L551.9,752.7z M539.2,778.6l-6.7-2.6l-0.5,1.2v1.3H539.2z M539.2,778.8H532v3.3
			l2.5,2.2L539.2,778.8z M570,805l-4.7,5.5l0,0l0,0L570,805z M583.1,822.1l-6.5,3l0,0l0,0L583.1,822.1z M582.9,864.1l-6.5-3.1l0,0.1
			l0,0.1L582.9,864.1z M569.8,881.2l-4.6-5.5l0,0L569.8,881.2z M539.4,906.6l-4.6-5.5l-2.6,2.2v3.4H539.4z M540.2,909.2l-6.8,2.5
			l0,0.1l0,0.1L540.2,909.2z M541.2,911.4l6.7-2.6l-0.5-1.4l-1.1-1.1L541.2,911.4z M552.7,935.3l-6.2,3.6l0,0.1l0,0.1L552.7,935.3z
			 M568,957.1l-5.6,4.5l2.2,2.7h3.4V957.1z M568.2,957.1v7.2h1.3l1.2-0.4L568.2,957.1z M606,943.4l-2.4-6.8l0,0l0,0L606,943.4z
			 M647.6,947.2l-3.6,6.2l0,0l0,0L647.6,947.2z M663.5,961.7l-5.9,4.1l0,0l0,0L663.5,961.7z M672,981.6l7.1-1.2l0,0l0,0L672,981.6z
			 M678.8,1020.8l-7.1,1.2l0.9,5l5,0.8L678.8,1020.8z M722.5,1022.8l0.4,7.2l0.1,0l0.1,0L722.5,1022.8z M653.3,788.3l5.1,5.1
			L653.3,788.3z M762.7,788.3l-5.1,5.1L762.7,788.3z M762.7,897.7l-5.1-5.1L762.7,897.7z M755.5,823.1l-6.6,2.8l0,0l0,0L755.5,823.1
			z M727.9,795.5l-2.9,6.6l0,0l0,0L727.9,795.5z M687.9,795.5l-2.8-6.6l0,0l0,0L687.9,795.5z M660.5,823.1l6.6,2.9l0,0l0,0
			L660.5,823.1z M660.5,863.1l-6.6,2.8l0,0l0,0L660.5,863.1z M687.9,890.5l-2.9,6.6l0,0l0,0L687.9,890.5z M727.9,890.5l-2.8-6.6l0,0
			l0,0L727.9,890.5z M755.5,863.1l6.6,2.9l0,0l0,0L755.5,863.1z M622.9,959.1c-5.6,0-11.1,1-16.5,3.1l5.1,13.5
			c3.8-1.4,7.5-2.1,11.3-2.1V959.1z M606.5,962.2c-4.7,1.8-9.3,3.7-14,5.8l5.8,13.2c4.5-2,8.9-3.8,13.3-5.5L606.5,962.2z M592.4,968
			c-4.3,1.9-8.6,3.8-13.1,5.5l5.1,13.5c4.7-1.8,9.3-3.7,13.9-5.8L592.4,968z M579.3,973.5c-3.8,1.4-7.5,2.1-11.3,2.1V990
			c5.6,0,11.1-1,16.5-3.1L579.3,973.5z M568,975.6c-3,0-5.6-0.6-7.9-1.7l-6.2,13c4.4,2.1,9.2,3.1,14.2,3.1V975.6z M560.2,974
			c-2.5-1.3-4.8-3.1-6.9-5.6l-10.9,9.4c3.2,3.7,6.9,6.7,11.2,8.9L560.2,974z M553.3,968.4c-1.5-1.8-3.5-4.3-5.8-7.5l-11.7,8.4
			c2.5,3.4,4.7,6.3,6.6,8.6L553.3,968.4z M547.6,961.1c-2.2-3.3-4.6-6.9-7.1-10.9l-12.2,7.7c2.6,4.1,5,7.8,7.4,11.3L547.6,961.1z
			 M540.5,950.2c-2.5-3.9-5-8.1-7.5-12.4l-12.5,7.2c2.6,4.5,5.2,8.8,7.8,12.9L540.5,950.2z M533,937.9c-2.5-4.5-4.7-8.7-6.6-12.7
			l-13,6.3c2.1,4.3,4.4,8.8,7,13.5L533,937.9z M526.5,925.4c-1.8-4.1-3.2-7.9-4.4-11.4l-13.7,4.4c1.3,4,2.9,8.3,4.9,12.8
			L526.5,925.4z M522.1,914c-1.1-3.4-1.5-5.7-1.5-7.3h-14.4c0,3.6,0.8,7.5,2.2,11.7L522.1,914z M520.7,906.8c0-3.6,0.9-6.5,2.5-9
			L511,890c-3.2,5-4.8,10.7-4.8,16.8H520.7z M523.2,897.7c2-3.3,4.5-6.2,7.5-8.9l-9.5-10.8c-4,3.5-7.4,7.6-10.2,12.1L523.2,897.7z
			 M530.7,888.8c3.4-3,7-5.8,10.9-8.5l-8.1-11.9c-4.4,3-8.5,6.2-12.4,9.6L530.7,888.8z M541.6,880.4c4.6-3,8.7-6.1,12.5-9.5
			l-9.5-10.8c-3.2,2.8-6.8,5.6-10.8,8.2L541.6,880.4z M554.1,870.9c4-3.5,7.4-7.3,10.2-11.3l-11.8-8.2c-2,3-4.7,5.9-7.9,8.8
			L554.1,870.9z M564.3,859.5c3.3-4.9,4.8-10.5,4.8-16.5h-14.4c0,3.4-0.8,6.1-2.4,8.5L564.3,859.5z M569.1,843
			c0-5.9-1.6-11.4-4.8-16.3l-12,8c1.6,2.4,2.4,5.1,2.4,8.3H569.1z M564.3,826.7c-2.8-4.2-6.3-8.1-10.4-11.5l-9.3,11
			c3.2,2.7,5.7,5.6,7.7,8.6L564.3,826.7z M554.1,815.3c-3.8-3.4-7.9-6.7-12.3-9.7l-8.3,11.7c4,2.8,7.6,5.7,11.1,8.8L554.1,815.3z
			 M541.8,805.5c-4-2.8-7.6-5.7-11.1-8.8l-9.6,10.8c3.8,3.4,7.9,6.6,12.3,9.7L541.8,805.5z M530.8,796.9c-3.2-3-5.8-6.1-7.9-9.3
			l-12.1,7.8c2.8,4.3,6.2,8.3,10.2,12.1L530.8,796.9z M522.9,787.6c-1.6-2.5-2.5-5.4-2.5-9h-14.4c0,6.1,1.5,11.8,4.8,16.8
			L522.9,787.6z M520.5,778.6c0-1.3,0.4-3.6,1.5-7.1l-13.7-4.4c-1.3,4.1-2.2,8-2.2,11.5H520.5z M521.9,771.8
			c1.3-3.5,2.8-7.3,4.8-11.4l-13-6.1c-2.1,4.5-3.9,8.7-5.3,12.7L521.9,771.8z M526.6,760.4c1.9-4.1,4.1-8.3,6.6-12.5l-12.5-7.2
			c-2.6,4.6-5,9.1-7.1,13.6L526.6,760.4z M533.2,747.9c2.6-4.5,5.2-8.7,7.7-12.7l-12.2-7.7c-2.6,4.1-5.3,8.5-8,13.1L533.2,747.9z
			 M540.8,735.3c2.6-4.1,5.1-7.7,7.4-11l-11.7-8.4c-2.5,3.5-5.1,7.3-7.9,11.6L540.8,735.3z M548.3,724.3c2.3-3.2,4.2-5.6,5.7-7.2
			l-10.6-9.8c-2,2.2-4.3,5.1-6.8,8.5L548.3,724.3z M554,717.1c2.1-2.3,4.4-4,6.8-5.2l-6.2-13c-4.2,2-8,4.9-11.3,8.5L554,717.1z
			 M560.7,711.9c2.5-1.2,5.2-1.8,8-1.8v-14.4c-4.9,0-9.6,1-14.1,3.1L560.7,711.9z M568.8,710.2c3.8,0,7.4,0.7,11,2.1l5.3-13.4
			c-5.3-2.1-10.7-3.1-16.3-3.1V710.2z M579.8,712.3c4.2,1.7,8.5,3.5,12.8,5.6l6.3-13c-4.6-2.2-9.2-4.2-13.8-6.1L579.8,712.3z
			 M592.8,718c4.5,2.1,9.1,4,13.6,5.8l5.3-13.4c-4.3-1.7-8.6-3.5-12.9-5.5L592.8,718z M606.5,723.8c5.3,2,10.8,3.1,16.5,3.1v-14.4
			c-3.8,0-7.5-0.7-11.3-2.1L606.5,723.8z M622.9,726.9c7.6,0,14.4-2.3,20.1-7.1l-9.3-11c-2.9,2.4-6.4,3.7-10.8,3.7V726.9z
			 M643.1,719.7c5.7-4.9,9.3-11.2,10.7-18.7l-14.2-2.6c-0.8,4.3-2.7,7.6-5.8,10.3L643.1,719.7z M653.7,701.1
			c0.2-0.9,0.1-0.3,0.2-1.2c0.2-0.9,0.1-0.3,0.2-1.2s0.1-0.3,0.2-1.2c0.2-0.9,0.1-0.3,0.2-1.2c0.2-0.9,0.1-0.3,0.2-1.2
			c0.2-0.9,0.1-0.3,0.2-1.2c0.2-0.9,0.1-0.3,0.2-1.2c0.2-0.9,0.1-0.3,0.2-1.2c0.1-0.4,0-0.2,0.1-0.6c0.1-0.4,0-0.2,0.1-0.6
			c0.1-0.4,0-0.2,0.1-0.6c0.1-0.4,0-0.2,0.1-0.6c0.1-0.4,0-0.2,0.1-0.6c0.1-0.4,0-0.2,0.1-0.6c0.1-0.4,0-0.2,0.1-0.6
			c0.1-0.4,0-0.2,0.1-0.6c0.1-0.4,0-0.2,0.1-0.6s0-0.2,0.1-0.6c0.1-0.4,0-0.2,0.1-0.6c0.1-0.4,0-0.2,0.1-0.6c0.1-0.4,0-0.2,0.1-0.6
			c0.1-0.4,0-0.2,0.1-0.6c0.1-0.4,0-0.2,0.1-0.6c0.1-0.4,0-0.2,0.1-0.6l-14.2-2.6c-0.2,0.9-0.1,0.3-0.2,1.2
			c-0.2,0.9-0.1,0.3-0.2,1.2c-0.2,0.9-0.1,0.3-0.2,1.2c-0.2,0.9-0.1,0.3-0.2,1.2c-0.2,0.9-0.1,0.3-0.2,1.2c-0.2,0.9-0.1,0.3-0.2,1.2
			c-0.2,0.9-0.1,0.3-0.2,1.2c-0.2,0.9-0.1,0.3-0.2,1.2c-0.1,0.4,0,0.2-0.1,0.6c-0.1,0.4,0,0.2-0.1,0.6c-0.1,0.4,0,0.2-0.1,0.6
			c-0.1,0.4,0,0.2-0.1,0.6c-0.1,0.4,0,0.2-0.1,0.6c-0.1,0.4,0,0.2-0.1,0.6c-0.1,0.4,0,0.2-0.1,0.6c-0.1,0.4,0,0.2-0.1,0.6
			c-0.1,0.4,0,0.2-0.1,0.6c-0.1,0.4,0,0.2-0.1,0.6c-0.1,0.4,0,0.2-0.1,0.6c-0.1,0.4,0,0.2-0.1,0.6c-0.1,0.4,0,0.2-0.1,0.6
			c-0.1,0.4,0,0.2-0.1,0.6c-0.1,0.4,0,0.2-0.1,0.6c-0.1,0.4,0,0.2-0.1,0.6L653.7,701.1z M657.3,681.4c0.2-0.9,0.1-0.3,0.2-1.2
			c0.2-0.9,0.1-0.3,0.2-1.2c0.2-0.9,0.1-0.3,0.2-1.2c0.2-0.9,0.1-0.3,0.2-1.2c0.2-0.9,0.1-0.3,0.2-1.2c0.2-0.9,0.1-0.3,0.2-1.2
			c0.2-0.9,0.1-0.3,0.2-1.2c0.2-0.9,0.1-0.3,0.2-1.2c0.1-0.4,0-0.2,0.1-0.6s0-0.2,0.1-0.6c0.1-0.4,0-0.2,0.1-0.6
			c0.1-0.4,0-0.2,0.1-0.6c0.1-0.4,0-0.2,0.1-0.6c0.1-0.4,0-0.2,0.1-0.6c0.1-0.4,0-0.2,0.1-0.6c0.1-0.4,0-0.2,0.1-0.6
			c0.1-0.4,0-0.2,0.1-0.6c0.1-0.4,0-0.2,0.1-0.6c0.1-0.4,0-0.2,0.1-0.6c0.1-0.4,0-0.2,0.1-0.6c0.1-0.4,0-0.2,0.1-0.6
			c0.1-0.4,0-0.2,0.1-0.6c0.1-0.4,0-0.2,0.1-0.6c0.1-0.4,0-0.2,0.1-0.6l-14.2-2.6c-0.2,0.9-0.1,0.3-0.2,1.2
			c-0.2,0.9-0.1,0.3-0.2,1.2c-0.2,0.9-0.1,0.3-0.2,1.2c-0.2,0.9-0.1,0.3-0.2,1.2c-0.2,0.9-0.1,0.3-0.2,1.2c-0.2,0.9-0.1,0.3-0.2,1.2
			c-0.2,0.9-0.1,0.3-0.2,1.2c-0.2,0.9-0.1,0.3-0.2,1.2c-0.1,0.4,0,0.2-0.1,0.6c-0.1,0.4,0,0.2-0.1,0.6c-0.1,0.4,0,0.2-0.1,0.6
			c-0.1,0.4,0,0.2-0.1,0.6s0,0.2-0.1,0.6c-0.1,0.4,0,0.2-0.1,0.6c-0.1,0.4,0,0.2-0.1,0.6c-0.1,0.4,0,0.2-0.1,0.6
			c-0.1,0.4,0,0.2-0.1,0.6c-0.1,0.4,0,0.2-0.1,0.6c-0.1,0.4,0,0.2-0.1,0.6c-0.1,0.4,0,0.2-0.1,0.6c-0.1,0.4,0,0.2-0.1,0.6
			c-0.1,0.4,0,0.2-0.1,0.6c-0.1,0.4,0,0.2-0.1,0.6c-0.1,0.4,0,0.2-0.1,0.6L657.3,681.4z M661,661.7c0.8-4.3,2.6-7.6,5.2-10l-10-10.4
			c-4.9,4.8-8,10.8-9.3,17.7L661,661.7z M666,651.7c2.8-2.6,6.3-4.4,10.7-5.2l-2.7-14.1c-6.9,1.3-12.9,4.2-17.8,8.8L666,651.7z
			 M676.7,646.5c5.1-0.9,10.2-1.5,15.4-1.7l-0.7-14.4c-5.8,0.3-11.5,0.9-17.2,1.9L676.7,646.5z M692.2,644.8
			c5.3-0.4,10.6-0.6,15.8-0.6v-14.4c-5.5,0-11.2,0.2-16.8,0.6L692.2,644.8z M708,644.2c5.5,0,10.9,0.2,16.4,0.6l1-14.4
			c-5.8-0.4-11.6-0.6-17.4-0.6V644.2z M724.4,644.8c5.3,0.4,10.6,1.1,15.8,2.1l2.8-14.1c-5.8-1.1-11.6-1.9-17.6-2.3L724.4,644.8z
			 M740.2,646.9c4.4,0.8,7.7,2.6,10.1,5.1l10.2-10.2c-4.8-4.8-10.8-7.7-17.6-9L740.2,646.9z M750.4,651.9c2.5,2.5,4.2,5.7,5.1,10.1
			l14.1-2.7c-1.3-6.9-4.3-12.9-9-17.6L750.4,651.9z M755.4,662c1.2,6.5,2.3,13,3.4,19.4l14.2-2.4c-1.1-6.5-2.2-13-3.4-19.6
			L755.4,662z M758.8,681.4c1.1,6.5,2.2,13,3.4,19.6l14.2-2.6c-1.2-6.5-2.3-13-3.4-19.4L758.8,681.4z M762.3,701.1
			c1.4,7.4,5,13.6,10.7,18.5l9.3-11c-3.1-2.7-5.1-6-5.8-10.1L762.3,701.1z M772.9,719.5c5.8,4.9,12.6,7.3,20.1,7.3v-14.4
			c-4.2,0-7.7-1.3-10.8-3.9L772.9,719.5z M793.1,726.9c5.6,0,11.1-1,16.5-3.1l-5.1-13.5c-3.8,1.4-7.5,2.1-11.3,2.1V726.9z
			 M809.5,723.8c4.7-1.8,9.3-3.7,13.9-5.8l-6-13.1c-4.3,1.9-8.6,3.8-13.1,5.5L809.5,723.8z M823.4,718c4.5-2,8.9-3.8,13.3-5.5
			l-5.1-13.5c-4.7,1.8-9.3,3.7-14,5.8L823.4,718z M836.7,712.5c3.8-1.4,7.5-2.1,11.3-2.1V696c-5.6,0-11.1,1-16.5,3.1L836.7,712.5z
			 M848,710.4c3.1,0,5.6,0.6,7.6,1.7l6.9-12.7c-4.4-2.4-9.3-3.5-14.5-3.5V710.4z M856,712.3c2.4,1.1,4.6,2.9,6.7,5.3l10.9-9.4
			c-3.3-3.8-7-6.7-11.4-8.8L856,712.3z M862.7,717.6c1.5,1.7,3.3,4.2,5.5,7.4l11.9-8.1c-2.4-3.5-4.6-6.4-6.5-8.7L862.7,717.6z
			 M868.3,725.1c2.3,3.2,4.7,6.8,7.2,10.7l12.2-7.7c-2.6-4.1-5.2-7.9-7.7-11.4L868.3,725.1z M875.5,735.8c2.5,3.9,5,8.1,7.4,12.5
			l12.6-7c-2.6-4.7-5.2-9.1-7.8-13.2L875.5,735.8z M883,748.4c2.4,4.2,4.5,8.3,6.3,12.4l13.2-5.8c-2-4.6-4.3-9.1-7-13.8L883,748.4z
			 M889.4,761c1.9,3.9,3.4,7.5,4.5,10.9l13.7-4.4c-1.3-4.1-3.1-8.4-5.2-12.8L889.4,761z M893.9,772c1.1,3.4,1.5,5.7,1.5,7.3h14.4
			c0-3.6-0.8-7.5-2.2-11.7L893.9,772z M895.3,779.2c0,3.7-0.9,6.7-2.5,9.2l12.1,7.8c3.2-5,4.8-10.8,4.8-17H895.3z M892.9,788.4
			c-2,3.2-4.6,6.2-7.8,9l9.6,10.8c4.1-3.6,7.5-7.6,10.3-11.9L892.9,788.4z M885.1,797.4c-3.2,2.8-6.8,5.6-10.8,8.2l7.9,12
			c4.6-3,8.7-6.1,12.5-9.5L885.1,797.4z M874.2,805.7c-4.4,3-8.5,6.2-12.4,9.6l9.6,10.8c3.4-3,7-5.8,10.9-8.5L874.2,805.7z
			 M861.8,815.3c-3.9,3.5-7.3,7.3-10.1,11.5l12,8c2-3.1,4.6-6,7.6-8.7L861.8,815.3z M851.8,826.6c-3.3,4.8-4.9,10.4-4.9,16.4h14.4
			c0-3.4,0.8-6,2.3-8.2L851.8,826.6z M846.9,843c0,5.9,1.6,11.4,4.8,16.3l12-8c-1.6-2.4-2.4-5.1-2.4-8.3H846.9z M851.7,859.3
			c2.8,4.2,6.2,8.1,10.3,11.6l9.6-10.8c-3.2-2.9-5.8-5.8-7.8-8.9L851.7,859.3z M862.1,871c3.8,3.2,7.9,6.4,12.2,9.4l8.3-11.7
			c-4-2.8-7.7-5.7-11.2-8.7L862.1,871z M874.2,880.5c3.9,2.8,7.6,5.7,10.9,8.9l9.8-10.6c-3.9-3.6-8-6.9-12.4-10L874.2,880.5z
			 M885.3,889.4c3.2,2.8,5.7,5.8,7.8,9l12.1-7.8c-2.8-4.4-6.3-8.3-10.3-11.9L885.3,889.4z M893.1,898.4c1.6,2.5,2.5,5.4,2.5,9h14.4
			c0-6.1-1.5-11.8-4.8-16.8L893.1,898.4z M895.5,907.4c0,1.6-0.4,3.9-1.6,7.2l13.6,4.8c1.5-4.2,2.4-8.3,2.4-12.1H895.5z
			 M893.9,914.8c-1.1,3.3-2.6,7-4.5,11.1l13,6.1c2.1-4.5,3.8-8.7,5.1-12.6L893.9,914.8z M889.4,925.8c-1.9,4-4.1,8.2-6.7,12.4
			l12.3,7.5c2.8-4.6,5.3-9.2,7.4-13.8L889.4,925.8z M882.6,938.4c-2.5,4.3-5,8.4-7.6,12.3l12,8c2.8-4.2,5.5-8.5,8.1-13.1
			L882.6,938.4z M874.9,950.8c-2.5,3.9-4.9,7.4-7.3,10.6l11.5,8.7c2.7-3.5,5.4-7.4,8-11.6L874.9,950.8z M867.5,961.5
			c-2.3,3.3-4.3,5.8-5.8,7.5l10.9,9.4c1.9-2.2,4.2-5.1,6.6-8.6L867.5,961.5z M861.8,968.9c-2.1,2.3-4.4,4-6.8,5.2l6.2,13
			c4.2-2,8-4.9,11.3-8.5L861.8,968.9z M854.9,974.2c-2.1,1.1-4.6,1.7-7.4,1.7v14.4c4.9,0,9.6-1,13.9-3.2L854.9,974.2z M847.4,975.8
			c-3.5,0-7.2-0.7-11.2-2.2l-5,13.5c5.4,2,10.8,3.1,16.2,3.1V975.8z M836.3,973.7c-4.4-1.7-8.9-3.5-13.3-5.5l-5.8,13.2
			c4.7,2.1,9.3,4,14,5.8L836.3,973.7z M823.1,968.3c-4.7-2.2-9.4-4.2-14.2-6l-5.1,13.5c4.4,1.7,8.8,3.6,13.2,5.6L823.1,968.3z
			 M808.9,962.2c-5.3-2-10.6-3.1-15.8-3.1v14.4c3.3,0,6.9,0.7,10.7,2.1L808.9,962.2z M793.1,959.1c-6.8,0-13.1,1.4-18,5.1l8.6,11.5
			c1.5-1.1,4.3-2.2,9.4-2.2V959.1z M775.1,964.2c-4.3,3.2-7.5,7.3-9.7,12.3l13.1,5.9c1.3-2.8,3-5,5.2-6.6L775.1,964.2z M765.4,976.4
			c-2,4.4-3.5,9.3-4.4,14.5l14.2,2.4c0.7-4.2,1.8-7.8,3.3-10.9L765.4,976.4z M761,991c-0.7,4.5-1.4,8.8-2.2,13l14.2,2.6
			c0.8-4.4,1.6-8.9,2.3-13.6L761,991z M758.9,1004c-0.7,3.5-1.3,6.9-2,10.2l14.1,2.8c0.7-3.4,1.3-6.8,2-10.3L758.9,1004z
			 M756.8,1014.4c-0.5,3.2-1.1,6.5-1.8,9.9l14.1,2.7c0.7-3.5,1.3-7,1.8-10.2L756.8,1014.4z M755,1024.3c-0.8,4.5-2.6,7.8-5.2,10.2
			l10,10.4c5-4.8,8-10.9,9.3-18L755,1024.3z M750,1034.5c-2.6,2.4-6.1,4.2-10.7,5l2.6,14.2c6.9-1.3,13-4.1,17.9-8.6L750,1034.5z
			 M739.3,1039.5c-5.1,0.9-10.3,1.5-15.6,1.9l1.1,14.4c5.7-0.4,11.4-1.1,17-2.1L739.3,1039.5z M723.9,1041.4
			c-5.2,0.3-10.6,0.4-15.9,0.4v14.4c5.6,0,11.2-0.1,16.7-0.4L723.9,1041.4z M708,1041.8c-5.5,0-10.9-0.2-16.4-0.6l-1,14.4
			c5.8,0.4,11.6,0.6,17.4,0.6V1041.8z M691.6,1041.2c-5.3-0.4-10.6-1.1-15.8-2.1l-2.8,14.1c5.8,1.1,11.6,1.9,17.6,2.3L691.6,1041.2z
			 M675.8,1039.1c-4.4-0.8-7.7-2.6-10.1-5.1l-10.2,10.2c4.8,4.8,10.8,7.7,17.6,9L675.8,1039.1z M665.7,1034.1
			c-2.6-2.6-4.3-6-5.2-10.4l-14.1,2.7c1.3,6.9,4.2,12.9,8.9,17.7L665.7,1034.1z M660.6,1023.7c-1.2-6.4-2.3-12.8-3.4-19.2l-14.2,2.4
			c1.1,6.5,2.2,13,3.4,19.5L660.6,1023.7z M657.2,1004.6c-1.1-6.6-2.2-13.2-3.4-19.7l-14.2,2.7c1.2,6.4,2.3,12.8,3.4,19.3
			L657.2,1004.6z M653.7,984.9c-1.4-7.4-5-13.6-10.7-18.5l-9.3,11c3.1,2.7,5.1,6,5.8,10.1L653.7,984.9z M643.1,966.5
			c-5.8-4.9-12.6-7.3-20.1-7.3v14.4c4.2,0,7.7,1.3,10.8,3.9L643.1,966.5z M743.9,1022.5c0.6-3,1.2-6.7,1.8-11l-14.2-2.2
			c-0.7,4.3-1.3,7.8-1.8,10.7L743.9,1022.5z M745.7,1011.5c0.7-4.4,1.4-8.8,2.2-13.3l-14.2-2.5c-0.8,4.6-1.6,9.2-2.2,13.7
			L745.7,1011.5z M747.9,998.1c0.8-4.5,1.6-8.7,2.5-12.7l-14-3.2c-1,4.3-1.9,8.7-2.7,13.4L747.9,998.1z M750.4,985.4
			c0.9-4,1.8-7,2.5-9.2l-13.5-5c-1.1,3-2.1,6.6-3.1,11L750.4,985.4z M753,976.3c3.3-8.8,8.5-15.7,15.6-20.8l-8.5-11.7
			c-9.5,6.9-16.4,16.1-20.6,27.4L753,976.3z M768.6,955.4c7-5.1,15.1-7.7,24.5-7.7v-14.4c-12.3,0-23.4,3.4-33,10.4L768.6,955.4z
			 M793.1,947.8c2.8,0,6.2,0.5,10.5,1.7l4-13.8c-5.1-1.5-10-2.3-14.5-2.3V947.8z M803.8,949.6c4.6,1.2,9.3,2.6,14,4.2l4.8-13.6
			c-5.2-1.8-10.3-3.4-15.3-4.6L803.8,949.6z M817.9,953.8c5,1.7,9.8,3.5,14.3,5.3l5.3-13.4c-4.8-1.9-9.8-3.8-15-5.6L817.9,953.8z
			 M832.3,959.1c4.7,1.9,9,3.5,12.6,4.9l5-13.5c-3.5-1.3-7.6-2.9-12.3-4.8L832.3,959.1z M852.9,961.9c6.6-7.8,12.4-16.1,17.4-24.8
			l-12.5-7.2c-4.6,8-9.9,15.5-16,22.7L852.9,961.9z M870.4,937.1c5-8.7,9.4-17.7,13.1-27l-13.4-5.4c-3.5,8.7-7.6,17.1-12.2,25.3
			L870.4,937.1z M884,907.4v-0.2h-14.4v0.2H884z M881.4,901.7l-30.8-26.2l-9.3,11l30.8,26.2L881.4,901.7z M850.6,875.5
			c-4.8-4-8.5-8.8-11.2-14.4l-13,6.1c3.5,7.5,8.6,14,15,19.4L850.6,875.5z M839.5,861.1c-2.7-5.8-4-11.8-4-18.1h-14.4
			c0,8.4,1.8,16.5,5.3,24.1L839.5,861.1z M835.5,843c0-6.3,1.3-12.4,4-18.1l-13.1-6c-3.5,7.6-5.3,15.7-5.3,24.1H835.5z M839.4,825
			c2.8-5.8,6.6-10.7,11.4-14.7l-9.2-11.1c-6.4,5.4-11.5,11.9-15.2,19.5L839.4,825z M850.8,810.3l30.4-25.3l-9.2-11.1l-30.4,25.3
			L850.8,810.3z M883.8,779.4v-0.2h-14.4v0.2H883.8z M883.8,779.2c0-0.9-0.2-1.6-0.2-1.7c-0.1-0.3-0.1-0.5-0.2-0.6
			c-0.1-0.3-0.2-0.6-0.3-0.8c-0.2-0.5-0.4-1.1-0.7-1.8l-13.4,5.3c0.3,0.6,0.4,1.1,0.5,1.3c0,0.1,0,0.1,0,0.1c0,0,0,0,0,0
			c0,0,0-0.1,0-0.1c0,0,0-0.1-0.1-0.2c0-0.1-0.1-0.3-0.1-0.5c0-0.1,0-0.3-0.1-0.4c0-0.2,0-0.4,0-0.7H883.8z M882.5,774.6
			c-0.3-0.8-0.5-1.5-0.8-2c-0.1-0.3-0.3-0.6-0.4-0.9c-0.1-0.2-0.2-0.4-0.4-0.7c-0.1-0.2-0.5-0.8-1.1-1.4l-10.2,10.2
			c-0.2-0.2-0.3-0.3-0.4-0.5c-0.1-0.1-0.2-0.2-0.3-0.3c-0.1-0.2-0.2-0.3-0.3-0.4c-0.1-0.2-0.2-0.3-0.2-0.4c0-0.1,0-0.1,0-0.1
			c0,0,0,0,0,0.1c0.1,0.2,0.3,0.7,0.5,1.4L882.5,774.6z M881.5,772c-3.4-8.7-7.4-17-12.2-24.9l-12.3,7.5c4.3,7.1,8,14.7,11.1,22.6
			L881.5,772z M869.3,747.3c-4.6-8-9.9-15.6-15.7-22.8l-11.2,9c5.4,6.7,10.2,13.7,14.5,21L869.3,747.3z M848,721.7h-0.2v14.4h0.2
			V721.7z M845.4,722.2l-37.8,13.7l4.9,13.5l37.8-13.7L845.4,722.2z M807.6,735.8c-4.6,1.6-9.3,2.4-14.1,2.4v14.4
			c6.5,0,12.8-1.1,18.9-3.2L807.6,735.8z M793.5,738.2c-7.9,0-15-1.9-21.5-5.7l-7.2,12.5c8.8,5.1,18.4,7.6,28.8,7.6V738.2z
			 M771.9,732.5c-5.5-3.1-10.1-7.2-13.8-12.4l-11.7,8.3c4.9,6.9,11.1,12.4,18.4,16.6L771.9,732.5z M758.2,720.2
			c-3.6-5.2-5.9-10.9-7.1-17.1l-14.2,2.6c1.5,8.2,4.7,15.8,9.4,22.7L758.2,720.2z M751.1,703.2l-6.8-39.2l-14.2,2.5l6.8,39.2
			L751.1,703.2z M738.4,658.1c-10-1.7-20.2-2.5-30.4-2.5V670c9.4,0,18.7,0.8,28,2.3L738.4,658.1z M708,655.5c-5,0-10.1,0.2-15.1,0.6
			l1.2,14.4c4.6-0.4,9.3-0.6,13.9-0.6V655.5z M693.1,656.2c-5,0.3-10,0.8-14.9,1.5l2,14.3c4.5-0.6,9-1.1,13.7-1.3L693.1,656.2z
			 M672.1,663.5c-1.2,6.7-2.4,13.4-3.4,20l14.2,2.3c1.1-6.5,2.2-13.1,3.4-19.8L672.1,663.5z M668.7,683.5c-1,6.4-2.3,12.9-3.7,19.3
			l14,3.2c1.5-6.7,2.8-13.4,3.9-20.1L668.7,683.5z M664.9,703c-1.1,5.2-2.9,9.9-5.4,14.3l12.5,7.2c3.3-5.8,5.7-12,7.1-18.7
			L664.9,703z M659.6,717.2c-2.6,4.3-5.7,8-9.3,11.1l9.3,11c4.9-4.2,9.1-9.1,12.4-14.7L659.6,717.2z M650.2,728.3
			c-3.7,3.1-7.8,5.6-12.5,7.5l5.3,13.4c6.1-2.4,11.6-5.7,16.5-9.8L650.2,728.3z M637.9,735.7c-4.5,1.7-9.4,2.6-14.8,2.6v14.4
			c7,0,13.6-1.1,19.8-3.5L637.9,735.7z M623.1,738.2c-5.2,0-10.1-0.9-14.6-2.6l-5.1,13.5c6.2,2.3,12.8,3.5,19.6,3.5V738.2z
			 M606,735.2h-0.2v14.4h0.2V735.2z M608.3,735.7l-37-13.7l-5,13.5l37,13.7L608.3,735.7z M568.8,721.5h-0.2v14.4h0.2V721.5z
			 M563,724.2c-6.4,7.9-12.1,16.2-17.3,24.8l12.4,7.4c4.8-8,10.2-15.7,16.1-23.1L563,724.2z M545.7,748.9
			c-5.2,8.6-9.6,17.6-13.2,27.1l13.5,5.1c3.3-8.7,7.4-17,12.1-24.8L545.7,748.9z M532,778.6v0.2h14.4v-0.2H532z M534.6,784.3
			l30.8,26.2l9.3-11l-30.8-26.2L534.6,784.3z M565.4,810.5c4.8,4,8.5,8.8,11.1,14.6l13.1-6c-3.5-7.7-8.5-14.2-15-19.6L565.4,810.5z
			 M576.6,825.1c2.6,5.6,3.9,11.5,3.9,17.9h14.4c0-8.4-1.8-16.4-5.3-24L576.6,825.1z M580.5,843c0,6.3-1.4,12.3-4.1,18l13,6.2
			c3.7-7.7,5.5-15.8,5.5-24.2H580.5z M576.3,861.1c-2.6,5.7-6.3,10.6-11.1,14.6l9.2,11.1c6.5-5.4,11.5-11.9,15-19.6L576.3,861.1z
			 M565.2,875.7L534.8,901l9.2,11.1l30.4-25.3L565.2,875.7z M532.2,906.6v0.2h14.4v-0.2H532.2z M532.2,906.8c0,0.9,0.2,1.6,0.2,1.6
			c0.1,0.2,0.1,0.4,0.1,0.6c0.1,0.3,0.2,0.5,0.2,0.8c0.2,0.5,0.4,1.1,0.7,1.9l13.5-4.9c-0.1-0.4-0.2-0.7-0.3-0.9
			c-0.1-0.3-0.2-0.5-0.2-0.6c0-0.1,0-0.1-0.1-0.2c0,0,0,0,0,0c0,0,0,0,0,0.1c0,0,0,0.1,0,0.2c0,0.1,0,0.2,0.1,0.4c0,0.1,0,0.2,0,0.4
			c0,0.2,0,0.4,0,0.7H532.2z M533.5,911.9c0.3,0.7,0.5,1.3,0.8,1.9c0.1,0.3,0.3,0.6,0.4,0.9c0,0,0.5,1,1.4,1.9l10.2-10.2
			c0.2,0.2,0.3,0.3,0.4,0.4c0.1,0.1,0.2,0.2,0.2,0.3c0.1,0.2,0.2,0.3,0.3,0.4c0.1,0.2,0.2,0.3,0.2,0.4c0,0.1,0,0.1,0,0.1
			c0,0,0,0,0-0.1c0-0.1-0.1-0.3-0.2-0.5c-0.1-0.2-0.2-0.5-0.3-0.8L533.5,911.9z M534.5,914c3.4,8.7,7.3,17,12,24.9l12.5-7.2
			c-4.2-7.3-7.9-15-11-22.9L534.5,914z M546.5,939.1c4.7,7.8,10,15.3,15.8,22.5l11.2-9c-5.4-6.7-10.3-13.7-14.7-20.9L546.5,939.1z
			 M568,964.3h0.2v-14.4H568V964.3z M570.6,963.8l37.8-13.7l-4.9-13.5l-37.8,13.7L570.6,963.8z M608.4,950.2
			c4.6-1.6,9.3-2.4,14.1-2.4v-14.4c-6.5,0-12.8,1.1-18.9,3.2L608.4,950.2z M622.5,947.8c7.9,0,15,1.9,21.5,5.7l7.2-12.5
			c-8.8-5.1-18.4-7.6-28.8-7.6V947.8z M644.1,953.5c5.5,3.1,10,7.2,13.5,12.3l11.9-8.2c-4.8-6.9-10.9-12.5-18.3-16.7L644.1,953.5z
			 M657.7,965.9c3.7,5.2,6.1,10.8,7.2,17.1l14.2-2.6c-1.5-8.3-4.8-15.9-9.7-22.8L657.7,965.9z M664.9,982.8l6.8,39.2l14.2-2.5
			l-6.8-39.2L664.9,982.8z M677.6,1027.9c10,1.7,20.2,2.5,30.4,2.5V1016c-9.4,0-18.7-0.8-28-2.3L677.6,1027.9z M708,1030.4
			c5,0,9.9-0.1,14.9-0.4l-0.8-14.4c-4.7,0.3-9.4,0.4-14.1,0.4V1030.4z M723.1,1030c5-0.4,9.9-1,14.7-1.7l-2-14.3
			c-4.6,0.7-9.2,1.2-13.9,1.6L723.1,1030z M638,843c0-9.8,1.8-18.9,5.5-27.3l-13.2-5.7c-4.4,10.3-6.6,21.4-6.6,33H638z M643.4,815.7
			c3.7-8.6,8.7-16,15-22.3l-10.2-10.2c-7.6,7.6-13.7,16.6-18,26.8L643.4,815.7z M658.4,793.4c6.3-6.3,13.7-11.3,22.3-15l-5.7-13.2
			c-10.2,4.4-19.2,10.4-26.8,18L658.4,793.4z M680.7,778.4c8.4-3.6,17.5-5.5,27.3-5.5v-14.4c-11.7,0-22.7,2.2-33,6.6L680.7,778.4z
			 M708,773c9.8,0,18.9,1.8,27.3,5.5l5.7-13.2c-10.3-4.4-21.4-6.6-33-6.6V773z M735.3,778.4c8.6,3.7,16,8.7,22.3,15l10.2-10.2
			c-7.6-7.6-16.6-13.7-26.8-18L735.3,778.4z M757.6,793.4c6.3,6.3,11.3,13.7,15,22.3l13.2-5.7c-4.4-10.2-10.4-19.2-18-26.8
			L757.6,793.4z M772.6,815.7c3.6,8.4,5.5,17.5,5.5,27.3h14.4c0-11.7-2.2-22.7-6.6-33L772.6,815.7z M778,843
			c0,9.8-1.8,18.9-5.5,27.3l13.2,5.7c4.4-10.3,6.6-21.4,6.6-33H778z M772.6,870.3c-3.7,8.6-8.7,16-15,22.3l10.2,10.2
			c7.6-7.6,13.7-16.6,18-26.8L772.6,870.3z M757.6,892.6c-6.3,6.3-13.7,11.3-22.3,15l5.7,13.2c10.2-4.4,19.2-10.4,26.8-18
			L757.6,892.6z M735.3,907.6c-8.4,3.6-17.5,5.5-27.3,5.5v14.4c11.7,0,22.7-2.2,33-6.6L735.3,907.6z M708,913
			c-9.8,0-18.9-1.8-27.3-5.5l-5.7,13.2c10.3,4.4,21.4,6.6,33,6.6V913z M680.7,907.6c-8.6-3.7-16-8.7-22.3-15l-10.2,10.2
			c7.6,7.6,16.6,13.7,26.8,18L680.7,907.6z M658.4,892.6c-6.3-6.3-11.3-13.7-15-22.3l-13.2,5.7c4.4,10.2,10.4,19.2,18,26.8
			L658.4,892.6z M643.4,870.3c-3.6-8.4-5.5-17.5-5.5-27.3h-14.4c0,11.7,2.2,22.7,6.6,33L643.4,870.3z M766.7,843
			c0-8-1.5-15.7-4.6-22.8l-13.2,5.7c2.3,5.2,3.4,10.9,3.4,17H766.7z M762.1,820.3c-3-7.1-7.2-13.4-12.6-18.8l-10.2,10.2
			c4,4,7.2,8.7,9.5,14.2L762.1,820.3z M749.5,801.5c-5.4-5.4-11.6-9.6-18.8-12.6l-5.6,13.3c5.5,2.3,10.2,5.5,14.2,9.5L749.5,801.5z
			 M730.8,788.9c-7.1-3.1-14.7-4.6-22.8-4.6v14.4c6.2,0,11.8,1.2,17,3.4L730.8,788.9z M708,784.3c-8,0-15.7,1.5-22.9,4.6l5.6,13.3
			c5.4-2.3,11.1-3.4,17.3-3.4V784.3z M685,788.9c-7,3-13.2,7.2-18.5,12.6l10.2,10.2c4-4,8.7-7.2,14.1-9.6L685,788.9z M666.5,801.5
			c-5.4,5.4-9.6,11.6-12.6,18.8l13.3,5.6c2.3-5.5,5.5-10.2,9.5-14.2L666.5,801.5z M653.9,820.2c-3.1,7.1-4.6,14.7-4.6,22.8h14.4
			c0-6.2,1.2-11.8,3.4-17L653.9,820.2z M649.3,843c0,8,1.5,15.7,4.6,22.9l13.3-5.6c-2.3-5.4-3.4-11.1-3.4-17.3H649.3z M653.9,866
			c3,7,7.2,13.2,12.6,18.5l10.2-10.2c-4-4-7.2-8.7-9.6-14.1L653.9,866z M666.5,884.5c5.3,5.3,11.5,9.5,18.5,12.6l5.7-13.2
			c-5.4-2.3-10-5.5-14.1-9.6L666.5,884.5z M685.1,897.1c7.2,3.1,14.9,4.6,22.9,4.6v-14.4c-6.2,0-11.9-1.2-17.3-3.4L685.1,897.1z
			 M708,901.7c8,0,15.7-1.5,22.8-4.6l-5.7-13.2c-5.2,2.3-10.9,3.4-17,3.4V901.7z M730.7,897.1c7.1-3,13.4-7.2,18.8-12.6l-10.2-10.2
			c-4,4-8.7,7.2-14.2,9.5L730.7,897.1z M749.5,884.5c5.3-5.3,9.5-11.5,12.6-18.5l-13.2-5.7c-2.3,5.4-5.5,10-9.6,14.1L749.5,884.5z
			 M762.1,865.9c3.1-7.2,4.6-14.9,4.6-22.9h-14.4c0,6.2-1.2,11.9-3.4,17.3L762.1,865.9z"/>
	</g>
</g>
<linearGradient id="SVGID_00000155136144063936518510000018430634799317154971_" gradientUnits="userSpaceOnUse" x1="407.8304" y1="741.791" x2="407.8304" y2="417.541" gradientTransform="matrix(1 0 0 -1 0 1021.89)">
	<stop  offset="0" style="stop-color:#0079D5"/>
	<stop  offset="1" style="stop-color:#0367CC"/>
</linearGradient>
<path style="fill:url(#SVGID_00000155136144063936518510000018430634799317154971_);" d="M522.9,519.3L394.5,453
	c-15.8-8.1-34.5-8.1-50.3,0l-55.3,28.6l159.7,88.7l74.3-38.3C528.1,529.3,528.1,521.9,522.9,519.3z"/>
<linearGradient id="SVGID_00000137843998798863957490000011805391744208871319_" gradientUnits="userSpaceOnUse" x1="407.8304" y1="741.791" x2="407.8304" y2="417.541" gradientTransform="matrix(1 0 0 -1 0 1021.89)">
	<stop  offset="0" style="stop-color:#0085FF"/>
	<stop  offset="1" style="stop-color:#0085FF;stop-opacity:0"/>
</linearGradient>
<path style="fill:url(#SVGID_00000137843998798863957490000011805391744208871319_);fill-opacity:0.45;" d="M522.9,519.3L394.5,453
	c-15.8-8.1-34.5-8.1-50.3,0l-55.3,28.6l159.7,88.7l74.3-38.3C528.1,529.3,528.1,521.9,522.9,519.3z"/>
<linearGradient id="SVGID_00000109008003992876277870000010207770864500527771_" gradientUnits="userSpaceOnUse" x1="407.8304" y1="741.791" x2="407.8304" y2="417.541" gradientTransform="matrix(1 0 0 -1 0 1021.89)">
	<stop  offset="0" style="stop-color:#00C2FF"/>
	<stop  offset="1" style="stop-color:#00D1FF;stop-opacity:0"/>
</linearGradient>
<path style="fill:url(#SVGID_00000109008003992876277870000010207770864500527771_);fill-opacity:0.3;" d="M522.9,519.3L394.5,453
	c-15.8-8.1-34.5-8.1-50.3,0l-55.3,28.6l159.7,88.7l74.3-38.3C528.1,529.3,528.1,521.9,522.9,519.3z"/>
<linearGradient id="SVGID_00000109023790845409243260000013926141372629076655_" gradientUnits="userSpaceOnUse" x1="425.444" y1="741.791" x2="425.444" y2="417.541" gradientTransform="matrix(1 0 0 -1 0 1021.89)">
	<stop  offset="0" style="stop-color:#0079D5"/>
	<stop  offset="1" style="stop-color:#0367CC"/>
</linearGradient>
<path style="fill:url(#SVGID_00000109023790845409243260000013926141372629076655_);" d="M394.5,453l128.4,66.3
	c5.2,2.7,5.2,10,0,12.7l-74.3,38.3l0.4,0.2l141.3-73.3L386.2,392.6l-125.6,73.3l28.3,15.7l55.3-28.6
	C360,444.9,378.7,444.9,394.5,453z"/>
<linearGradient id="SVGID_00000137093945051588582490000014844094646481014439_" gradientUnits="userSpaceOnUse" x1="425.444" y1="741.791" x2="425.444" y2="417.541" gradientTransform="matrix(1 0 0 -1 0 1021.89)">
	<stop  offset="0" style="stop-color:#0085FF"/>
	<stop  offset="1" style="stop-color:#0085FF;stop-opacity:0"/>
</linearGradient>
<path style="fill:url(#SVGID_00000137093945051588582490000014844094646481014439_);fill-opacity:0.45;" d="M394.5,453l128.4,66.3
	c5.2,2.7,5.2,10,0,12.7l-74.3,38.3l0.4,0.2l141.3-73.3L386.2,392.6l-125.6,73.3l28.3,15.7l55.3-28.6
	C360,444.9,378.7,444.9,394.5,453z"/>
<linearGradient id="SVGID_00000021094574511884387750000009851218700626118278_" gradientUnits="userSpaceOnUse" x1="425.444" y1="741.791" x2="425.444" y2="417.541" gradientTransform="matrix(1 0 0 -1 0 1021.89)">
	<stop  offset="0" style="stop-color:#00C2FF"/>
	<stop  offset="1" style="stop-color:#00D1FF;stop-opacity:0"/>
</linearGradient>
<path style="fill:url(#SVGID_00000021094574511884387750000009851218700626118278_);fill-opacity:0.3;" d="M394.5,453l128.4,66.3
	c5.2,2.7,5.2,10,0,12.7l-74.3,38.3l0.4,0.2l141.3-73.3L386.2,392.6l-125.6,73.3l28.3,15.7l55.3-28.6
	C360,444.9,378.7,444.9,394.5,453z"/>
<linearGradient id="SVGID_00000176740775104396411280000000761470120615646340_" gradientUnits="userSpaceOnUse" x1="370.4764" y1="741.7913" x2="370.4764" y2="417.5413" gradientTransform="matrix(1 0 0 -1 0 1021.89)">
	<stop  offset="0" style="stop-color:#0079D5"/>
	<stop  offset="1" style="stop-color:#0367CC"/>
</linearGradient>
<path style="fill:url(#SVGID_00000176740775104396411280000000761470120615646340_);" d="M662.7,422.8L405.1,288.6
	c-21.7-11.3-47.5-11.3-69.2,0L78.2,422.8c-15,7.9-15,29.3,0,37.1L214,530.7c-3.3-3.2-2.7-9.1,1.8-11.4l73.1-37.7l-28.3-15.7
	l125.6-73.3l204.1,104.7L449,570.5l-0.4-0.2l-54.1,27.9c-1,0.5-2,1-2.9,1.4c4.6-1.4,9.2-3.2,13.6-5.5l257.6-134.3
	C677.7,452.1,677.7,430.7,662.7,422.8z"/>
<linearGradient id="SVGID_00000036958485449579765590000007621528425488203397_" gradientUnits="userSpaceOnUse" x1="370.4764" y1="741.7913" x2="370.4764" y2="417.5413" gradientTransform="matrix(1 0 0 -1 0 1021.89)">
	<stop  offset="0" style="stop-color:#0085FF"/>
	<stop  offset="1" style="stop-color:#0085FF;stop-opacity:0"/>
</linearGradient>
<path style="fill:url(#SVGID_00000036958485449579765590000007621528425488203397_);fill-opacity:0.45;" d="M662.7,422.8
	L405.1,288.6c-21.7-11.3-47.5-11.3-69.2,0L78.2,422.8c-15,7.9-15,29.3,0,37.1L214,530.7c-3.3-3.2-2.7-9.1,1.8-11.4l73.1-37.7
	l-28.3-15.7l125.6-73.3l204.1,104.7L449,570.5l-0.4-0.2l-54.1,27.9c-1,0.5-2,1-2.9,1.4c4.6-1.4,9.2-3.2,13.6-5.5l257.6-134.3
	C677.7,452.1,677.7,430.7,662.7,422.8z"/>
<linearGradient id="SVGID_00000183957880582167663820000005226449976310024353_" gradientUnits="userSpaceOnUse" x1="370.4764" y1="741.7913" x2="370.4764" y2="417.5413" gradientTransform="matrix(1 0 0 -1 0 1021.89)">
	<stop  offset="0" style="stop-color:#00C2FF"/>
	<stop  offset="1" style="stop-color:#00D1FF;stop-opacity:0"/>
</linearGradient>
<path style="fill:url(#SVGID_00000183957880582167663820000005226449976310024353_);fill-opacity:0.3;" d="M662.7,422.8L405.1,288.6
	c-21.7-11.3-47.5-11.3-69.2,0L78.2,422.8c-15,7.9-15,29.3,0,37.1L214,530.7c-3.3-3.2-2.7-9.1,1.8-11.4l73.1-37.7l-28.3-15.7
	l125.6-73.3l204.1,104.7L449,570.5l-0.4-0.2l-54.1,27.9c-1,0.5-2,1-2.9,1.4c4.6-1.4,9.2-3.2,13.6-5.5l257.6-134.3
	C677.7,452.1,677.7,430.7,662.7,422.8z"/>
<linearGradient id="SVGID_00000110468234149923285290000004575758171768321179_" gradientUnits="userSpaceOnUse" x1="9.536461e-03" y1="780.4805" x2="699.3515" y2="145.7055" gradientTransform="matrix(1 0 0 -1 0 1021.89)">
	<stop  offset="1.880610e-02" style="stop-color:#0986DF"/>
	<stop  offset="0.2374" style="stop-color:#0962BC"/>
	<stop  offset="0.9249" style="stop-color:#0A428C"/>
</linearGradient>
<path style="fill:url(#SVGID_00000110468234149923285290000004575758171768321179_);" d="M363.8,588c4.2,2.1,9.1,2.1,13.4,0
	l53.7-27.6l-142-78.9l-66.1,34.1L363.8,588z"/>
<linearGradient id="SVGID_00000054235190851426377660000006104354599519508905_" gradientUnits="userSpaceOnUse" x1="33.1558" y1="816.9982" x2="732.4977" y2="182.2232" gradientTransform="matrix(1 0 0 -1 0 1021.89)">
	<stop  offset="1.880610e-02" style="stop-color:#0986DF"/>
	<stop  offset="0.2374" style="stop-color:#0962BC"/>
	<stop  offset="0.9249" style="stop-color:#0A428C"/>
</linearGradient>
<path style="fill-rule:evenodd;clip-rule:evenodd;fill:url(#SVGID_00000054235190851426377660000006104354599519508905_);" d="
	M67,435.7l0.7,0.3c-0.4,1.5-0.6,3-0.7,4.5V435.7z M67,440.6c0,0.5,0,1.1,0,1.6V440.6z M449.7,571l-18.8-10.5L377.2,588
	c-4.2,2.1-9.2,2.1-13.4,0l-141.1-72.4l-18.6,9.9c-3.4,1.7,2,1.9,6.3,3.3c1.4,0.4,2.7,1,3.5,1.8l-3.5-1.8L78.2,459.9
	c-7.2-3.8-11-10.7-11.2-17.8v130.9c0,11.3,6.3,21.6,16.3,26.7l255.6,131.1c19.9,10.2,43.5,10.2,63.4,0l255.4-131.1
	c10-5.1,16.3-15.4,16.3-26.7V435.7l-0.7,0.4c2.3,8.8-1.3,19-10.6,23.8L405.1,594.2c-4.4,2.3-8.9,4.1-13.6,5.5
	c1-0.4,12.6-4.9,13.6-5.5L449.7,571z"/>
<linearGradient id="SVGID_00000054980396678619782180000017713975211220045710_" gradientUnits="userSpaceOnUse" x1="2.9999" y1="783.7751" x2="702.3419" y2="149.0001" gradientTransform="matrix(1 0 0 -1 0 1021.89)">
	<stop  offset="1.880610e-02" style="stop-color:#0986DF"/>
	<stop  offset="0.2374" style="stop-color:#0962BC"/>
	<stop  offset="0.9249" style="stop-color:#0A428C"/>
</linearGradient>
<path style="fill:url(#SVGID_00000054980396678619782180000017713975211220045710_);" d="M405.1,594.2c-1,0.5-12.6,5-13.6,5.5
	C396.2,598.3,400.7,596.5,405.1,594.2z"/>
<linearGradient id="SVGID_00000012473091025366878610000016398454686312934273_" gradientUnits="userSpaceOnUse" x1="-49.095" y1="726.3813" x2="650.247" y2="91.6062" gradientTransform="matrix(1 0 0 -1 0 1021.89)">
	<stop  offset="1.880610e-02" style="stop-color:#0986DF"/>
	<stop  offset="0.2374" style="stop-color:#0962BC"/>
	<stop  offset="0.9249" style="stop-color:#0A428C"/>
</linearGradient>
<path style="fill:url(#SVGID_00000012473091025366878610000016398454686312934273_);" d="M204.2,525.6l6.3,3.3
	C206.2,527.5,200.8,527.3,204.2,525.6z"/>
</svg>
