<svg width="1024" height="1024" viewBox="0 0 1024 1024" fill="none" xmlns="http://www.w3.org/2000/svg">
<path d="M115.426 835.523C115.522 836.197 115.621 836.698 115.723 836.999C115.8 837.058 115.875 837.114 115.947 837.167C115.95 836.919 115.964 836.673 115.985 836.43C115.781 836.136 115.595 835.833 115.426 835.523Z" fill="black"/>
<path d="M115.723 836.999C115.796 837.215 115.87 837.328 115.945 837.328C115.945 837.274 115.946 837.221 115.947 837.167C115.875 837.114 115.8 837.058 115.723 836.999Z" fill="black"/>
<path fill-rule="evenodd" clip-rule="evenodd" d="M135.819 837.328C135.629 837.328 135.446 836.189 135.274 834.075C135.627 835.095 135.819 836.189 135.819 837.328Z" fill="black"/>
<path fill-rule="evenodd" clip-rule="evenodd" d="M984 128H40C17.9086 128 0 145.909 0 168V351.701L233.402 230.062L233.417 230.054C265.768 213.251 304.244 213.235 336.554 230.068L637.931 387.133C650.596 393.767 658.837 404.901 662.2 417.142C662.22 417.217 662.241 417.291 662.261 417.366L662.283 417.449C662.297 417.499 662.31 417.549 662.323 417.6L662.348 417.696L662.362 417.747C662.382 417.825 662.402 417.904 662.423 417.982C663.199 421.021 663.677 424.141 663.852 427.287L664 428.368V584.26C664 586.966 663.815 589.646 663.453 592.283H979C995.324 592.283 1010.67 596.489 1024 603.876V168C1024 145.909 1006.09 128 984 128ZM493 896H979H984C1006.09 896 1024 878.091 1024 856V851V850.717C1024 875.57 1003.85 895.717 979 895.717H493C468.147 895.717 448 875.57 448 850.717V851C448 875.853 468.147 896 493 896ZM400 701.872V685.283C400 633.921 441.638 592.283 493 592.283H612.553C614.715 590.225 616 587.331 616 584.26V484.498L377.263 608.918L189.127 504.336L90.4094 555.618L0 508.5V614.602L258.996 747.421L259 747.423C275.331 755.802 294.807 755.821 311.254 747.418L311.273 747.408L400 701.872ZM400 851C400 867.324 404.206 882.665 411.593 896H40C17.9086 896 0 878.091 0 856V704H69.1358L237.089 790.13C267.203 805.581 302.975 805.564 333.128 790.144L333.143 790.136L400 755.825V851ZM90.4452 501.509L0 454.373V405.829L255.541 272.651L255.556 272.644C274.054 263.042 295.988 263.059 314.374 272.636L615.659 429.653L615.667 429.657C615.679 429.664 615.691 429.67 615.702 429.676L615.815 430.458C615.798 430.469 615.778 430.482 615.754 430.496L615.737 430.506C615.726 430.512 615.714 430.519 615.701 430.526L615.667 430.545L615.659 430.549L377.997 554.408L189.896 449.846L90.4452 501.509ZM640 430L639.939 429.553C639.898 427.659 639.641 425.769 639.17 423.926L639.158 423.88L639.143 423.821C639.133 423.784 639.124 423.747 639.114 423.71C639.095 423.64 639.077 423.57 639.057 423.5L639.94 429.584L640 430ZM51.8007 837.328C50.8029 837.328 49.994 817.527 49.994 800.99C49.994 785.964 50.8028 767.114 51.8007 767.114L51.8032 767.114C51.9232 761.731 56.325 757.403 61.7376 757.403C65.3445 757.403 68.5025 759.325 70.2437 762.2C75.7946 766.634 93.7052 783.714 102.754 792.763C106.252 796.261 110.263 800.375 114.15 804.443C114.142 803.281 114.139 802.128 114.139 800.99C114.139 785.964 114.947 767.114 115.945 767.114L115.948 767.114C116.068 761.731 120.47 757.403 125.882 757.403C131.295 757.403 135.696 761.731 135.817 767.114L135.819 767.114C136.817 767.114 137.626 785.964 137.626 800.99C137.626 817.527 136.817 837.328 135.819 837.328C135.819 842.816 131.37 847.265 125.882 847.265C120.394 847.265 115.945 842.816 115.945 837.328C115.87 837.328 115.796 837.215 115.723 836.999C111.072 833.467 96.1077 819.333 86.1463 809.371C82.7005 805.926 78.0902 801.195 73.4571 796.351C73.4729 797.921 73.4812 799.475 73.4812 800.99C73.4812 817.527 72.6723 837.328 71.6745 837.328C71.6745 842.816 67.2256 847.265 61.7376 847.265C56.2496 847.265 51.8007 842.816 51.8007 837.328Z" fill="white"/>
<path fill-rule="evenodd" clip-rule="evenodd" d="M1024 704V685.283C1024 674.101 1019.92 663.871 1013.17 656C1004.92 646.379 992.67 640.283 979 640.283H625.134H572.571H520.008H493C471.036 640.283 452.747 656.019 448.792 676.832C448.272 679.569 448 682.394 448 685.283V704.214V731.191V850.717C448 875.57 468.147 895.717 493 895.717H979C1003.85 895.717 1024 875.57 1024 850.717V704ZM615.496 704.112C624.875 704.112 633.245 705.353 640.555 707.903C647.995 710.387 653.962 714.572 658.318 720.488C662.908 726.459 665.026 734.435 665.026 744.072C665.026 753.32 662.942 761.219 658.552 767.559L658.544 767.571L658.537 767.582C654.219 773.699 648.301 778.274 640.895 781.33L640.884 781.335L640.873 781.339C633.629 784.26 625.371 785.682 616.156 785.682H600.841V831.717H575.701V704.112H615.496ZM738.658 704.112C747.283 704.112 755.099 705.302 762.068 707.738C769.187 710.115 774.929 714.138 779.17 719.828C783.538 725.576 785.548 733.22 785.548 742.422C785.548 751.346 783.516 758.975 779.231 765.097C775.033 771.094 769.341 775.567 762.252 778.521L762.232 778.529L762.212 778.537C761.975 778.632 761.737 778.725 761.499 778.817L792.033 831.717H763.461L736.12 782.712H721.033V831.717H695.893V704.112H738.658ZM842.514 726.282V754.107H887.064V776.277H842.514V809.382H896.964V831.717H817.374V704.112H895.149V726.282H842.514Z" fill="white"/>
<path d="M614.506 764.172H600.841V725.622H613.681C623.131 725.622 629.785 727.141 634.041 729.789C637.785 732.119 640.051 736.515 640.051 744.072C640.051 751.385 637.893 756.206 634.095 759.209C630.126 762.347 623.771 764.172 614.506 764.172Z" fill="white"/>
<path d="M750.133 759.126L750.093 759.057L749.869 759.232C746.356 760.613 741.891 761.367 736.348 761.367H721.033V725.622H736.348C744.888 725.622 750.93 727.077 754.856 729.6L754.89 729.623L754.926 729.644C758.464 731.783 760.573 735.707 760.573 742.422C760.573 748.97 758.48 753.512 754.622 756.565C753.351 757.563 751.86 758.422 750.133 759.126Z" fill="white"/>
<path d="M49.994 800.99C49.994 817.527 50.8029 837.328 51.8007 837.328C51.8007 836.189 51.9924 835.095 52.3453 834.075C53.077 825.08 53.6074 810.137 53.6074 800.99C53.6074 794.027 53.1352 781.192 52.4674 771.978C51.9152 770.576 51.694 769.074 51.8038 767.592L51.8022 767.517L51.8018 767.492C51.8014 767.463 51.801 767.433 51.8009 767.403L51.8007 767.34C51.8007 767.265 51.8015 767.189 51.8032 767.114L51.8007 767.114C50.8028 767.114 49.994 785.964 49.994 800.99Z" fill="white"/>
<path d="M71.6745 837.328C72.6723 837.328 73.4812 817.527 73.4812 800.99C73.4812 799.475 73.4729 797.921 73.4571 796.351C72.3023 795.144 71.1461 793.93 70.0062 792.726C69.917 795.88 69.8678 798.741 69.8678 800.99C69.8678 810.137 70.3982 825.08 71.1298 834.075C71.4828 835.095 71.6745 836.189 71.6745 837.328Z" fill="white"/>
<path d="M115.217 835.117C109.374 828.239 95.1689 813.284 88.7013 806.816C86.0668 804.182 79.8203 798.126 73.3952 792.024C73.4219 793.467 73.4427 794.916 73.4571 796.351C78.0902 801.195 82.7005 805.926 86.1463 809.371C96.1077 819.333 111.072 833.467 115.723 836.999C115.621 836.698 115.522 836.197 115.426 835.523C115.353 835.389 115.284 835.254 115.217 835.117Z" fill="white"/>
<path d="M70.0062 792.726C71.1461 793.93 72.3023 795.144 73.4571 796.351C73.4427 794.916 73.4219 793.467 73.3952 792.024C72.3056 790.989 71.2109 789.953 70.1278 788.931C70.0816 790.228 70.0409 791.499 70.0062 792.726Z" fill="white"/>
<path d="M102.754 792.763C93.7052 783.714 75.7946 766.634 70.2437 762.2C70.7323 763.007 71.1093 763.889 71.3534 764.825C71.9744 765.536 72.6887 766.338 73.4774 767.212C81.1017 775.659 95.6811 790.8 100.199 795.318C103.433 798.552 108.788 803.719 114.194 808.809C114.174 807.351 114.159 805.891 114.15 804.443C110.263 800.375 106.252 796.261 102.754 792.763Z" fill="white"/>
<path d="M115.945 767.114C114.947 767.114 114.139 785.964 114.139 800.99C114.139 802.128 114.142 803.281 114.15 804.443C115.341 805.689 116.521 806.932 117.67 808.151C117.723 805.55 117.752 803.114 117.752 800.99C117.752 793.688 117.233 779.929 116.513 770.659C116.145 769.621 115.945 768.504 115.945 767.34C115.945 767.265 115.946 767.189 115.948 767.114L115.945 767.114Z" fill="white"/>
<path d="M114.15 804.443C114.159 805.891 114.174 807.351 114.194 808.809C115.326 809.875 116.46 810.937 117.578 811.977C117.614 810.675 117.645 809.394 117.67 808.151C116.521 806.932 115.341 805.689 114.15 804.443Z" fill="white"/>
<path d="M137.626 800.99C137.626 785.964 136.817 767.114 135.819 767.114L135.817 767.114C135.818 767.189 135.819 767.265 135.819 767.34C135.819 768.504 135.619 769.621 135.251 770.659C134.532 779.929 134.012 793.688 134.012 800.99C134.012 810.137 134.543 825.08 135.274 834.075C135.627 835.095 135.819 836.189 135.819 837.328C136.817 837.328 137.626 817.527 137.626 800.99Z" fill="white"/>
</svg>
